M48
; DRILL file {KiCad (5.1.9)-1} date 01/20/21 19:31:42
; FORMAT={3:3/ absolute / metric / suppress leading zeros}
; #@! TF.CreationDate,2021-01-20T19:31:42-08:00
; #@! TF.GenerationSoftware,Kicad,Pcbnew,(5.1.9)-1
; #@! TF.FileFunction,Plated,1,4,PTH
FMAT,2
METRIC,TZ
T1C0.400
T2C0.500
T3C0.600
T4C0.650
T5C1.000
T6C1.200
T7C3.000
%
G90
G05
T1
X107150Y-115350
X111965Y-96400
X112680Y-98150
X113000Y-109500
X114350Y-115350
X114500Y-102060
X115000Y-92400
X115250Y-85250
X115250Y-89500
X115500Y-81000
X115775Y-84250
X115965Y-94200
X116500Y-102060
X116740Y-98910
X118000Y-98900
X119250Y-96500
X119770Y-91130
X119780Y-92190
X120340Y-90140
X121500Y-71750
X122350Y-97150
X122750Y-93250
X124250Y-73000
X124250Y-88250
X124284Y-82973
X125750Y-84250
X125909Y-88909
X128350Y-70200
X129000Y-91000
X129400Y-69900
X129500Y-101750
X129500Y-102750
X129750Y-106150
X130700Y-82050
X130700Y-83400
X130750Y-68950
X132000Y-69950
X132450Y-77750
X133000Y-92000
X133000Y-93250
X133550Y-77750
X134100Y-70050
X134250Y-113000
X134250Y-114500
X135250Y-93140
X135300Y-82050
X135300Y-83400
X135350Y-77700
X135400Y-73950
X135450Y-69050
X136450Y-75750
X136450Y-76950
X136700Y-69950
X136700Y-73000
X137750Y-113000
X137750Y-114500
X140750Y-74550
X141500Y-84000
X142000Y-111750
X142000Y-115750
X142650Y-74550
X144250Y-81498
X144250Y-82502
X144748Y-83750
X145752Y-83750
X146900Y-83500
X146900Y-84450
X146900Y-85400
T2
X96750Y-66000
X96750Y-126000
X97409Y-64409
X97409Y-67591
X97409Y-124409
X97409Y-127591
X99000Y-63750
X99000Y-68250
X99000Y-123750
X99000Y-128250
X100591Y-64409
X100591Y-67591
X100591Y-124409
X100591Y-127591
X101250Y-66000
X101250Y-126000
X146750Y-66000
X146750Y-126000
X147409Y-64409
X147409Y-67591
X147409Y-124409
X147409Y-127591
X149000Y-63750
X149000Y-68250
X149000Y-123750
X149000Y-128250
X150591Y-64409
X150591Y-67591
X150591Y-124409
X150591Y-127591
X151250Y-66000
X151250Y-126000
T5
X97800Y-85180
X97800Y-87720
X97800Y-90260
X97800Y-92800
X97800Y-95340
X97800Y-97880
X97800Y-100420
X97800Y-102960
X97800Y-105500
X97800Y-108040
X97800Y-110580
X97800Y-113120
X97800Y-115660
X97800Y-118200
X104530Y-72880
X104530Y-75420
X104530Y-77960
X104530Y-80500
X114000Y-120450
X116540Y-120450
X117000Y-75920
X117000Y-78460
X117000Y-81000
X119080Y-120450
X121620Y-120450
X124160Y-120450
X126700Y-120450
X132000Y-87050
X132000Y-89590
X132250Y-120450
X134540Y-87050
X134540Y-89590
X134790Y-120450
X137080Y-87050
X137080Y-89590
X137330Y-120450
X139620Y-87050
X139620Y-89590
X139870Y-120450
X142160Y-87050
X142160Y-89590
X150200Y-90260
X150200Y-92800
X150200Y-95340
X150200Y-97880
X150200Y-100420
X150200Y-102960
X150200Y-105500
X150200Y-108040
X150200Y-110580
X150200Y-113120
X150200Y-115660
X150200Y-118200
T6
X114400Y-68000
X117900Y-68000
T7
X99000Y-66000
X99000Y-126000
X149000Y-66000
X149000Y-126000
T3
G00X151200Y-77825
M15
G01X151900Y-77825
M16
G05
G00X151200Y-86175
M15
G01X151900Y-86175
M16
G05
T4
G00X148450Y-79775
M15
G01X148650Y-79775
M16
G05
G00X148450Y-84225
M15
G01X148650Y-84225
M16
G05
T0
M30
