%TF.GenerationSoftware,KiCad,Pcbnew,(5.1.9)-1*%
%TF.CreationDate,2021-01-20T19:31:44-08:00*%
%TF.ProjectId,STM32_BOB,53544d33-325f-4424-9f42-2e6b69636164,rev?*%
%TF.SameCoordinates,Original*%
%TF.FileFunction,Soldermask,Bot*%
%TF.FilePolarity,Negative*%
%FSLAX46Y46*%
G04 Gerber Fmt 4.6, Leading zero omitted, Abs format (unit mm)*
G04 Created by KiCad (PCBNEW (5.1.9)-1) date 2021-01-20 19:31:44*
%MOMM*%
%LPD*%
G01*
G04 APERTURE LIST*
%ADD10O,1.700000X1.700000*%
%ADD11R,1.700000X1.700000*%
%ADD12C,0.800000*%
%ADD13C,6.000000*%
%ADD14R,2.400000X2.400000*%
%ADD15C,2.400000*%
%ADD16O,1.250000X1.050000*%
%ADD17O,1.900000X1.000000*%
G04 APERTURE END LIST*
D10*
%TO.C,J3*%
X142160000Y-89590000D03*
X142160000Y-87050000D03*
X139620000Y-89590000D03*
X139620000Y-87050000D03*
X137080000Y-89590000D03*
X137080000Y-87050000D03*
X134540000Y-89590000D03*
X134540000Y-87050000D03*
X132000000Y-89590000D03*
D11*
X132000000Y-87050000D03*
%TD*%
D12*
%TO.C,H4*%
X150590990Y-124409010D03*
X149000000Y-123750000D03*
X147409010Y-124409010D03*
X146750000Y-126000000D03*
X147409010Y-127590990D03*
X149000000Y-128250000D03*
X150590990Y-127590990D03*
X151250000Y-126000000D03*
D13*
X149000000Y-126000000D03*
%TD*%
D12*
%TO.C,H3*%
X100590990Y-124409010D03*
X99000000Y-123750000D03*
X97409010Y-124409010D03*
X96750000Y-126000000D03*
X97409010Y-127590990D03*
X99000000Y-128250000D03*
X100590990Y-127590990D03*
X101250000Y-126000000D03*
D13*
X99000000Y-126000000D03*
%TD*%
D12*
%TO.C,H2*%
X150590990Y-64409010D03*
X149000000Y-63750000D03*
X147409010Y-64409010D03*
X146750000Y-66000000D03*
X147409010Y-67590990D03*
X149000000Y-68250000D03*
X150590990Y-67590990D03*
X151250000Y-66000000D03*
D13*
X149000000Y-66000000D03*
%TD*%
D12*
%TO.C,H1*%
X100590990Y-64409010D03*
X99000000Y-63750000D03*
X97409010Y-64409010D03*
X96750000Y-66000000D03*
X97409010Y-67590990D03*
X99000000Y-68250000D03*
X100590990Y-67590990D03*
X101250000Y-66000000D03*
D13*
X99000000Y-66000000D03*
%TD*%
D10*
%TO.C,J8*%
X97800000Y-118200000D03*
X97800000Y-115660000D03*
X97800000Y-113120000D03*
X97800000Y-110580000D03*
X97800000Y-108040000D03*
X97800000Y-105500000D03*
X97800000Y-102960000D03*
X97800000Y-100420000D03*
X97800000Y-97880000D03*
X97800000Y-95340000D03*
X97800000Y-92800000D03*
X97800000Y-90260000D03*
X97800000Y-87720000D03*
D11*
X97800000Y-85180000D03*
%TD*%
D10*
%TO.C,J7*%
X150200000Y-118200000D03*
X150200000Y-115660000D03*
X150200000Y-113120000D03*
X150200000Y-110580000D03*
X150200000Y-108040000D03*
X150200000Y-105500000D03*
X150200000Y-102960000D03*
X150200000Y-100420000D03*
X150200000Y-97880000D03*
X150200000Y-95340000D03*
X150200000Y-92800000D03*
D11*
X150200000Y-90260000D03*
%TD*%
D14*
%TO.C,J1*%
X117900000Y-68000000D03*
D15*
X114400000Y-68000000D03*
%TD*%
D16*
%TO.C,J2*%
X148550000Y-84225000D03*
X148550000Y-79775000D03*
D17*
X151550000Y-86175000D03*
X151550000Y-77825000D03*
%TD*%
D11*
%TO.C,J4*%
X114000000Y-120450000D03*
D10*
X116540000Y-120450000D03*
X119080000Y-120450000D03*
X121620000Y-120450000D03*
X124160000Y-120450000D03*
X126700000Y-120450000D03*
%TD*%
%TO.C,J5*%
X104530000Y-80500000D03*
X104530000Y-77960000D03*
X104530000Y-75420000D03*
D11*
X104530000Y-72880000D03*
%TD*%
%TO.C,J6*%
X132250000Y-120450000D03*
D10*
X134790000Y-120450000D03*
X137330000Y-120450000D03*
X139870000Y-120450000D03*
%TD*%
D11*
%TO.C,JP1*%
X117000000Y-81000000D03*
D10*
X117000000Y-78460000D03*
X117000000Y-75920000D03*
%TD*%
M02*
