%TF.GenerationSoftware,KiCad,Pcbnew,(5.1.9)-1*%
%TF.CreationDate,2021-01-20T19:31:44-08:00*%
%TF.ProjectId,STM32_BOB,53544d33-325f-4424-9f42-2e6b69636164,rev?*%
%TF.SameCoordinates,Original*%
%TF.FileFunction,Copper,L4,Bot*%
%TF.FilePolarity,Positive*%
%FSLAX46Y46*%
G04 Gerber Fmt 4.6, Leading zero omitted, Abs format (unit mm)*
G04 Created by KiCad (PCBNEW (5.1.9)-1) date 2021-01-20 19:31:44*
%MOMM*%
%LPD*%
G01*
G04 APERTURE LIST*
%TA.AperFunction,ComponentPad*%
%ADD10O,1.700000X1.700000*%
%TD*%
%TA.AperFunction,ComponentPad*%
%ADD11R,1.700000X1.700000*%
%TD*%
%TA.AperFunction,ComponentPad*%
%ADD12C,0.800000*%
%TD*%
%TA.AperFunction,ComponentPad*%
%ADD13C,6.000000*%
%TD*%
%TA.AperFunction,ComponentPad*%
%ADD14R,2.400000X2.400000*%
%TD*%
%TA.AperFunction,ComponentPad*%
%ADD15C,2.400000*%
%TD*%
%TA.AperFunction,ComponentPad*%
%ADD16O,1.250000X1.050000*%
%TD*%
%TA.AperFunction,ComponentPad*%
%ADD17O,1.900000X1.000000*%
%TD*%
%TA.AperFunction,ViaPad*%
%ADD18C,0.800000*%
%TD*%
%TA.AperFunction,Conductor*%
%ADD19C,0.300000*%
%TD*%
%TA.AperFunction,Conductor*%
%ADD20C,0.750000*%
%TD*%
%TA.AperFunction,Conductor*%
%ADD21C,0.261112*%
%TD*%
G04 APERTURE END LIST*
D10*
%TO.P,J3,10*%
%TO.N,NRST*%
X142160000Y-89590000D03*
%TO.P,J3,9*%
%TO.N,GND*%
X142160000Y-87050000D03*
%TO.P,J3,8*%
%TO.N,Net-(J3-Pad8)*%
X139620000Y-89590000D03*
%TO.P,J3,7*%
%TO.N,Net-(J3-Pad7)*%
X139620000Y-87050000D03*
%TO.P,J3,6*%
%TO.N,Net-(J3-Pad6)*%
X137080000Y-89590000D03*
%TO.P,J3,5*%
%TO.N,GND*%
X137080000Y-87050000D03*
%TO.P,J3,4*%
%TO.N,Net-(J3-Pad4)*%
X134540000Y-89590000D03*
%TO.P,J3,3*%
%TO.N,GND*%
X134540000Y-87050000D03*
%TO.P,J3,2*%
%TO.N,Net-(J3-Pad2)*%
X132000000Y-89590000D03*
D11*
%TO.P,J3,1*%
%TO.N,+3V3*%
X132000000Y-87050000D03*
%TD*%
D12*
%TO.P,H4,1*%
%TO.N,GND*%
X150590990Y-124409010D03*
X149000000Y-123750000D03*
X147409010Y-124409010D03*
X146750000Y-126000000D03*
X147409010Y-127590990D03*
X149000000Y-128250000D03*
X150590990Y-127590990D03*
X151250000Y-126000000D03*
D13*
X149000000Y-126000000D03*
%TD*%
D12*
%TO.P,H3,1*%
%TO.N,GND*%
X100590990Y-124409010D03*
X99000000Y-123750000D03*
X97409010Y-124409010D03*
X96750000Y-126000000D03*
X97409010Y-127590990D03*
X99000000Y-128250000D03*
X100590990Y-127590990D03*
X101250000Y-126000000D03*
D13*
X99000000Y-126000000D03*
%TD*%
D12*
%TO.P,H2,1*%
%TO.N,GND*%
X150590990Y-64409010D03*
X149000000Y-63750000D03*
X147409010Y-64409010D03*
X146750000Y-66000000D03*
X147409010Y-67590990D03*
X149000000Y-68250000D03*
X150590990Y-67590990D03*
X151250000Y-66000000D03*
D13*
X149000000Y-66000000D03*
%TD*%
D12*
%TO.P,H1,1*%
%TO.N,GND*%
X100590990Y-64409010D03*
X99000000Y-63750000D03*
X97409010Y-64409010D03*
X96750000Y-66000000D03*
X97409010Y-67590990D03*
X99000000Y-68250000D03*
X100590990Y-67590990D03*
X101250000Y-66000000D03*
D13*
X99000000Y-66000000D03*
%TD*%
D10*
%TO.P,J8,14*%
%TO.N,PA2*%
X97800000Y-118200000D03*
%TO.P,J8,13*%
%TO.N,PA1*%
X97800000Y-115660000D03*
%TO.P,J8,12*%
%TO.N,PA0*%
X97800000Y-113120000D03*
%TO.P,J8,11*%
%TO.N,PC15*%
X97800000Y-110580000D03*
%TO.P,J8,10*%
%TO.N,PC14*%
X97800000Y-108040000D03*
%TO.P,J8,9*%
%TO.N,PC13*%
X97800000Y-105500000D03*
%TO.P,J8,8*%
%TO.N,PB8*%
X97800000Y-102960000D03*
%TO.P,J8,7*%
%TO.N,PB7*%
X97800000Y-100420000D03*
%TO.P,J8,6*%
%TO.N,PB5*%
X97800000Y-97880000D03*
%TO.P,J8,5*%
%TO.N,PB4*%
X97800000Y-95340000D03*
%TO.P,J8,4*%
%TO.N,PB3*%
X97800000Y-92800000D03*
%TO.P,J8,3*%
%TO.N,PA15*%
X97800000Y-90260000D03*
%TO.P,J8,2*%
%TO.N,GND*%
X97800000Y-87720000D03*
D11*
%TO.P,J8,1*%
%TO.N,+3V3*%
X97800000Y-85180000D03*
%TD*%
D10*
%TO.P,J7,12*%
%TO.N,PA3*%
X150200000Y-118200000D03*
%TO.P,J7,11*%
%TO.N,PB0*%
X150200000Y-115660000D03*
%TO.P,J7,10*%
%TO.N,PB1*%
X150200000Y-113120000D03*
%TO.P,J7,9*%
%TO.N,PB12*%
X150200000Y-110580000D03*
%TO.P,J7,8*%
%TO.N,PB13*%
X150200000Y-108040000D03*
%TO.P,J7,7*%
%TO.N,PB14*%
X150200000Y-105500000D03*
%TO.P,J7,6*%
%TO.N,PB15*%
X150200000Y-102960000D03*
%TO.P,J7,5*%
%TO.N,PA8*%
X150200000Y-100420000D03*
%TO.P,J7,4*%
%TO.N,PA9*%
X150200000Y-97880000D03*
%TO.P,J7,3*%
%TO.N,PA10*%
X150200000Y-95340000D03*
%TO.P,J7,2*%
%TO.N,GND*%
X150200000Y-92800000D03*
D11*
%TO.P,J7,1*%
%TO.N,+3V3*%
X150200000Y-90260000D03*
%TD*%
D14*
%TO.P,J1,1*%
%TO.N,+9V*%
X117900000Y-68000000D03*
D15*
%TO.P,J1,2*%
%TO.N,GND*%
X114400000Y-68000000D03*
%TD*%
D16*
%TO.P,J2,6*%
%TO.N,Net-(J2-Pad6)*%
X148550000Y-84225000D03*
X148550000Y-79775000D03*
D17*
X151550000Y-86175000D03*
X151550000Y-77825000D03*
%TD*%
D11*
%TO.P,J4,1*%
%TO.N,+3V3*%
X114000000Y-120450000D03*
D10*
%TO.P,J4,2*%
%TO.N,Net-(J4-Pad2)*%
X116540000Y-120450000D03*
%TO.P,J4,3*%
%TO.N,Net-(J4-Pad3)*%
X119080000Y-120450000D03*
%TO.P,J4,4*%
%TO.N,Net-(J4-Pad4)*%
X121620000Y-120450000D03*
%TO.P,J4,5*%
%TO.N,Net-(J4-Pad5)*%
X124160000Y-120450000D03*
%TO.P,J4,6*%
%TO.N,GND*%
X126700000Y-120450000D03*
%TD*%
%TO.P,J5,4*%
%TO.N,GND*%
X104530000Y-80500000D03*
%TO.P,J5,3*%
%TO.N,Net-(J5-Pad3)*%
X104530000Y-77960000D03*
%TO.P,J5,2*%
%TO.N,Net-(J5-Pad2)*%
X104530000Y-75420000D03*
D11*
%TO.P,J5,1*%
%TO.N,+3V3*%
X104530000Y-72880000D03*
%TD*%
%TO.P,J6,1*%
%TO.N,+3V3*%
X132250000Y-120450000D03*
D10*
%TO.P,J6,2*%
%TO.N,Net-(J6-Pad2)*%
X134790000Y-120450000D03*
%TO.P,J6,3*%
%TO.N,Net-(J6-Pad3)*%
X137330000Y-120450000D03*
%TO.P,J6,4*%
%TO.N,GND*%
X139870000Y-120450000D03*
%TD*%
D11*
%TO.P,JP1,1*%
%TO.N,GND*%
X117000000Y-81000000D03*
D10*
%TO.P,JP1,2*%
%TO.N,Net-(JP1-Pad2)*%
X117000000Y-78460000D03*
%TO.P,JP1,3*%
%TO.N,+3V3*%
X117000000Y-75920000D03*
%TD*%
D18*
%TO.N,GND*%
X133000000Y-93250000D03*
X129750000Y-106150000D03*
X107150000Y-115350000D03*
X114350000Y-115350000D03*
X129500000Y-102750000D03*
X141500000Y-84000000D03*
X146900000Y-85400000D03*
X142650000Y-74550000D03*
X130750000Y-68950000D03*
X135450000Y-69050000D03*
X136450000Y-75750000D03*
X136450000Y-76950000D03*
X136700000Y-69950000D03*
X134100000Y-70050000D03*
X132000000Y-69950000D03*
X129400000Y-69900000D03*
X128350000Y-70200000D03*
X135350000Y-77700000D03*
X146900000Y-83500000D03*
X122350000Y-97150000D03*
X111965000Y-96400000D03*
X115965000Y-94200000D03*
X112680000Y-98150000D03*
X115000000Y-92400000D03*
X115500000Y-81000000D03*
X146900000Y-84450000D03*
X118000000Y-98900000D03*
X116740000Y-98910000D03*
X119770000Y-91130000D03*
X122750000Y-93250000D03*
%TO.N,+3V3*%
X140750000Y-74550000D03*
X135300000Y-83400000D03*
X130700000Y-82050000D03*
X135300000Y-82050000D03*
X130700000Y-83400000D03*
X120340000Y-90140000D03*
X116500000Y-102060000D03*
X114500000Y-102060000D03*
X115775000Y-84250000D03*
X133000000Y-92000000D03*
X133550000Y-77750000D03*
X136700000Y-73000000D03*
X132450000Y-77750000D03*
X135400000Y-73950000D03*
X129500000Y-101750000D03*
X119780000Y-92190000D03*
%TO.N,NRST*%
X113000000Y-109500000D03*
X119250000Y-96500000D03*
%TO.N,Net-(D1-Pad2)*%
X124250000Y-73000000D03*
X121500000Y-71750000D03*
%TO.N,PORT_USB_D+*%
X144250000Y-81498400D03*
X145751600Y-83750000D03*
%TO.N,PORT_USB_D-*%
X144250000Y-82501600D03*
X144748400Y-83750000D03*
%TO.N,PB1*%
X134250000Y-113000000D03*
X137750000Y-113000000D03*
%TO.N,PB0*%
X134250000Y-114500000D03*
X137750000Y-114500000D03*
%TO.N,PA3*%
X142000000Y-111750000D03*
X142000000Y-115750000D03*
%TO.N,BOOT0*%
X124250000Y-88250000D03*
X124283955Y-82973293D03*
%TO.N,I2C_SCL*%
X125908989Y-88908989D03*
X125750000Y-84250000D03*
%TO.N,I2C_SDA*%
X115250000Y-89500000D03*
X115250000Y-85250000D03*
%TO.N,SWCLK*%
X129000000Y-91000000D03*
X135250000Y-93140000D03*
%TD*%
D19*
%TO.N,NRST*%
X113000000Y-106000000D02*
X113000000Y-109500000D01*
X113000000Y-105500000D02*
X113000000Y-106000000D01*
X117250000Y-96500000D02*
X119250000Y-96500000D01*
X113000000Y-100750000D02*
X117250000Y-96500000D01*
X113000000Y-106000000D02*
X113000000Y-100750000D01*
D20*
%TO.N,Net-(D1-Pad2)*%
X122750000Y-73000000D02*
X121500000Y-71750000D01*
X124250000Y-73000000D02*
X122750000Y-73000000D01*
D21*
%TO.N,PORT_USB_D+*%
X145482156Y-83480556D02*
X145751600Y-83750000D01*
X145482156Y-82730556D02*
X145482156Y-83480556D01*
X144600668Y-81771043D02*
X144980557Y-82150932D01*
X144522643Y-81771043D02*
X144600668Y-81771043D01*
X144980557Y-82228957D02*
X145482156Y-82730556D01*
X144250000Y-81498400D02*
X144522643Y-81771043D01*
X144980557Y-82150932D02*
X144980557Y-82228957D01*
%TO.N,PORT_USB_D-*%
X145017844Y-83480556D02*
X144748400Y-83750000D01*
X144596563Y-82501600D02*
X145017844Y-82922881D01*
X144250000Y-82501600D02*
X144596563Y-82501600D01*
X145017844Y-82922881D02*
X145017844Y-83480556D01*
D19*
%TO.N,PB1*%
X134250000Y-113000000D02*
X137750000Y-113000000D01*
%TO.N,PB0*%
X134250000Y-114500000D02*
X137750000Y-114500000D01*
%TO.N,PA3*%
X142000000Y-111750000D02*
X142000000Y-115750000D01*
%TO.N,BOOT0*%
X124250000Y-88250000D02*
X124250000Y-85500000D01*
X124250000Y-83007248D02*
X124283955Y-82973293D01*
X124250000Y-85500000D02*
X124250000Y-83007248D01*
%TO.N,I2C_SCL*%
X125908989Y-84408989D02*
X125750000Y-84250000D01*
X125908989Y-88908989D02*
X125908989Y-84408989D01*
%TO.N,I2C_SDA*%
X115250000Y-89500000D02*
X115250000Y-85250000D01*
%TO.N,SWCLK*%
X131750000Y-91000000D02*
X129000000Y-91000000D01*
X133500000Y-91000000D02*
X133000000Y-91000000D01*
X133000000Y-91000000D02*
X131750000Y-91000000D01*
X135250000Y-91250000D02*
X135250000Y-93140000D01*
X135000000Y-91000000D02*
X135250000Y-91250000D01*
X133000000Y-91000000D02*
X135000000Y-91000000D01*
%TD*%
M02*
