%TF.GenerationSoftware,KiCad,Pcbnew,(5.1.9)-1*%
%TF.CreationDate,2021-01-20T19:31:44-08:00*%
%TF.ProjectId,STM32_BOB,53544d33-325f-4424-9f42-2e6b69636164,rev?*%
%TF.SameCoordinates,Original*%
%TF.FileFunction,Copper,L2,Inr*%
%TF.FilePolarity,Positive*%
%FSLAX46Y46*%
G04 Gerber Fmt 4.6, Leading zero omitted, Abs format (unit mm)*
G04 Created by KiCad (PCBNEW (5.1.9)-1) date 2021-01-20 19:31:44*
%MOMM*%
%LPD*%
G01*
G04 APERTURE LIST*
%TA.AperFunction,ComponentPad*%
%ADD10O,1.700000X1.700000*%
%TD*%
%TA.AperFunction,ComponentPad*%
%ADD11R,1.700000X1.700000*%
%TD*%
%TA.AperFunction,ComponentPad*%
%ADD12C,0.800000*%
%TD*%
%TA.AperFunction,ComponentPad*%
%ADD13C,6.000000*%
%TD*%
%TA.AperFunction,ComponentPad*%
%ADD14R,2.400000X2.400000*%
%TD*%
%TA.AperFunction,ComponentPad*%
%ADD15C,2.400000*%
%TD*%
%TA.AperFunction,ComponentPad*%
%ADD16O,1.250000X1.050000*%
%TD*%
%TA.AperFunction,ComponentPad*%
%ADD17O,1.900000X1.000000*%
%TD*%
%TA.AperFunction,ViaPad*%
%ADD18C,0.800000*%
%TD*%
%TA.AperFunction,Conductor*%
%ADD19C,0.254000*%
%TD*%
%TA.AperFunction,Conductor*%
%ADD20C,0.100000*%
%TD*%
G04 APERTURE END LIST*
D10*
%TO.N,NRST*%
%TO.C,J3*%
X142160000Y-89590000D03*
%TO.N,GND*%
X142160000Y-87050000D03*
%TO.N,Net-(J3-Pad8)*%
X139620000Y-89590000D03*
%TO.N,Net-(J3-Pad7)*%
X139620000Y-87050000D03*
%TO.N,Net-(J3-Pad6)*%
X137080000Y-89590000D03*
%TO.N,GND*%
X137080000Y-87050000D03*
%TO.N,Net-(J3-Pad4)*%
X134540000Y-89590000D03*
%TO.N,GND*%
X134540000Y-87050000D03*
%TO.N,Net-(J3-Pad2)*%
X132000000Y-89590000D03*
D11*
%TO.N,+3V3*%
X132000000Y-87050000D03*
%TD*%
D12*
%TO.N,GND*%
%TO.C,H4*%
X150590990Y-124409010D03*
X149000000Y-123750000D03*
X147409010Y-124409010D03*
X146750000Y-126000000D03*
X147409010Y-127590990D03*
X149000000Y-128250000D03*
X150590990Y-127590990D03*
X151250000Y-126000000D03*
D13*
X149000000Y-126000000D03*
%TD*%
D12*
%TO.N,GND*%
%TO.C,H3*%
X100590990Y-124409010D03*
X99000000Y-123750000D03*
X97409010Y-124409010D03*
X96750000Y-126000000D03*
X97409010Y-127590990D03*
X99000000Y-128250000D03*
X100590990Y-127590990D03*
X101250000Y-126000000D03*
D13*
X99000000Y-126000000D03*
%TD*%
D12*
%TO.N,GND*%
%TO.C,H2*%
X150590990Y-64409010D03*
X149000000Y-63750000D03*
X147409010Y-64409010D03*
X146750000Y-66000000D03*
X147409010Y-67590990D03*
X149000000Y-68250000D03*
X150590990Y-67590990D03*
X151250000Y-66000000D03*
D13*
X149000000Y-66000000D03*
%TD*%
D12*
%TO.N,GND*%
%TO.C,H1*%
X100590990Y-64409010D03*
X99000000Y-63750000D03*
X97409010Y-64409010D03*
X96750000Y-66000000D03*
X97409010Y-67590990D03*
X99000000Y-68250000D03*
X100590990Y-67590990D03*
X101250000Y-66000000D03*
D13*
X99000000Y-66000000D03*
%TD*%
D10*
%TO.N,PA2*%
%TO.C,J8*%
X97800000Y-118200000D03*
%TO.N,PA1*%
X97800000Y-115660000D03*
%TO.N,PA0*%
X97800000Y-113120000D03*
%TO.N,PC15*%
X97800000Y-110580000D03*
%TO.N,PC14*%
X97800000Y-108040000D03*
%TO.N,PC13*%
X97800000Y-105500000D03*
%TO.N,PB8*%
X97800000Y-102960000D03*
%TO.N,PB7*%
X97800000Y-100420000D03*
%TO.N,PB5*%
X97800000Y-97880000D03*
%TO.N,PB4*%
X97800000Y-95340000D03*
%TO.N,PB3*%
X97800000Y-92800000D03*
%TO.N,PA15*%
X97800000Y-90260000D03*
%TO.N,GND*%
X97800000Y-87720000D03*
D11*
%TO.N,+3V3*%
X97800000Y-85180000D03*
%TD*%
D10*
%TO.N,PA3*%
%TO.C,J7*%
X150200000Y-118200000D03*
%TO.N,PB0*%
X150200000Y-115660000D03*
%TO.N,PB1*%
X150200000Y-113120000D03*
%TO.N,PB12*%
X150200000Y-110580000D03*
%TO.N,PB13*%
X150200000Y-108040000D03*
%TO.N,PB14*%
X150200000Y-105500000D03*
%TO.N,PB15*%
X150200000Y-102960000D03*
%TO.N,PA8*%
X150200000Y-100420000D03*
%TO.N,PA9*%
X150200000Y-97880000D03*
%TO.N,PA10*%
X150200000Y-95340000D03*
%TO.N,GND*%
X150200000Y-92800000D03*
D11*
%TO.N,+3V3*%
X150200000Y-90260000D03*
%TD*%
D14*
%TO.N,+9V*%
%TO.C,J1*%
X117900000Y-68000000D03*
D15*
%TO.N,GND*%
X114400000Y-68000000D03*
%TD*%
D16*
%TO.N,Net-(J2-Pad6)*%
%TO.C,J2*%
X148550000Y-84225000D03*
X148550000Y-79775000D03*
D17*
X151550000Y-86175000D03*
X151550000Y-77825000D03*
%TD*%
D11*
%TO.N,+3V3*%
%TO.C,J4*%
X114000000Y-120450000D03*
D10*
%TO.N,Net-(J4-Pad2)*%
X116540000Y-120450000D03*
%TO.N,Net-(J4-Pad3)*%
X119080000Y-120450000D03*
%TO.N,Net-(J4-Pad4)*%
X121620000Y-120450000D03*
%TO.N,Net-(J4-Pad5)*%
X124160000Y-120450000D03*
%TO.N,GND*%
X126700000Y-120450000D03*
%TD*%
%TO.N,GND*%
%TO.C,J5*%
X104530000Y-80500000D03*
%TO.N,Net-(J5-Pad3)*%
X104530000Y-77960000D03*
%TO.N,Net-(J5-Pad2)*%
X104530000Y-75420000D03*
D11*
%TO.N,+3V3*%
X104530000Y-72880000D03*
%TD*%
%TO.N,+3V3*%
%TO.C,J6*%
X132250000Y-120450000D03*
D10*
%TO.N,Net-(J6-Pad2)*%
X134790000Y-120450000D03*
%TO.N,Net-(J6-Pad3)*%
X137330000Y-120450000D03*
%TO.N,GND*%
X139870000Y-120450000D03*
%TD*%
D11*
%TO.N,GND*%
%TO.C,JP1*%
X117000000Y-81000000D03*
D10*
%TO.N,Net-(JP1-Pad2)*%
X117000000Y-78460000D03*
%TO.N,+3V3*%
X117000000Y-75920000D03*
%TD*%
D18*
%TO.N,GND*%
X133000000Y-93250000D03*
X129750000Y-106150000D03*
X107150000Y-115350000D03*
X114350000Y-115350000D03*
X129500000Y-102750000D03*
X141500000Y-84000000D03*
X146900000Y-85400000D03*
X142650000Y-74550000D03*
X130750000Y-68950000D03*
X135450000Y-69050000D03*
X136450000Y-75750000D03*
X136450000Y-76950000D03*
X136700000Y-69950000D03*
X134100000Y-70050000D03*
X132000000Y-69950000D03*
X129400000Y-69900000D03*
X128350000Y-70200000D03*
X135350000Y-77700000D03*
X146900000Y-83500000D03*
X122350000Y-97150000D03*
X111965000Y-96400000D03*
X115965000Y-94200000D03*
X112680000Y-98150000D03*
X115000000Y-92400000D03*
X115500000Y-81000000D03*
X146900000Y-84450000D03*
X118000000Y-98900000D03*
X116740000Y-98910000D03*
X119770000Y-91130000D03*
X122750000Y-93250000D03*
%TO.N,+3V3*%
X140750000Y-74550000D03*
X135300000Y-83400000D03*
X130700000Y-82050000D03*
X135300000Y-82050000D03*
X130700000Y-83400000D03*
X120340000Y-90140000D03*
X116500000Y-102060000D03*
X114500000Y-102060000D03*
X115775000Y-84250000D03*
X133000000Y-92000000D03*
X133550000Y-77750000D03*
X136700000Y-73000000D03*
X132450000Y-77750000D03*
X135400000Y-73950000D03*
X129500000Y-101750000D03*
X119780000Y-92190000D03*
%TO.N,NRST*%
X113000000Y-109500000D03*
X119250000Y-96500000D03*
%TO.N,Net-(D1-Pad2)*%
X124250000Y-73000000D03*
X121500000Y-71750000D03*
%TO.N,PORT_USB_D+*%
X144250000Y-81498400D03*
X145751600Y-83750000D03*
%TO.N,PORT_USB_D-*%
X144250000Y-82501600D03*
X144748400Y-83750000D03*
%TO.N,PB1*%
X134250000Y-113000000D03*
X137750000Y-113000000D03*
%TO.N,PB0*%
X134250000Y-114500000D03*
X137750000Y-114500000D03*
%TO.N,PA3*%
X142000000Y-111750000D03*
X142000000Y-115750000D03*
%TO.N,BOOT0*%
X124250000Y-88250000D03*
X124283955Y-82973293D03*
%TO.N,I2C_SCL*%
X125908989Y-88908989D03*
X125750000Y-84250000D03*
%TO.N,I2C_SDA*%
X115250000Y-89500000D03*
X115250000Y-85250000D03*
%TO.N,SWCLK*%
X129000000Y-91000000D03*
X135250000Y-93140000D03*
%TD*%
D19*
%TO.N,GND*%
X147506023Y-62666919D02*
X147058653Y-62906042D01*
X146711078Y-63360353D01*
X149000000Y-65649275D01*
X149014143Y-65635133D01*
X149364868Y-65985858D01*
X149350725Y-66000000D01*
X151639647Y-68288922D01*
X152093958Y-67941347D01*
X152340000Y-67447470D01*
X152340001Y-76742067D01*
X152222499Y-76706423D01*
X152055752Y-76690000D01*
X151044248Y-76690000D01*
X150877501Y-76706423D01*
X150663553Y-76771324D01*
X150466377Y-76876716D01*
X150293551Y-77018551D01*
X150151716Y-77191377D01*
X150046324Y-77388553D01*
X149981423Y-77602501D01*
X149959509Y-77825000D01*
X149981423Y-78047499D01*
X150046324Y-78261447D01*
X150151716Y-78458623D01*
X150293551Y-78631449D01*
X150466377Y-78773284D01*
X150626116Y-78858666D01*
X150593546Y-78891009D01*
X150587501Y-78898421D01*
X150535527Y-78963064D01*
X150501542Y-79014999D01*
X150466816Y-79066483D01*
X150462326Y-79074928D01*
X150423898Y-79148434D01*
X150400640Y-79205999D01*
X150376582Y-79263232D01*
X150373817Y-79272388D01*
X150350398Y-79351959D01*
X150338760Y-79412969D01*
X150326281Y-79473758D01*
X150325347Y-79483276D01*
X150317830Y-79565880D01*
X150318263Y-79627969D01*
X150317830Y-79690057D01*
X150318763Y-79699576D01*
X150327434Y-79782066D01*
X150339920Y-79842891D01*
X150351550Y-79903857D01*
X150354314Y-79913013D01*
X150378841Y-79992249D01*
X150402894Y-80049469D01*
X150426159Y-80107052D01*
X150430649Y-80115497D01*
X150470100Y-80188460D01*
X150504821Y-80239936D01*
X150538810Y-80291877D01*
X150544854Y-80299289D01*
X150597726Y-80363200D01*
X150641767Y-80406935D01*
X150685224Y-80451311D01*
X150692593Y-80457408D01*
X150756872Y-80509832D01*
X150808616Y-80544210D01*
X150859810Y-80579263D01*
X150868223Y-80583812D01*
X150941459Y-80622752D01*
X150998866Y-80646413D01*
X151055920Y-80670867D01*
X151065054Y-80673694D01*
X151065061Y-80673697D01*
X151065069Y-80673699D01*
X151144461Y-80697669D01*
X151205337Y-80709723D01*
X151266095Y-80722637D01*
X151275607Y-80723637D01*
X151358157Y-80731731D01*
X151358163Y-80731731D01*
X151391353Y-80735000D01*
X152315001Y-80735000D01*
X152315000Y-83265000D01*
X151391353Y-83265000D01*
X151357737Y-83268311D01*
X151352220Y-83268311D01*
X151342708Y-83269310D01*
X151307523Y-83273257D01*
X151290717Y-83274912D01*
X151289515Y-83275277D01*
X151260280Y-83278556D01*
X151199514Y-83291472D01*
X151138654Y-83303523D01*
X151129518Y-83306351D01*
X151129512Y-83306352D01*
X151129507Y-83306354D01*
X151050454Y-83331431D01*
X150993382Y-83355892D01*
X150935984Y-83379550D01*
X150927578Y-83384095D01*
X150927575Y-83384096D01*
X150927573Y-83384097D01*
X150927570Y-83384099D01*
X150854884Y-83424059D01*
X150803653Y-83459138D01*
X150751951Y-83493489D01*
X150744581Y-83499585D01*
X150681041Y-83552901D01*
X150637602Y-83597259D01*
X150593546Y-83641009D01*
X150587501Y-83648421D01*
X150535527Y-83713064D01*
X150501542Y-83764999D01*
X150466816Y-83816483D01*
X150462326Y-83824928D01*
X150423898Y-83898434D01*
X150400640Y-83955999D01*
X150376582Y-84013232D01*
X150373817Y-84022388D01*
X150350398Y-84101959D01*
X150338760Y-84162969D01*
X150326281Y-84223758D01*
X150325347Y-84233276D01*
X150317830Y-84315880D01*
X150318263Y-84377969D01*
X150317830Y-84440057D01*
X150318763Y-84449576D01*
X150327434Y-84532066D01*
X150339920Y-84592891D01*
X150351550Y-84653857D01*
X150354314Y-84663013D01*
X150378841Y-84742249D01*
X150402894Y-84799469D01*
X150426159Y-84857052D01*
X150430649Y-84865497D01*
X150470100Y-84938460D01*
X150504821Y-84989936D01*
X150538810Y-85041877D01*
X150544854Y-85049289D01*
X150597726Y-85113200D01*
X150626078Y-85141355D01*
X150466377Y-85226716D01*
X150293551Y-85368551D01*
X150151716Y-85541377D01*
X150046324Y-85738553D01*
X149981423Y-85952501D01*
X149959509Y-86175000D01*
X149981423Y-86397499D01*
X150046324Y-86611447D01*
X150151716Y-86808623D01*
X150293551Y-86981449D01*
X150466377Y-87123284D01*
X150663553Y-87228676D01*
X150877501Y-87293577D01*
X151044248Y-87310000D01*
X152055752Y-87310000D01*
X152222499Y-87293577D01*
X152340001Y-87257933D01*
X152340000Y-124526680D01*
X152333081Y-124506023D01*
X152093958Y-124058653D01*
X151639647Y-123711078D01*
X149350725Y-126000000D01*
X149364868Y-126014143D01*
X149014143Y-126364868D01*
X149000000Y-126350725D01*
X146711078Y-128639647D01*
X147058653Y-129093958D01*
X147552530Y-129340000D01*
X100473320Y-129340000D01*
X100493977Y-129333081D01*
X100941347Y-129093958D01*
X101288922Y-128639647D01*
X99000000Y-126350725D01*
X98985858Y-126364868D01*
X98635133Y-126014143D01*
X98649275Y-126000000D01*
X99350725Y-126000000D01*
X101639647Y-128288922D01*
X102093958Y-127941347D01*
X102413246Y-127300444D01*
X102601366Y-126609564D01*
X102619886Y-126343498D01*
X102624083Y-126364598D01*
X102718307Y-126592074D01*
X102855099Y-126796798D01*
X103029202Y-126970901D01*
X103233926Y-127107693D01*
X103461402Y-127201917D01*
X103702890Y-127249952D01*
X103949110Y-127249952D01*
X104190598Y-127201917D01*
X104418074Y-127107693D01*
X104622798Y-126970901D01*
X104796901Y-126796798D01*
X104933693Y-126592074D01*
X105027917Y-126364598D01*
X105075952Y-126123110D01*
X105075952Y-125876890D01*
X143000048Y-125876890D01*
X143000048Y-126123110D01*
X143048083Y-126364598D01*
X143142307Y-126592074D01*
X143279099Y-126796798D01*
X143453202Y-126970901D01*
X143657926Y-127107693D01*
X143885402Y-127201917D01*
X144126890Y-127249952D01*
X144373110Y-127249952D01*
X144614598Y-127201917D01*
X144842074Y-127107693D01*
X145046798Y-126970901D01*
X145220901Y-126796798D01*
X145357693Y-126592074D01*
X145398503Y-126493551D01*
X145439502Y-126815019D01*
X145666919Y-127493977D01*
X145906042Y-127941347D01*
X146360353Y-128288922D01*
X148649275Y-126000000D01*
X146360353Y-123711078D01*
X145906042Y-124058653D01*
X145586754Y-124699556D01*
X145398634Y-125390436D01*
X145391702Y-125490030D01*
X145357693Y-125407926D01*
X145220901Y-125203202D01*
X145046798Y-125029099D01*
X144842074Y-124892307D01*
X144614598Y-124798083D01*
X144373110Y-124750048D01*
X144126890Y-124750048D01*
X143885402Y-124798083D01*
X143657926Y-124892307D01*
X143453202Y-125029099D01*
X143279099Y-125203202D01*
X143142307Y-125407926D01*
X143048083Y-125635402D01*
X143000048Y-125876890D01*
X105075952Y-125876890D01*
X105027917Y-125635402D01*
X104933693Y-125407926D01*
X104796901Y-125203202D01*
X104622798Y-125029099D01*
X104418074Y-124892307D01*
X104190598Y-124798083D01*
X103949110Y-124750048D01*
X103702890Y-124750048D01*
X103461402Y-124798083D01*
X103233926Y-124892307D01*
X103029202Y-125029099D01*
X102855099Y-125203202D01*
X102718307Y-125407926D01*
X102624083Y-125635402D01*
X102620342Y-125654207D01*
X102560498Y-125184981D01*
X102333081Y-124506023D01*
X102093958Y-124058653D01*
X101639647Y-123711078D01*
X99350725Y-126000000D01*
X98649275Y-126000000D01*
X96360353Y-123711078D01*
X95906042Y-124058653D01*
X95660000Y-124552530D01*
X95660000Y-123360353D01*
X96711078Y-123360353D01*
X99000000Y-125649275D01*
X101288922Y-123360353D01*
X146711078Y-123360353D01*
X149000000Y-125649275D01*
X151288922Y-123360353D01*
X150941347Y-122906042D01*
X150300444Y-122586754D01*
X149609564Y-122398634D01*
X148895261Y-122348914D01*
X148184981Y-122439502D01*
X147506023Y-122666919D01*
X147058653Y-122906042D01*
X146711078Y-123360353D01*
X101288922Y-123360353D01*
X100941347Y-122906042D01*
X100300444Y-122586754D01*
X99609564Y-122398634D01*
X98895261Y-122348914D01*
X98184981Y-122439502D01*
X97506023Y-122666919D01*
X97058653Y-122906042D01*
X96711078Y-123360353D01*
X95660000Y-123360353D01*
X95660000Y-90113740D01*
X96315000Y-90113740D01*
X96315000Y-90406260D01*
X96372068Y-90693158D01*
X96484010Y-90963411D01*
X96646525Y-91206632D01*
X96853368Y-91413475D01*
X97027760Y-91530000D01*
X96853368Y-91646525D01*
X96646525Y-91853368D01*
X96484010Y-92096589D01*
X96372068Y-92366842D01*
X96315000Y-92653740D01*
X96315000Y-92946260D01*
X96372068Y-93233158D01*
X96484010Y-93503411D01*
X96646525Y-93746632D01*
X96853368Y-93953475D01*
X97027760Y-94070000D01*
X96853368Y-94186525D01*
X96646525Y-94393368D01*
X96484010Y-94636589D01*
X96372068Y-94906842D01*
X96315000Y-95193740D01*
X96315000Y-95486260D01*
X96372068Y-95773158D01*
X96484010Y-96043411D01*
X96646525Y-96286632D01*
X96853368Y-96493475D01*
X97027760Y-96610000D01*
X96853368Y-96726525D01*
X96646525Y-96933368D01*
X96484010Y-97176589D01*
X96372068Y-97446842D01*
X96315000Y-97733740D01*
X96315000Y-98026260D01*
X96372068Y-98313158D01*
X96484010Y-98583411D01*
X96646525Y-98826632D01*
X96853368Y-99033475D01*
X97027760Y-99150000D01*
X96853368Y-99266525D01*
X96646525Y-99473368D01*
X96484010Y-99716589D01*
X96372068Y-99986842D01*
X96315000Y-100273740D01*
X96315000Y-100566260D01*
X96372068Y-100853158D01*
X96484010Y-101123411D01*
X96646525Y-101366632D01*
X96853368Y-101573475D01*
X97027760Y-101690000D01*
X96853368Y-101806525D01*
X96646525Y-102013368D01*
X96484010Y-102256589D01*
X96372068Y-102526842D01*
X96315000Y-102813740D01*
X96315000Y-103106260D01*
X96372068Y-103393158D01*
X96484010Y-103663411D01*
X96646525Y-103906632D01*
X96853368Y-104113475D01*
X97027760Y-104230000D01*
X96853368Y-104346525D01*
X96646525Y-104553368D01*
X96484010Y-104796589D01*
X96372068Y-105066842D01*
X96315000Y-105353740D01*
X96315000Y-105646260D01*
X96372068Y-105933158D01*
X96484010Y-106203411D01*
X96646525Y-106446632D01*
X96853368Y-106653475D01*
X97027760Y-106770000D01*
X96853368Y-106886525D01*
X96646525Y-107093368D01*
X96484010Y-107336589D01*
X96372068Y-107606842D01*
X96315000Y-107893740D01*
X96315000Y-108186260D01*
X96372068Y-108473158D01*
X96484010Y-108743411D01*
X96646525Y-108986632D01*
X96853368Y-109193475D01*
X97027760Y-109310000D01*
X96853368Y-109426525D01*
X96646525Y-109633368D01*
X96484010Y-109876589D01*
X96372068Y-110146842D01*
X96315000Y-110433740D01*
X96315000Y-110726260D01*
X96372068Y-111013158D01*
X96484010Y-111283411D01*
X96646525Y-111526632D01*
X96853368Y-111733475D01*
X97027760Y-111850000D01*
X96853368Y-111966525D01*
X96646525Y-112173368D01*
X96484010Y-112416589D01*
X96372068Y-112686842D01*
X96315000Y-112973740D01*
X96315000Y-113266260D01*
X96372068Y-113553158D01*
X96484010Y-113823411D01*
X96646525Y-114066632D01*
X96853368Y-114273475D01*
X97027760Y-114390000D01*
X96853368Y-114506525D01*
X96646525Y-114713368D01*
X96484010Y-114956589D01*
X96372068Y-115226842D01*
X96315000Y-115513740D01*
X96315000Y-115806260D01*
X96372068Y-116093158D01*
X96484010Y-116363411D01*
X96646525Y-116606632D01*
X96853368Y-116813475D01*
X97027760Y-116930000D01*
X96853368Y-117046525D01*
X96646525Y-117253368D01*
X96484010Y-117496589D01*
X96372068Y-117766842D01*
X96315000Y-118053740D01*
X96315000Y-118346260D01*
X96372068Y-118633158D01*
X96484010Y-118903411D01*
X96646525Y-119146632D01*
X96853368Y-119353475D01*
X97096589Y-119515990D01*
X97366842Y-119627932D01*
X97653740Y-119685000D01*
X97946260Y-119685000D01*
X98233158Y-119627932D01*
X98300592Y-119600000D01*
X112511928Y-119600000D01*
X112511928Y-121300000D01*
X112524188Y-121424482D01*
X112560498Y-121544180D01*
X112619463Y-121654494D01*
X112698815Y-121751185D01*
X112795506Y-121830537D01*
X112905820Y-121889502D01*
X113025518Y-121925812D01*
X113150000Y-121938072D01*
X114850000Y-121938072D01*
X114974482Y-121925812D01*
X115094180Y-121889502D01*
X115204494Y-121830537D01*
X115301185Y-121751185D01*
X115380537Y-121654494D01*
X115439502Y-121544180D01*
X115461513Y-121471620D01*
X115593368Y-121603475D01*
X115836589Y-121765990D01*
X116106842Y-121877932D01*
X116393740Y-121935000D01*
X116686260Y-121935000D01*
X116973158Y-121877932D01*
X117243411Y-121765990D01*
X117486632Y-121603475D01*
X117693475Y-121396632D01*
X117810000Y-121222240D01*
X117926525Y-121396632D01*
X118133368Y-121603475D01*
X118376589Y-121765990D01*
X118646842Y-121877932D01*
X118933740Y-121935000D01*
X119226260Y-121935000D01*
X119513158Y-121877932D01*
X119783411Y-121765990D01*
X120026632Y-121603475D01*
X120233475Y-121396632D01*
X120350000Y-121222240D01*
X120466525Y-121396632D01*
X120673368Y-121603475D01*
X120916589Y-121765990D01*
X121186842Y-121877932D01*
X121473740Y-121935000D01*
X121766260Y-121935000D01*
X122053158Y-121877932D01*
X122323411Y-121765990D01*
X122566632Y-121603475D01*
X122773475Y-121396632D01*
X122890000Y-121222240D01*
X123006525Y-121396632D01*
X123213368Y-121603475D01*
X123456589Y-121765990D01*
X123726842Y-121877932D01*
X124013740Y-121935000D01*
X124306260Y-121935000D01*
X124593158Y-121877932D01*
X124863411Y-121765990D01*
X125106632Y-121603475D01*
X125313475Y-121396632D01*
X125432693Y-121218210D01*
X125581183Y-121426473D01*
X125793181Y-121625981D01*
X126040028Y-121780296D01*
X126226011Y-121857323D01*
X126452000Y-121752857D01*
X126452000Y-120698000D01*
X126948000Y-120698000D01*
X126948000Y-121752857D01*
X127173989Y-121857323D01*
X127359972Y-121780296D01*
X127606819Y-121625981D01*
X127818817Y-121426473D01*
X127987820Y-121189440D01*
X128107333Y-120923991D01*
X128005405Y-120698000D01*
X126948000Y-120698000D01*
X126452000Y-120698000D01*
X126432000Y-120698000D01*
X126432000Y-120202000D01*
X126452000Y-120202000D01*
X126452000Y-119147143D01*
X126948000Y-119147143D01*
X126948000Y-120202000D01*
X128005405Y-120202000D01*
X128107333Y-119976009D01*
X127987820Y-119710560D01*
X127908992Y-119600000D01*
X130761928Y-119600000D01*
X130761928Y-121300000D01*
X130774188Y-121424482D01*
X130810498Y-121544180D01*
X130869463Y-121654494D01*
X130948815Y-121751185D01*
X131045506Y-121830537D01*
X131155820Y-121889502D01*
X131275518Y-121925812D01*
X131400000Y-121938072D01*
X133100000Y-121938072D01*
X133224482Y-121925812D01*
X133344180Y-121889502D01*
X133454494Y-121830537D01*
X133551185Y-121751185D01*
X133630537Y-121654494D01*
X133689502Y-121544180D01*
X133711513Y-121471620D01*
X133843368Y-121603475D01*
X134086589Y-121765990D01*
X134356842Y-121877932D01*
X134643740Y-121935000D01*
X134936260Y-121935000D01*
X135223158Y-121877932D01*
X135493411Y-121765990D01*
X135736632Y-121603475D01*
X135943475Y-121396632D01*
X136060000Y-121222240D01*
X136176525Y-121396632D01*
X136383368Y-121603475D01*
X136626589Y-121765990D01*
X136896842Y-121877932D01*
X137183740Y-121935000D01*
X137476260Y-121935000D01*
X137763158Y-121877932D01*
X138033411Y-121765990D01*
X138276632Y-121603475D01*
X138483475Y-121396632D01*
X138602693Y-121218210D01*
X138751183Y-121426473D01*
X138963181Y-121625981D01*
X139210028Y-121780296D01*
X139396011Y-121857323D01*
X139622000Y-121752857D01*
X139622000Y-120698000D01*
X140118000Y-120698000D01*
X140118000Y-121752857D01*
X140343989Y-121857323D01*
X140529972Y-121780296D01*
X140776819Y-121625981D01*
X140988817Y-121426473D01*
X141157820Y-121189440D01*
X141277333Y-120923991D01*
X141175405Y-120698000D01*
X140118000Y-120698000D01*
X139622000Y-120698000D01*
X139602000Y-120698000D01*
X139602000Y-120202000D01*
X139622000Y-120202000D01*
X139622000Y-119147143D01*
X140118000Y-119147143D01*
X140118000Y-120202000D01*
X141175405Y-120202000D01*
X141277333Y-119976009D01*
X141157820Y-119710560D01*
X140988817Y-119473527D01*
X140776819Y-119274019D01*
X140529972Y-119119704D01*
X140343989Y-119042677D01*
X140118000Y-119147143D01*
X139622000Y-119147143D01*
X139396011Y-119042677D01*
X139210028Y-119119704D01*
X138963181Y-119274019D01*
X138751183Y-119473527D01*
X138602693Y-119681790D01*
X138483475Y-119503368D01*
X138276632Y-119296525D01*
X138033411Y-119134010D01*
X137763158Y-119022068D01*
X137476260Y-118965000D01*
X137183740Y-118965000D01*
X136896842Y-119022068D01*
X136626589Y-119134010D01*
X136383368Y-119296525D01*
X136176525Y-119503368D01*
X136060000Y-119677760D01*
X135943475Y-119503368D01*
X135736632Y-119296525D01*
X135493411Y-119134010D01*
X135223158Y-119022068D01*
X134936260Y-118965000D01*
X134643740Y-118965000D01*
X134356842Y-119022068D01*
X134086589Y-119134010D01*
X133843368Y-119296525D01*
X133711513Y-119428380D01*
X133689502Y-119355820D01*
X133630537Y-119245506D01*
X133551185Y-119148815D01*
X133454494Y-119069463D01*
X133344180Y-119010498D01*
X133224482Y-118974188D01*
X133100000Y-118961928D01*
X131400000Y-118961928D01*
X131275518Y-118974188D01*
X131155820Y-119010498D01*
X131045506Y-119069463D01*
X130948815Y-119148815D01*
X130869463Y-119245506D01*
X130810498Y-119355820D01*
X130774188Y-119475518D01*
X130761928Y-119600000D01*
X127908992Y-119600000D01*
X127818817Y-119473527D01*
X127606819Y-119274019D01*
X127359972Y-119119704D01*
X127173989Y-119042677D01*
X126948000Y-119147143D01*
X126452000Y-119147143D01*
X126226011Y-119042677D01*
X126040028Y-119119704D01*
X125793181Y-119274019D01*
X125581183Y-119473527D01*
X125432693Y-119681790D01*
X125313475Y-119503368D01*
X125106632Y-119296525D01*
X124863411Y-119134010D01*
X124593158Y-119022068D01*
X124306260Y-118965000D01*
X124013740Y-118965000D01*
X123726842Y-119022068D01*
X123456589Y-119134010D01*
X123213368Y-119296525D01*
X123006525Y-119503368D01*
X122890000Y-119677760D01*
X122773475Y-119503368D01*
X122566632Y-119296525D01*
X122323411Y-119134010D01*
X122053158Y-119022068D01*
X121766260Y-118965000D01*
X121473740Y-118965000D01*
X121186842Y-119022068D01*
X120916589Y-119134010D01*
X120673368Y-119296525D01*
X120466525Y-119503368D01*
X120350000Y-119677760D01*
X120233475Y-119503368D01*
X120026632Y-119296525D01*
X119783411Y-119134010D01*
X119513158Y-119022068D01*
X119226260Y-118965000D01*
X118933740Y-118965000D01*
X118646842Y-119022068D01*
X118376589Y-119134010D01*
X118133368Y-119296525D01*
X117926525Y-119503368D01*
X117810000Y-119677760D01*
X117693475Y-119503368D01*
X117486632Y-119296525D01*
X117243411Y-119134010D01*
X116973158Y-119022068D01*
X116686260Y-118965000D01*
X116393740Y-118965000D01*
X116106842Y-119022068D01*
X115836589Y-119134010D01*
X115593368Y-119296525D01*
X115461513Y-119428380D01*
X115439502Y-119355820D01*
X115380537Y-119245506D01*
X115301185Y-119148815D01*
X115204494Y-119069463D01*
X115094180Y-119010498D01*
X114974482Y-118974188D01*
X114850000Y-118961928D01*
X113150000Y-118961928D01*
X113025518Y-118974188D01*
X112905820Y-119010498D01*
X112795506Y-119069463D01*
X112698815Y-119148815D01*
X112619463Y-119245506D01*
X112560498Y-119355820D01*
X112524188Y-119475518D01*
X112511928Y-119600000D01*
X98300592Y-119600000D01*
X98503411Y-119515990D01*
X98746632Y-119353475D01*
X98953475Y-119146632D01*
X99115990Y-118903411D01*
X99227932Y-118633158D01*
X99285000Y-118346260D01*
X99285000Y-118053740D01*
X99227932Y-117766842D01*
X99115990Y-117496589D01*
X98953475Y-117253368D01*
X98746632Y-117046525D01*
X98572240Y-116930000D01*
X98746632Y-116813475D01*
X98953475Y-116606632D01*
X99115990Y-116363411D01*
X99227932Y-116093158D01*
X99285000Y-115806260D01*
X99285000Y-115648061D01*
X140965000Y-115648061D01*
X140965000Y-115851939D01*
X141004774Y-116051898D01*
X141082795Y-116240256D01*
X141196063Y-116409774D01*
X141340226Y-116553937D01*
X141509744Y-116667205D01*
X141698102Y-116745226D01*
X141898061Y-116785000D01*
X142101939Y-116785000D01*
X142301898Y-116745226D01*
X142490256Y-116667205D01*
X142659774Y-116553937D01*
X142803937Y-116409774D01*
X142917205Y-116240256D01*
X142995226Y-116051898D01*
X143035000Y-115851939D01*
X143035000Y-115648061D01*
X142995226Y-115448102D01*
X142917205Y-115259744D01*
X142803937Y-115090226D01*
X142659774Y-114946063D01*
X142490256Y-114832795D01*
X142301898Y-114754774D01*
X142101939Y-114715000D01*
X141898061Y-114715000D01*
X141698102Y-114754774D01*
X141509744Y-114832795D01*
X141340226Y-114946063D01*
X141196063Y-115090226D01*
X141082795Y-115259744D01*
X141004774Y-115448102D01*
X140965000Y-115648061D01*
X99285000Y-115648061D01*
X99285000Y-115513740D01*
X99227932Y-115226842D01*
X99115990Y-114956589D01*
X98953475Y-114713368D01*
X98746632Y-114506525D01*
X98572240Y-114390000D01*
X98746632Y-114273475D01*
X98953475Y-114066632D01*
X99115990Y-113823411D01*
X99227932Y-113553158D01*
X99285000Y-113266260D01*
X99285000Y-112973740D01*
X99269947Y-112898061D01*
X133215000Y-112898061D01*
X133215000Y-113101939D01*
X133254774Y-113301898D01*
X133332795Y-113490256D01*
X133446063Y-113659774D01*
X133536289Y-113750000D01*
X133446063Y-113840226D01*
X133332795Y-114009744D01*
X133254774Y-114198102D01*
X133215000Y-114398061D01*
X133215000Y-114601939D01*
X133254774Y-114801898D01*
X133332795Y-114990256D01*
X133446063Y-115159774D01*
X133590226Y-115303937D01*
X133759744Y-115417205D01*
X133948102Y-115495226D01*
X134148061Y-115535000D01*
X134351939Y-115535000D01*
X134551898Y-115495226D01*
X134740256Y-115417205D01*
X134909774Y-115303937D01*
X135053937Y-115159774D01*
X135167205Y-114990256D01*
X135245226Y-114801898D01*
X135285000Y-114601939D01*
X135285000Y-114398061D01*
X135245226Y-114198102D01*
X135167205Y-114009744D01*
X135053937Y-113840226D01*
X134963711Y-113750000D01*
X135053937Y-113659774D01*
X135167205Y-113490256D01*
X135245226Y-113301898D01*
X135285000Y-113101939D01*
X135285000Y-112898061D01*
X136715000Y-112898061D01*
X136715000Y-113101939D01*
X136754774Y-113301898D01*
X136832795Y-113490256D01*
X136946063Y-113659774D01*
X137036289Y-113750000D01*
X136946063Y-113840226D01*
X136832795Y-114009744D01*
X136754774Y-114198102D01*
X136715000Y-114398061D01*
X136715000Y-114601939D01*
X136754774Y-114801898D01*
X136832795Y-114990256D01*
X136946063Y-115159774D01*
X137090226Y-115303937D01*
X137259744Y-115417205D01*
X137448102Y-115495226D01*
X137648061Y-115535000D01*
X137851939Y-115535000D01*
X138051898Y-115495226D01*
X138240256Y-115417205D01*
X138409774Y-115303937D01*
X138553937Y-115159774D01*
X138667205Y-114990256D01*
X138745226Y-114801898D01*
X138785000Y-114601939D01*
X138785000Y-114398061D01*
X138745226Y-114198102D01*
X138667205Y-114009744D01*
X138553937Y-113840226D01*
X138463711Y-113750000D01*
X138553937Y-113659774D01*
X138667205Y-113490256D01*
X138745226Y-113301898D01*
X138785000Y-113101939D01*
X138785000Y-112898061D01*
X138745226Y-112698102D01*
X138667205Y-112509744D01*
X138553937Y-112340226D01*
X138409774Y-112196063D01*
X138240256Y-112082795D01*
X138051898Y-112004774D01*
X137851939Y-111965000D01*
X137648061Y-111965000D01*
X137448102Y-112004774D01*
X137259744Y-112082795D01*
X137090226Y-112196063D01*
X136946063Y-112340226D01*
X136832795Y-112509744D01*
X136754774Y-112698102D01*
X136715000Y-112898061D01*
X135285000Y-112898061D01*
X135245226Y-112698102D01*
X135167205Y-112509744D01*
X135053937Y-112340226D01*
X134909774Y-112196063D01*
X134740256Y-112082795D01*
X134551898Y-112004774D01*
X134351939Y-111965000D01*
X134148061Y-111965000D01*
X133948102Y-112004774D01*
X133759744Y-112082795D01*
X133590226Y-112196063D01*
X133446063Y-112340226D01*
X133332795Y-112509744D01*
X133254774Y-112698102D01*
X133215000Y-112898061D01*
X99269947Y-112898061D01*
X99227932Y-112686842D01*
X99115990Y-112416589D01*
X98953475Y-112173368D01*
X98746632Y-111966525D01*
X98572240Y-111850000D01*
X98746632Y-111733475D01*
X98832046Y-111648061D01*
X140965000Y-111648061D01*
X140965000Y-111851939D01*
X141004774Y-112051898D01*
X141082795Y-112240256D01*
X141196063Y-112409774D01*
X141340226Y-112553937D01*
X141509744Y-112667205D01*
X141698102Y-112745226D01*
X141898061Y-112785000D01*
X142101939Y-112785000D01*
X142301898Y-112745226D01*
X142490256Y-112667205D01*
X142659774Y-112553937D01*
X142803937Y-112409774D01*
X142917205Y-112240256D01*
X142995226Y-112051898D01*
X143035000Y-111851939D01*
X143035000Y-111648061D01*
X142995226Y-111448102D01*
X142917205Y-111259744D01*
X142803937Y-111090226D01*
X142659774Y-110946063D01*
X142490256Y-110832795D01*
X142301898Y-110754774D01*
X142101939Y-110715000D01*
X141898061Y-110715000D01*
X141698102Y-110754774D01*
X141509744Y-110832795D01*
X141340226Y-110946063D01*
X141196063Y-111090226D01*
X141082795Y-111259744D01*
X141004774Y-111448102D01*
X140965000Y-111648061D01*
X98832046Y-111648061D01*
X98953475Y-111526632D01*
X99115990Y-111283411D01*
X99227932Y-111013158D01*
X99285000Y-110726260D01*
X99285000Y-110433740D01*
X99227932Y-110146842D01*
X99115990Y-109876589D01*
X98953475Y-109633368D01*
X98746632Y-109426525D01*
X98704033Y-109398061D01*
X111965000Y-109398061D01*
X111965000Y-109601939D01*
X112004774Y-109801898D01*
X112082795Y-109990256D01*
X112196063Y-110159774D01*
X112340226Y-110303937D01*
X112509744Y-110417205D01*
X112698102Y-110495226D01*
X112898061Y-110535000D01*
X113101939Y-110535000D01*
X113301898Y-110495226D01*
X113490256Y-110417205D01*
X113659774Y-110303937D01*
X113803937Y-110159774D01*
X113917205Y-109990256D01*
X113995226Y-109801898D01*
X114035000Y-109601939D01*
X114035000Y-109398061D01*
X113995226Y-109198102D01*
X113917205Y-109009744D01*
X113803937Y-108840226D01*
X113659774Y-108696063D01*
X113490256Y-108582795D01*
X113301898Y-108504774D01*
X113101939Y-108465000D01*
X112898061Y-108465000D01*
X112698102Y-108504774D01*
X112509744Y-108582795D01*
X112340226Y-108696063D01*
X112196063Y-108840226D01*
X112082795Y-109009744D01*
X112004774Y-109198102D01*
X111965000Y-109398061D01*
X98704033Y-109398061D01*
X98572240Y-109310000D01*
X98746632Y-109193475D01*
X98953475Y-108986632D01*
X99115990Y-108743411D01*
X99227932Y-108473158D01*
X99285000Y-108186260D01*
X99285000Y-107893740D01*
X99227932Y-107606842D01*
X99115990Y-107336589D01*
X98953475Y-107093368D01*
X98746632Y-106886525D01*
X98572240Y-106770000D01*
X98746632Y-106653475D01*
X98953475Y-106446632D01*
X99115990Y-106203411D01*
X99227932Y-105933158D01*
X99285000Y-105646260D01*
X99285000Y-105353740D01*
X99227932Y-105066842D01*
X99115990Y-104796589D01*
X98953475Y-104553368D01*
X98746632Y-104346525D01*
X98572240Y-104230000D01*
X98746632Y-104113475D01*
X98953475Y-103906632D01*
X99115990Y-103663411D01*
X99227932Y-103393158D01*
X99285000Y-103106260D01*
X99285000Y-102813740D01*
X99227932Y-102526842D01*
X99115990Y-102256589D01*
X98953475Y-102013368D01*
X98898168Y-101958061D01*
X113465000Y-101958061D01*
X113465000Y-102161939D01*
X113504774Y-102361898D01*
X113582795Y-102550256D01*
X113696063Y-102719774D01*
X113840226Y-102863937D01*
X114009744Y-102977205D01*
X114198102Y-103055226D01*
X114398061Y-103095000D01*
X114601939Y-103095000D01*
X114801898Y-103055226D01*
X114990256Y-102977205D01*
X115159774Y-102863937D01*
X115303937Y-102719774D01*
X115417205Y-102550256D01*
X115495226Y-102361898D01*
X115500000Y-102337897D01*
X115504774Y-102361898D01*
X115582795Y-102550256D01*
X115696063Y-102719774D01*
X115840226Y-102863937D01*
X116009744Y-102977205D01*
X116198102Y-103055226D01*
X116398061Y-103095000D01*
X116601939Y-103095000D01*
X116801898Y-103055226D01*
X116990256Y-102977205D01*
X117159774Y-102863937D01*
X117303937Y-102719774D01*
X117417205Y-102550256D01*
X117495226Y-102361898D01*
X117535000Y-102161939D01*
X117535000Y-101958061D01*
X117495226Y-101758102D01*
X117449646Y-101648061D01*
X128465000Y-101648061D01*
X128465000Y-101851939D01*
X128504774Y-102051898D01*
X128582795Y-102240256D01*
X128696063Y-102409774D01*
X128840226Y-102553937D01*
X129009744Y-102667205D01*
X129198102Y-102745226D01*
X129398061Y-102785000D01*
X129601939Y-102785000D01*
X129801898Y-102745226D01*
X129990256Y-102667205D01*
X130159774Y-102553937D01*
X130303937Y-102409774D01*
X130417205Y-102240256D01*
X130495226Y-102051898D01*
X130535000Y-101851939D01*
X130535000Y-101648061D01*
X130495226Y-101448102D01*
X130417205Y-101259744D01*
X130303937Y-101090226D01*
X130159774Y-100946063D01*
X129990256Y-100832795D01*
X129801898Y-100754774D01*
X129601939Y-100715000D01*
X129398061Y-100715000D01*
X129198102Y-100754774D01*
X129009744Y-100832795D01*
X128840226Y-100946063D01*
X128696063Y-101090226D01*
X128582795Y-101259744D01*
X128504774Y-101448102D01*
X128465000Y-101648061D01*
X117449646Y-101648061D01*
X117417205Y-101569744D01*
X117303937Y-101400226D01*
X117159774Y-101256063D01*
X116990256Y-101142795D01*
X116801898Y-101064774D01*
X116601939Y-101025000D01*
X116398061Y-101025000D01*
X116198102Y-101064774D01*
X116009744Y-101142795D01*
X115840226Y-101256063D01*
X115696063Y-101400226D01*
X115582795Y-101569744D01*
X115504774Y-101758102D01*
X115500000Y-101782103D01*
X115495226Y-101758102D01*
X115417205Y-101569744D01*
X115303937Y-101400226D01*
X115159774Y-101256063D01*
X114990256Y-101142795D01*
X114801898Y-101064774D01*
X114601939Y-101025000D01*
X114398061Y-101025000D01*
X114198102Y-101064774D01*
X114009744Y-101142795D01*
X113840226Y-101256063D01*
X113696063Y-101400226D01*
X113582795Y-101569744D01*
X113504774Y-101758102D01*
X113465000Y-101958061D01*
X98898168Y-101958061D01*
X98746632Y-101806525D01*
X98572240Y-101690000D01*
X98746632Y-101573475D01*
X98953475Y-101366632D01*
X99115990Y-101123411D01*
X99227932Y-100853158D01*
X99285000Y-100566260D01*
X99285000Y-100273740D01*
X99227932Y-99986842D01*
X99115990Y-99716589D01*
X98953475Y-99473368D01*
X98746632Y-99266525D01*
X98572240Y-99150000D01*
X98746632Y-99033475D01*
X98953475Y-98826632D01*
X99115990Y-98583411D01*
X99227932Y-98313158D01*
X99285000Y-98026260D01*
X99285000Y-97733740D01*
X99227932Y-97446842D01*
X99115990Y-97176589D01*
X98953475Y-96933368D01*
X98746632Y-96726525D01*
X98572240Y-96610000D01*
X98746632Y-96493475D01*
X98842046Y-96398061D01*
X118215000Y-96398061D01*
X118215000Y-96601939D01*
X118254774Y-96801898D01*
X118332795Y-96990256D01*
X118446063Y-97159774D01*
X118590226Y-97303937D01*
X118759744Y-97417205D01*
X118948102Y-97495226D01*
X119148061Y-97535000D01*
X119351939Y-97535000D01*
X119551898Y-97495226D01*
X119740256Y-97417205D01*
X119909774Y-97303937D01*
X120053937Y-97159774D01*
X120167205Y-96990256D01*
X120245226Y-96801898D01*
X120285000Y-96601939D01*
X120285000Y-96398061D01*
X120245226Y-96198102D01*
X120167205Y-96009744D01*
X120053937Y-95840226D01*
X119909774Y-95696063D01*
X119740256Y-95582795D01*
X119551898Y-95504774D01*
X119351939Y-95465000D01*
X119148061Y-95465000D01*
X118948102Y-95504774D01*
X118759744Y-95582795D01*
X118590226Y-95696063D01*
X118446063Y-95840226D01*
X118332795Y-96009744D01*
X118254774Y-96198102D01*
X118215000Y-96398061D01*
X98842046Y-96398061D01*
X98953475Y-96286632D01*
X99115990Y-96043411D01*
X99227932Y-95773158D01*
X99285000Y-95486260D01*
X99285000Y-95193740D01*
X148715000Y-95193740D01*
X148715000Y-95486260D01*
X148772068Y-95773158D01*
X148884010Y-96043411D01*
X149046525Y-96286632D01*
X149253368Y-96493475D01*
X149427760Y-96610000D01*
X149253368Y-96726525D01*
X149046525Y-96933368D01*
X148884010Y-97176589D01*
X148772068Y-97446842D01*
X148715000Y-97733740D01*
X148715000Y-98026260D01*
X148772068Y-98313158D01*
X148884010Y-98583411D01*
X149046525Y-98826632D01*
X149253368Y-99033475D01*
X149427760Y-99150000D01*
X149253368Y-99266525D01*
X149046525Y-99473368D01*
X148884010Y-99716589D01*
X148772068Y-99986842D01*
X148715000Y-100273740D01*
X148715000Y-100566260D01*
X148772068Y-100853158D01*
X148884010Y-101123411D01*
X149046525Y-101366632D01*
X149253368Y-101573475D01*
X149427760Y-101690000D01*
X149253368Y-101806525D01*
X149046525Y-102013368D01*
X148884010Y-102256589D01*
X148772068Y-102526842D01*
X148715000Y-102813740D01*
X148715000Y-103106260D01*
X148772068Y-103393158D01*
X148884010Y-103663411D01*
X149046525Y-103906632D01*
X149253368Y-104113475D01*
X149427760Y-104230000D01*
X149253368Y-104346525D01*
X149046525Y-104553368D01*
X148884010Y-104796589D01*
X148772068Y-105066842D01*
X148715000Y-105353740D01*
X148715000Y-105646260D01*
X148772068Y-105933158D01*
X148884010Y-106203411D01*
X149046525Y-106446632D01*
X149253368Y-106653475D01*
X149427760Y-106770000D01*
X149253368Y-106886525D01*
X149046525Y-107093368D01*
X148884010Y-107336589D01*
X148772068Y-107606842D01*
X148715000Y-107893740D01*
X148715000Y-108186260D01*
X148772068Y-108473158D01*
X148884010Y-108743411D01*
X149046525Y-108986632D01*
X149253368Y-109193475D01*
X149427760Y-109310000D01*
X149253368Y-109426525D01*
X149046525Y-109633368D01*
X148884010Y-109876589D01*
X148772068Y-110146842D01*
X148715000Y-110433740D01*
X148715000Y-110726260D01*
X148772068Y-111013158D01*
X148884010Y-111283411D01*
X149046525Y-111526632D01*
X149253368Y-111733475D01*
X149427760Y-111850000D01*
X149253368Y-111966525D01*
X149046525Y-112173368D01*
X148884010Y-112416589D01*
X148772068Y-112686842D01*
X148715000Y-112973740D01*
X148715000Y-113266260D01*
X148772068Y-113553158D01*
X148884010Y-113823411D01*
X149046525Y-114066632D01*
X149253368Y-114273475D01*
X149427760Y-114390000D01*
X149253368Y-114506525D01*
X149046525Y-114713368D01*
X148884010Y-114956589D01*
X148772068Y-115226842D01*
X148715000Y-115513740D01*
X148715000Y-115806260D01*
X148772068Y-116093158D01*
X148884010Y-116363411D01*
X149046525Y-116606632D01*
X149253368Y-116813475D01*
X149427760Y-116930000D01*
X149253368Y-117046525D01*
X149046525Y-117253368D01*
X148884010Y-117496589D01*
X148772068Y-117766842D01*
X148715000Y-118053740D01*
X148715000Y-118346260D01*
X148772068Y-118633158D01*
X148884010Y-118903411D01*
X149046525Y-119146632D01*
X149253368Y-119353475D01*
X149496589Y-119515990D01*
X149766842Y-119627932D01*
X150053740Y-119685000D01*
X150346260Y-119685000D01*
X150633158Y-119627932D01*
X150903411Y-119515990D01*
X151146632Y-119353475D01*
X151353475Y-119146632D01*
X151515990Y-118903411D01*
X151627932Y-118633158D01*
X151685000Y-118346260D01*
X151685000Y-118053740D01*
X151627932Y-117766842D01*
X151515990Y-117496589D01*
X151353475Y-117253368D01*
X151146632Y-117046525D01*
X150972240Y-116930000D01*
X151146632Y-116813475D01*
X151353475Y-116606632D01*
X151515990Y-116363411D01*
X151627932Y-116093158D01*
X151685000Y-115806260D01*
X151685000Y-115513740D01*
X151627932Y-115226842D01*
X151515990Y-114956589D01*
X151353475Y-114713368D01*
X151146632Y-114506525D01*
X150972240Y-114390000D01*
X151146632Y-114273475D01*
X151353475Y-114066632D01*
X151515990Y-113823411D01*
X151627932Y-113553158D01*
X151685000Y-113266260D01*
X151685000Y-112973740D01*
X151627932Y-112686842D01*
X151515990Y-112416589D01*
X151353475Y-112173368D01*
X151146632Y-111966525D01*
X150972240Y-111850000D01*
X151146632Y-111733475D01*
X151353475Y-111526632D01*
X151515990Y-111283411D01*
X151627932Y-111013158D01*
X151685000Y-110726260D01*
X151685000Y-110433740D01*
X151627932Y-110146842D01*
X151515990Y-109876589D01*
X151353475Y-109633368D01*
X151146632Y-109426525D01*
X150972240Y-109310000D01*
X151146632Y-109193475D01*
X151353475Y-108986632D01*
X151515990Y-108743411D01*
X151627932Y-108473158D01*
X151685000Y-108186260D01*
X151685000Y-107893740D01*
X151627932Y-107606842D01*
X151515990Y-107336589D01*
X151353475Y-107093368D01*
X151146632Y-106886525D01*
X150972240Y-106770000D01*
X151146632Y-106653475D01*
X151353475Y-106446632D01*
X151515990Y-106203411D01*
X151627932Y-105933158D01*
X151685000Y-105646260D01*
X151685000Y-105353740D01*
X151627932Y-105066842D01*
X151515990Y-104796589D01*
X151353475Y-104553368D01*
X151146632Y-104346525D01*
X150972240Y-104230000D01*
X151146632Y-104113475D01*
X151353475Y-103906632D01*
X151515990Y-103663411D01*
X151627932Y-103393158D01*
X151685000Y-103106260D01*
X151685000Y-102813740D01*
X151627932Y-102526842D01*
X151515990Y-102256589D01*
X151353475Y-102013368D01*
X151146632Y-101806525D01*
X150972240Y-101690000D01*
X151146632Y-101573475D01*
X151353475Y-101366632D01*
X151515990Y-101123411D01*
X151627932Y-100853158D01*
X151685000Y-100566260D01*
X151685000Y-100273740D01*
X151627932Y-99986842D01*
X151515990Y-99716589D01*
X151353475Y-99473368D01*
X151146632Y-99266525D01*
X150972240Y-99150000D01*
X151146632Y-99033475D01*
X151353475Y-98826632D01*
X151515990Y-98583411D01*
X151627932Y-98313158D01*
X151685000Y-98026260D01*
X151685000Y-97733740D01*
X151627932Y-97446842D01*
X151515990Y-97176589D01*
X151353475Y-96933368D01*
X151146632Y-96726525D01*
X150972240Y-96610000D01*
X151146632Y-96493475D01*
X151353475Y-96286632D01*
X151515990Y-96043411D01*
X151627932Y-95773158D01*
X151685000Y-95486260D01*
X151685000Y-95193740D01*
X151627932Y-94906842D01*
X151515990Y-94636589D01*
X151353475Y-94393368D01*
X151146632Y-94186525D01*
X150968210Y-94067307D01*
X151176473Y-93918817D01*
X151375981Y-93706819D01*
X151530296Y-93459972D01*
X151607323Y-93273989D01*
X151502857Y-93048000D01*
X150448000Y-93048000D01*
X150448000Y-93068000D01*
X149952000Y-93068000D01*
X149952000Y-93048000D01*
X148897143Y-93048000D01*
X148792677Y-93273989D01*
X148869704Y-93459972D01*
X149024019Y-93706819D01*
X149223527Y-93918817D01*
X149431790Y-94067307D01*
X149253368Y-94186525D01*
X149046525Y-94393368D01*
X148884010Y-94636589D01*
X148772068Y-94906842D01*
X148715000Y-95193740D01*
X99285000Y-95193740D01*
X99227932Y-94906842D01*
X99115990Y-94636589D01*
X98953475Y-94393368D01*
X98746632Y-94186525D01*
X98572240Y-94070000D01*
X98746632Y-93953475D01*
X98953475Y-93746632D01*
X99115990Y-93503411D01*
X99227932Y-93233158D01*
X99285000Y-92946260D01*
X99285000Y-92653740D01*
X99227932Y-92366842D01*
X99115990Y-92096589D01*
X99110292Y-92088061D01*
X118745000Y-92088061D01*
X118745000Y-92291939D01*
X118784774Y-92491898D01*
X118862795Y-92680256D01*
X118976063Y-92849774D01*
X119120226Y-92993937D01*
X119289744Y-93107205D01*
X119478102Y-93185226D01*
X119678061Y-93225000D01*
X119881939Y-93225000D01*
X120081898Y-93185226D01*
X120270256Y-93107205D01*
X120373737Y-93038061D01*
X134215000Y-93038061D01*
X134215000Y-93241939D01*
X134254774Y-93441898D01*
X134332795Y-93630256D01*
X134446063Y-93799774D01*
X134590226Y-93943937D01*
X134759744Y-94057205D01*
X134948102Y-94135226D01*
X135148061Y-94175000D01*
X135351939Y-94175000D01*
X135551898Y-94135226D01*
X135740256Y-94057205D01*
X135909774Y-93943937D01*
X136053937Y-93799774D01*
X136167205Y-93630256D01*
X136245226Y-93441898D01*
X136285000Y-93241939D01*
X136285000Y-93038061D01*
X136245226Y-92838102D01*
X136167205Y-92649744D01*
X136053937Y-92480226D01*
X135909774Y-92336063D01*
X135740256Y-92222795D01*
X135551898Y-92144774D01*
X135351939Y-92105000D01*
X135148061Y-92105000D01*
X134948102Y-92144774D01*
X134759744Y-92222795D01*
X134590226Y-92336063D01*
X134446063Y-92480226D01*
X134332795Y-92649744D01*
X134254774Y-92838102D01*
X134215000Y-93038061D01*
X120373737Y-93038061D01*
X120439774Y-92993937D01*
X120583937Y-92849774D01*
X120697205Y-92680256D01*
X120775226Y-92491898D01*
X120815000Y-92291939D01*
X120815000Y-92088061D01*
X120775226Y-91888102D01*
X120697205Y-91699744D01*
X120583937Y-91530226D01*
X120439774Y-91386063D01*
X120270256Y-91272795D01*
X120081898Y-91194774D01*
X119881939Y-91155000D01*
X119678061Y-91155000D01*
X119478102Y-91194774D01*
X119289744Y-91272795D01*
X119120226Y-91386063D01*
X118976063Y-91530226D01*
X118862795Y-91699744D01*
X118784774Y-91888102D01*
X118745000Y-92088061D01*
X99110292Y-92088061D01*
X98953475Y-91853368D01*
X98746632Y-91646525D01*
X98572240Y-91530000D01*
X98746632Y-91413475D01*
X98953475Y-91206632D01*
X99115990Y-90963411D01*
X99227932Y-90693158D01*
X99285000Y-90406260D01*
X99285000Y-90113740D01*
X99227932Y-89826842D01*
X99115990Y-89556589D01*
X99010066Y-89398061D01*
X114215000Y-89398061D01*
X114215000Y-89601939D01*
X114254774Y-89801898D01*
X114332795Y-89990256D01*
X114446063Y-90159774D01*
X114590226Y-90303937D01*
X114759744Y-90417205D01*
X114948102Y-90495226D01*
X115148061Y-90535000D01*
X115351939Y-90535000D01*
X115551898Y-90495226D01*
X115740256Y-90417205D01*
X115909774Y-90303937D01*
X116053937Y-90159774D01*
X116135262Y-90038061D01*
X119305000Y-90038061D01*
X119305000Y-90241939D01*
X119344774Y-90441898D01*
X119422795Y-90630256D01*
X119536063Y-90799774D01*
X119680226Y-90943937D01*
X119849744Y-91057205D01*
X120038102Y-91135226D01*
X120238061Y-91175000D01*
X120441939Y-91175000D01*
X120641898Y-91135226D01*
X120830256Y-91057205D01*
X120999774Y-90943937D01*
X121045650Y-90898061D01*
X127965000Y-90898061D01*
X127965000Y-91101939D01*
X128004774Y-91301898D01*
X128082795Y-91490256D01*
X128196063Y-91659774D01*
X128340226Y-91803937D01*
X128509744Y-91917205D01*
X128698102Y-91995226D01*
X128898061Y-92035000D01*
X129101939Y-92035000D01*
X129301898Y-91995226D01*
X129490256Y-91917205D01*
X129518907Y-91898061D01*
X131965000Y-91898061D01*
X131965000Y-92101939D01*
X132004774Y-92301898D01*
X132082795Y-92490256D01*
X132196063Y-92659774D01*
X132340226Y-92803937D01*
X132509744Y-92917205D01*
X132698102Y-92995226D01*
X132898061Y-93035000D01*
X133101939Y-93035000D01*
X133301898Y-92995226D01*
X133490256Y-92917205D01*
X133659774Y-92803937D01*
X133803937Y-92659774D01*
X133917205Y-92490256D01*
X133995226Y-92301898D01*
X134035000Y-92101939D01*
X134035000Y-91898061D01*
X133995226Y-91698102D01*
X133917205Y-91509744D01*
X133803937Y-91340226D01*
X133659774Y-91196063D01*
X133490256Y-91082795D01*
X133301898Y-91004774D01*
X133101939Y-90965000D01*
X132898061Y-90965000D01*
X132698102Y-91004774D01*
X132509744Y-91082795D01*
X132340226Y-91196063D01*
X132196063Y-91340226D01*
X132082795Y-91509744D01*
X132004774Y-91698102D01*
X131965000Y-91898061D01*
X129518907Y-91898061D01*
X129659774Y-91803937D01*
X129803937Y-91659774D01*
X129917205Y-91490256D01*
X129995226Y-91301898D01*
X130035000Y-91101939D01*
X130035000Y-90898061D01*
X129995226Y-90698102D01*
X129917205Y-90509744D01*
X129803937Y-90340226D01*
X129659774Y-90196063D01*
X129490256Y-90082795D01*
X129301898Y-90004774D01*
X129101939Y-89965000D01*
X128898061Y-89965000D01*
X128698102Y-90004774D01*
X128509744Y-90082795D01*
X128340226Y-90196063D01*
X128196063Y-90340226D01*
X128082795Y-90509744D01*
X128004774Y-90698102D01*
X127965000Y-90898061D01*
X121045650Y-90898061D01*
X121143937Y-90799774D01*
X121257205Y-90630256D01*
X121335226Y-90441898D01*
X121375000Y-90241939D01*
X121375000Y-90038061D01*
X121335226Y-89838102D01*
X121257205Y-89649744D01*
X121143937Y-89480226D01*
X120999774Y-89336063D01*
X120830256Y-89222795D01*
X120641898Y-89144774D01*
X120441939Y-89105000D01*
X120238061Y-89105000D01*
X120038102Y-89144774D01*
X119849744Y-89222795D01*
X119680226Y-89336063D01*
X119536063Y-89480226D01*
X119422795Y-89649744D01*
X119344774Y-89838102D01*
X119305000Y-90038061D01*
X116135262Y-90038061D01*
X116167205Y-89990256D01*
X116245226Y-89801898D01*
X116285000Y-89601939D01*
X116285000Y-89398061D01*
X116245226Y-89198102D01*
X116167205Y-89009744D01*
X116053937Y-88840226D01*
X115909774Y-88696063D01*
X115740256Y-88582795D01*
X115551898Y-88504774D01*
X115351939Y-88465000D01*
X115148061Y-88465000D01*
X114948102Y-88504774D01*
X114759744Y-88582795D01*
X114590226Y-88696063D01*
X114446063Y-88840226D01*
X114332795Y-89009744D01*
X114254774Y-89198102D01*
X114215000Y-89398061D01*
X99010066Y-89398061D01*
X98953475Y-89313368D01*
X98746632Y-89106525D01*
X98568210Y-88987307D01*
X98776473Y-88838817D01*
X98975981Y-88626819D01*
X99130296Y-88379972D01*
X99207323Y-88193989D01*
X99186093Y-88148061D01*
X123215000Y-88148061D01*
X123215000Y-88351939D01*
X123254774Y-88551898D01*
X123332795Y-88740256D01*
X123446063Y-88909774D01*
X123590226Y-89053937D01*
X123759744Y-89167205D01*
X123948102Y-89245226D01*
X124148061Y-89285000D01*
X124351939Y-89285000D01*
X124551898Y-89245226D01*
X124740256Y-89167205D01*
X124885738Y-89069997D01*
X124913763Y-89210887D01*
X124991784Y-89399245D01*
X125105052Y-89568763D01*
X125249215Y-89712926D01*
X125418733Y-89826194D01*
X125607091Y-89904215D01*
X125807050Y-89943989D01*
X126010928Y-89943989D01*
X126210887Y-89904215D01*
X126399245Y-89826194D01*
X126568763Y-89712926D01*
X126712926Y-89568763D01*
X126826194Y-89399245D01*
X126904215Y-89210887D01*
X126943989Y-89010928D01*
X126943989Y-88807050D01*
X126904215Y-88607091D01*
X126826194Y-88418733D01*
X126712926Y-88249215D01*
X126568763Y-88105052D01*
X126399245Y-87991784D01*
X126210887Y-87913763D01*
X126010928Y-87873989D01*
X125807050Y-87873989D01*
X125607091Y-87913763D01*
X125418733Y-87991784D01*
X125273251Y-88088992D01*
X125245226Y-87948102D01*
X125167205Y-87759744D01*
X125053937Y-87590226D01*
X124909774Y-87446063D01*
X124740256Y-87332795D01*
X124551898Y-87254774D01*
X124351939Y-87215000D01*
X124148061Y-87215000D01*
X123948102Y-87254774D01*
X123759744Y-87332795D01*
X123590226Y-87446063D01*
X123446063Y-87590226D01*
X123332795Y-87759744D01*
X123254774Y-87948102D01*
X123215000Y-88148061D01*
X99186093Y-88148061D01*
X99102857Y-87968000D01*
X98048000Y-87968000D01*
X98048000Y-87988000D01*
X97552000Y-87988000D01*
X97552000Y-87968000D01*
X96497143Y-87968000D01*
X96392677Y-88193989D01*
X96469704Y-88379972D01*
X96624019Y-88626819D01*
X96823527Y-88838817D01*
X97031790Y-88987307D01*
X96853368Y-89106525D01*
X96646525Y-89313368D01*
X96484010Y-89556589D01*
X96372068Y-89826842D01*
X96315000Y-90113740D01*
X95660000Y-90113740D01*
X95660000Y-84330000D01*
X96311928Y-84330000D01*
X96311928Y-86030000D01*
X96324188Y-86154482D01*
X96360498Y-86274180D01*
X96419463Y-86384494D01*
X96498815Y-86481185D01*
X96595506Y-86560537D01*
X96705820Y-86619502D01*
X96783976Y-86643210D01*
X96624019Y-86813181D01*
X96469704Y-87060028D01*
X96392677Y-87246011D01*
X96497143Y-87472000D01*
X97552000Y-87472000D01*
X97552000Y-87452000D01*
X98048000Y-87452000D01*
X98048000Y-87472000D01*
X99102857Y-87472000D01*
X99207323Y-87246011D01*
X99130296Y-87060028D01*
X98975981Y-86813181D01*
X98816024Y-86643210D01*
X98894180Y-86619502D01*
X99004494Y-86560537D01*
X99101185Y-86481185D01*
X99180537Y-86384494D01*
X99239502Y-86274180D01*
X99275812Y-86154482D01*
X99288072Y-86030000D01*
X99288072Y-85148061D01*
X114215000Y-85148061D01*
X114215000Y-85351939D01*
X114254774Y-85551898D01*
X114332795Y-85740256D01*
X114446063Y-85909774D01*
X114590226Y-86053937D01*
X114759744Y-86167205D01*
X114948102Y-86245226D01*
X115148061Y-86285000D01*
X115351939Y-86285000D01*
X115551898Y-86245226D01*
X115661082Y-86200000D01*
X130511928Y-86200000D01*
X130511928Y-87900000D01*
X130524188Y-88024482D01*
X130560498Y-88144180D01*
X130619463Y-88254494D01*
X130698815Y-88351185D01*
X130795506Y-88430537D01*
X130905820Y-88489502D01*
X130978380Y-88511513D01*
X130846525Y-88643368D01*
X130684010Y-88886589D01*
X130572068Y-89156842D01*
X130515000Y-89443740D01*
X130515000Y-89736260D01*
X130572068Y-90023158D01*
X130684010Y-90293411D01*
X130846525Y-90536632D01*
X131053368Y-90743475D01*
X131296589Y-90905990D01*
X131566842Y-91017932D01*
X131853740Y-91075000D01*
X132146260Y-91075000D01*
X132433158Y-91017932D01*
X132703411Y-90905990D01*
X132946632Y-90743475D01*
X133153475Y-90536632D01*
X133270000Y-90362240D01*
X133386525Y-90536632D01*
X133593368Y-90743475D01*
X133836589Y-90905990D01*
X134106842Y-91017932D01*
X134393740Y-91075000D01*
X134686260Y-91075000D01*
X134973158Y-91017932D01*
X135243411Y-90905990D01*
X135486632Y-90743475D01*
X135693475Y-90536632D01*
X135810000Y-90362240D01*
X135926525Y-90536632D01*
X136133368Y-90743475D01*
X136376589Y-90905990D01*
X136646842Y-91017932D01*
X136933740Y-91075000D01*
X137226260Y-91075000D01*
X137513158Y-91017932D01*
X137783411Y-90905990D01*
X138026632Y-90743475D01*
X138233475Y-90536632D01*
X138350000Y-90362240D01*
X138466525Y-90536632D01*
X138673368Y-90743475D01*
X138916589Y-90905990D01*
X139186842Y-91017932D01*
X139473740Y-91075000D01*
X139766260Y-91075000D01*
X140053158Y-91017932D01*
X140323411Y-90905990D01*
X140566632Y-90743475D01*
X140773475Y-90536632D01*
X140890000Y-90362240D01*
X141006525Y-90536632D01*
X141213368Y-90743475D01*
X141456589Y-90905990D01*
X141726842Y-91017932D01*
X142013740Y-91075000D01*
X142306260Y-91075000D01*
X142593158Y-91017932D01*
X142863411Y-90905990D01*
X143106632Y-90743475D01*
X143313475Y-90536632D01*
X143475990Y-90293411D01*
X143587932Y-90023158D01*
X143645000Y-89736260D01*
X143645000Y-89443740D01*
X143638289Y-89410000D01*
X148711928Y-89410000D01*
X148711928Y-91110000D01*
X148724188Y-91234482D01*
X148760498Y-91354180D01*
X148819463Y-91464494D01*
X148898815Y-91561185D01*
X148995506Y-91640537D01*
X149105820Y-91699502D01*
X149183976Y-91723210D01*
X149024019Y-91893181D01*
X148869704Y-92140028D01*
X148792677Y-92326011D01*
X148897143Y-92552000D01*
X149952000Y-92552000D01*
X149952000Y-92532000D01*
X150448000Y-92532000D01*
X150448000Y-92552000D01*
X151502857Y-92552000D01*
X151607323Y-92326011D01*
X151530296Y-92140028D01*
X151375981Y-91893181D01*
X151216024Y-91723210D01*
X151294180Y-91699502D01*
X151404494Y-91640537D01*
X151501185Y-91561185D01*
X151580537Y-91464494D01*
X151639502Y-91354180D01*
X151675812Y-91234482D01*
X151688072Y-91110000D01*
X151688072Y-89410000D01*
X151675812Y-89285518D01*
X151639502Y-89165820D01*
X151580537Y-89055506D01*
X151501185Y-88958815D01*
X151404494Y-88879463D01*
X151294180Y-88820498D01*
X151174482Y-88784188D01*
X151050000Y-88771928D01*
X149350000Y-88771928D01*
X149225518Y-88784188D01*
X149105820Y-88820498D01*
X148995506Y-88879463D01*
X148898815Y-88958815D01*
X148819463Y-89055506D01*
X148760498Y-89165820D01*
X148724188Y-89285518D01*
X148711928Y-89410000D01*
X143638289Y-89410000D01*
X143587932Y-89156842D01*
X143475990Y-88886589D01*
X143313475Y-88643368D01*
X143106632Y-88436525D01*
X142924595Y-88314892D01*
X143066819Y-88225981D01*
X143278817Y-88026473D01*
X143447820Y-87789440D01*
X143567333Y-87523991D01*
X143465405Y-87298000D01*
X142408000Y-87298000D01*
X142408000Y-87318000D01*
X141912000Y-87318000D01*
X141912000Y-87298000D01*
X141892000Y-87298000D01*
X141892000Y-86802000D01*
X141912000Y-86802000D01*
X141912000Y-85747143D01*
X142408000Y-85747143D01*
X142408000Y-86802000D01*
X143465405Y-86802000D01*
X143567333Y-86576009D01*
X143447820Y-86310560D01*
X143278817Y-86073527D01*
X143066819Y-85874019D01*
X142819972Y-85719704D01*
X142633989Y-85642677D01*
X142408000Y-85747143D01*
X141912000Y-85747143D01*
X141686011Y-85642677D01*
X141500028Y-85719704D01*
X141253181Y-85874019D01*
X141041183Y-86073527D01*
X140892693Y-86281790D01*
X140773475Y-86103368D01*
X140566632Y-85896525D01*
X140323411Y-85734010D01*
X140053158Y-85622068D01*
X139766260Y-85565000D01*
X139473740Y-85565000D01*
X139186842Y-85622068D01*
X138916589Y-85734010D01*
X138673368Y-85896525D01*
X138466525Y-86103368D01*
X138347307Y-86281790D01*
X138198817Y-86073527D01*
X137986819Y-85874019D01*
X137739972Y-85719704D01*
X137553989Y-85642677D01*
X137328000Y-85747143D01*
X137328000Y-86802000D01*
X137348000Y-86802000D01*
X137348000Y-87298000D01*
X137328000Y-87298000D01*
X137328000Y-87318000D01*
X136832000Y-87318000D01*
X136832000Y-87298000D01*
X134788000Y-87298000D01*
X134788000Y-87318000D01*
X134292000Y-87318000D01*
X134292000Y-87298000D01*
X134272000Y-87298000D01*
X134272000Y-86802000D01*
X134292000Y-86802000D01*
X134292000Y-85747143D01*
X134788000Y-85747143D01*
X134788000Y-86802000D01*
X136832000Y-86802000D01*
X136832000Y-85747143D01*
X136606011Y-85642677D01*
X136420028Y-85719704D01*
X136173181Y-85874019D01*
X135961183Y-86073527D01*
X135810000Y-86285567D01*
X135658817Y-86073527D01*
X135446819Y-85874019D01*
X135199972Y-85719704D01*
X135013989Y-85642677D01*
X134788000Y-85747143D01*
X134292000Y-85747143D01*
X134066011Y-85642677D01*
X133880028Y-85719704D01*
X133633181Y-85874019D01*
X133463210Y-86033976D01*
X133439502Y-85955820D01*
X133380537Y-85845506D01*
X133301185Y-85748815D01*
X133204494Y-85669463D01*
X133094180Y-85610498D01*
X132974482Y-85574188D01*
X132850000Y-85561928D01*
X131150000Y-85561928D01*
X131025518Y-85574188D01*
X130905820Y-85610498D01*
X130795506Y-85669463D01*
X130698815Y-85748815D01*
X130619463Y-85845506D01*
X130560498Y-85955820D01*
X130524188Y-86075518D01*
X130511928Y-86200000D01*
X115661082Y-86200000D01*
X115740256Y-86167205D01*
X115909774Y-86053937D01*
X116053937Y-85909774D01*
X116167205Y-85740256D01*
X116245226Y-85551898D01*
X116285000Y-85351939D01*
X116285000Y-85154013D01*
X116434774Y-85053937D01*
X116578937Y-84909774D01*
X116692205Y-84740256D01*
X116770226Y-84551898D01*
X116810000Y-84351939D01*
X116810000Y-84148061D01*
X116770226Y-83948102D01*
X116692205Y-83759744D01*
X116578937Y-83590226D01*
X116434774Y-83446063D01*
X116265256Y-83332795D01*
X116076898Y-83254774D01*
X115876939Y-83215000D01*
X115673061Y-83215000D01*
X115473102Y-83254774D01*
X115284744Y-83332795D01*
X115115226Y-83446063D01*
X114971063Y-83590226D01*
X114857795Y-83759744D01*
X114779774Y-83948102D01*
X114740000Y-84148061D01*
X114740000Y-84345987D01*
X114590226Y-84446063D01*
X114446063Y-84590226D01*
X114332795Y-84759744D01*
X114254774Y-84948102D01*
X114215000Y-85148061D01*
X99288072Y-85148061D01*
X99288072Y-84330000D01*
X99275812Y-84205518D01*
X99239502Y-84085820D01*
X99180537Y-83975506D01*
X99101185Y-83878815D01*
X99004494Y-83799463D01*
X98894180Y-83740498D01*
X98774482Y-83704188D01*
X98650000Y-83691928D01*
X96950000Y-83691928D01*
X96825518Y-83704188D01*
X96705820Y-83740498D01*
X96595506Y-83799463D01*
X96498815Y-83878815D01*
X96419463Y-83975506D01*
X96360498Y-84085820D01*
X96324188Y-84205518D01*
X96311928Y-84330000D01*
X95660000Y-84330000D01*
X95660000Y-82871354D01*
X123248955Y-82871354D01*
X123248955Y-83075232D01*
X123288729Y-83275191D01*
X123366750Y-83463549D01*
X123480018Y-83633067D01*
X123624181Y-83777230D01*
X123793699Y-83890498D01*
X123982057Y-83968519D01*
X124182016Y-84008293D01*
X124385894Y-84008293D01*
X124585853Y-83968519D01*
X124774211Y-83890498D01*
X124780327Y-83886411D01*
X124754774Y-83948102D01*
X124715000Y-84148061D01*
X124715000Y-84351939D01*
X124754774Y-84551898D01*
X124832795Y-84740256D01*
X124946063Y-84909774D01*
X125090226Y-85053937D01*
X125259744Y-85167205D01*
X125448102Y-85245226D01*
X125648061Y-85285000D01*
X125851939Y-85285000D01*
X126051898Y-85245226D01*
X126240256Y-85167205D01*
X126409774Y-85053937D01*
X126553937Y-84909774D01*
X126667205Y-84740256D01*
X126745226Y-84551898D01*
X126785000Y-84351939D01*
X126785000Y-84148061D01*
X126745226Y-83948102D01*
X126667205Y-83759744D01*
X126553937Y-83590226D01*
X126409774Y-83446063D01*
X126240256Y-83332795D01*
X126051898Y-83254774D01*
X125851939Y-83215000D01*
X125648061Y-83215000D01*
X125448102Y-83254774D01*
X125259744Y-83332795D01*
X125253628Y-83336882D01*
X125279181Y-83275191D01*
X125318955Y-83075232D01*
X125318955Y-82871354D01*
X125279181Y-82671395D01*
X125201160Y-82483037D01*
X125087892Y-82313519D01*
X124943729Y-82169356D01*
X124774211Y-82056088D01*
X124585853Y-81978067D01*
X124435002Y-81948061D01*
X129665000Y-81948061D01*
X129665000Y-82151939D01*
X129704774Y-82351898D01*
X129782795Y-82540256D01*
X129896063Y-82709774D01*
X129911289Y-82725000D01*
X129896063Y-82740226D01*
X129782795Y-82909744D01*
X129704774Y-83098102D01*
X129665000Y-83298061D01*
X129665000Y-83501939D01*
X129704774Y-83701898D01*
X129782795Y-83890256D01*
X129896063Y-84059774D01*
X130040226Y-84203937D01*
X130209744Y-84317205D01*
X130398102Y-84395226D01*
X130598061Y-84435000D01*
X130801939Y-84435000D01*
X131001898Y-84395226D01*
X131190256Y-84317205D01*
X131359774Y-84203937D01*
X131503937Y-84059774D01*
X131617205Y-83890256D01*
X131695226Y-83701898D01*
X131735000Y-83501939D01*
X131735000Y-83298061D01*
X131695226Y-83098102D01*
X131617205Y-82909744D01*
X131503937Y-82740226D01*
X131488711Y-82725000D01*
X131503937Y-82709774D01*
X131617205Y-82540256D01*
X131695226Y-82351898D01*
X131735000Y-82151939D01*
X131735000Y-81948061D01*
X134265000Y-81948061D01*
X134265000Y-82151939D01*
X134304774Y-82351898D01*
X134382795Y-82540256D01*
X134496063Y-82709774D01*
X134511289Y-82725000D01*
X134496063Y-82740226D01*
X134382795Y-82909744D01*
X134304774Y-83098102D01*
X134265000Y-83298061D01*
X134265000Y-83501939D01*
X134304774Y-83701898D01*
X134382795Y-83890256D01*
X134496063Y-84059774D01*
X134640226Y-84203937D01*
X134809744Y-84317205D01*
X134998102Y-84395226D01*
X135198061Y-84435000D01*
X135401939Y-84435000D01*
X135601898Y-84395226D01*
X135790256Y-84317205D01*
X135959774Y-84203937D01*
X136103937Y-84059774D01*
X136217205Y-83890256D01*
X136295226Y-83701898D01*
X136335000Y-83501939D01*
X136335000Y-83298061D01*
X136295226Y-83098102D01*
X136217205Y-82909744D01*
X136103937Y-82740226D01*
X136088711Y-82725000D01*
X136103937Y-82709774D01*
X136217205Y-82540256D01*
X136295226Y-82351898D01*
X136335000Y-82151939D01*
X136335000Y-81948061D01*
X136295226Y-81748102D01*
X136217205Y-81559744D01*
X136108104Y-81396461D01*
X143215000Y-81396461D01*
X143215000Y-81600339D01*
X143254774Y-81800298D01*
X143332795Y-81988656D01*
X143340375Y-82000000D01*
X143332795Y-82011344D01*
X143254774Y-82199702D01*
X143215000Y-82399661D01*
X143215000Y-82603539D01*
X143254774Y-82803498D01*
X143332795Y-82991856D01*
X143446063Y-83161374D01*
X143590226Y-83305537D01*
X143759744Y-83418805D01*
X143764494Y-83420773D01*
X143753174Y-83448102D01*
X143713400Y-83648061D01*
X143713400Y-83851939D01*
X143753174Y-84051898D01*
X143831195Y-84240256D01*
X143944463Y-84409774D01*
X144088626Y-84553937D01*
X144258144Y-84667205D01*
X144446502Y-84745226D01*
X144646461Y-84785000D01*
X144850339Y-84785000D01*
X145050298Y-84745226D01*
X145238656Y-84667205D01*
X145250000Y-84659625D01*
X145261344Y-84667205D01*
X145449702Y-84745226D01*
X145649661Y-84785000D01*
X145853539Y-84785000D01*
X146053498Y-84745226D01*
X146241856Y-84667205D01*
X146411374Y-84553937D01*
X146555537Y-84409774D01*
X146668805Y-84240256D01*
X146675124Y-84225000D01*
X147284388Y-84225000D01*
X147306785Y-84452400D01*
X147373115Y-84671060D01*
X147480829Y-84872579D01*
X147625788Y-85049212D01*
X147802421Y-85194171D01*
X148003940Y-85301885D01*
X148222600Y-85368215D01*
X148393021Y-85385000D01*
X148706979Y-85385000D01*
X148877400Y-85368215D01*
X149096060Y-85301885D01*
X149297579Y-85194171D01*
X149474212Y-85049212D01*
X149619171Y-84872579D01*
X149726885Y-84671060D01*
X149793215Y-84452400D01*
X149815612Y-84225000D01*
X149793215Y-83997600D01*
X149726885Y-83778940D01*
X149619171Y-83577421D01*
X149474212Y-83400788D01*
X149297579Y-83255829D01*
X149096060Y-83148115D01*
X148877400Y-83081785D01*
X148706979Y-83065000D01*
X148393021Y-83065000D01*
X148222600Y-83081785D01*
X148003940Y-83148115D01*
X147802421Y-83255829D01*
X147625788Y-83400788D01*
X147480829Y-83577421D01*
X147373115Y-83778940D01*
X147306785Y-83997600D01*
X147284388Y-84225000D01*
X146675124Y-84225000D01*
X146746826Y-84051898D01*
X146786600Y-83851939D01*
X146786600Y-83648061D01*
X146746826Y-83448102D01*
X146668805Y-83259744D01*
X146555537Y-83090226D01*
X146411374Y-82946063D01*
X146241856Y-82832795D01*
X146053498Y-82754774D01*
X145853539Y-82715000D01*
X145649661Y-82715000D01*
X145449702Y-82754774D01*
X145261344Y-82832795D01*
X145250000Y-82840375D01*
X145238656Y-82832795D01*
X145233906Y-82830827D01*
X145245226Y-82803498D01*
X145285000Y-82603539D01*
X145285000Y-82399661D01*
X145245226Y-82199702D01*
X145167205Y-82011344D01*
X145159625Y-82000000D01*
X145167205Y-81988656D01*
X145245226Y-81800298D01*
X145285000Y-81600339D01*
X145285000Y-81396461D01*
X145245226Y-81196502D01*
X145167205Y-81008144D01*
X145053937Y-80838626D01*
X144909774Y-80694463D01*
X144740256Y-80581195D01*
X144551898Y-80503174D01*
X144351939Y-80463400D01*
X144148061Y-80463400D01*
X143948102Y-80503174D01*
X143759744Y-80581195D01*
X143590226Y-80694463D01*
X143446063Y-80838626D01*
X143332795Y-81008144D01*
X143254774Y-81196502D01*
X143215000Y-81396461D01*
X136108104Y-81396461D01*
X136103937Y-81390226D01*
X135959774Y-81246063D01*
X135790256Y-81132795D01*
X135601898Y-81054774D01*
X135401939Y-81015000D01*
X135198061Y-81015000D01*
X134998102Y-81054774D01*
X134809744Y-81132795D01*
X134640226Y-81246063D01*
X134496063Y-81390226D01*
X134382795Y-81559744D01*
X134304774Y-81748102D01*
X134265000Y-81948061D01*
X131735000Y-81948061D01*
X131695226Y-81748102D01*
X131617205Y-81559744D01*
X131503937Y-81390226D01*
X131359774Y-81246063D01*
X131190256Y-81132795D01*
X131001898Y-81054774D01*
X130801939Y-81015000D01*
X130598061Y-81015000D01*
X130398102Y-81054774D01*
X130209744Y-81132795D01*
X130040226Y-81246063D01*
X129896063Y-81390226D01*
X129782795Y-81559744D01*
X129704774Y-81748102D01*
X129665000Y-81948061D01*
X124435002Y-81948061D01*
X124385894Y-81938293D01*
X124182016Y-81938293D01*
X123982057Y-81978067D01*
X123793699Y-82056088D01*
X123624181Y-82169356D01*
X123480018Y-82313519D01*
X123366750Y-82483037D01*
X123288729Y-82671395D01*
X123248955Y-82871354D01*
X95660000Y-82871354D01*
X95660000Y-80973989D01*
X103122677Y-80973989D01*
X103199704Y-81159972D01*
X103354019Y-81406819D01*
X103553527Y-81618817D01*
X103790560Y-81787820D01*
X104056009Y-81907333D01*
X104282000Y-81805405D01*
X104282000Y-80748000D01*
X104778000Y-80748000D01*
X104778000Y-81805405D01*
X105003991Y-81907333D01*
X105131332Y-81850000D01*
X115511928Y-81850000D01*
X115524188Y-81974482D01*
X115560498Y-82094180D01*
X115619463Y-82204494D01*
X115698815Y-82301185D01*
X115795506Y-82380537D01*
X115905820Y-82439502D01*
X116025518Y-82475812D01*
X116150000Y-82488072D01*
X116593250Y-82485000D01*
X116752000Y-82326250D01*
X116752000Y-81248000D01*
X117248000Y-81248000D01*
X117248000Y-82326250D01*
X117406750Y-82485000D01*
X117850000Y-82488072D01*
X117974482Y-82475812D01*
X118094180Y-82439502D01*
X118204494Y-82380537D01*
X118301185Y-82301185D01*
X118380537Y-82204494D01*
X118439502Y-82094180D01*
X118475812Y-81974482D01*
X118488072Y-81850000D01*
X118485000Y-81406750D01*
X118326250Y-81248000D01*
X117248000Y-81248000D01*
X116752000Y-81248000D01*
X115673750Y-81248000D01*
X115515000Y-81406750D01*
X115511928Y-81850000D01*
X105131332Y-81850000D01*
X105269440Y-81787820D01*
X105506473Y-81618817D01*
X105705981Y-81406819D01*
X105860296Y-81159972D01*
X105937323Y-80973989D01*
X105832857Y-80748000D01*
X104778000Y-80748000D01*
X104282000Y-80748000D01*
X103227143Y-80748000D01*
X103122677Y-80973989D01*
X95660000Y-80973989D01*
X95660000Y-72030000D01*
X103041928Y-72030000D01*
X103041928Y-73730000D01*
X103054188Y-73854482D01*
X103090498Y-73974180D01*
X103149463Y-74084494D01*
X103228815Y-74181185D01*
X103325506Y-74260537D01*
X103435820Y-74319502D01*
X103508380Y-74341513D01*
X103376525Y-74473368D01*
X103214010Y-74716589D01*
X103102068Y-74986842D01*
X103045000Y-75273740D01*
X103045000Y-75566260D01*
X103102068Y-75853158D01*
X103214010Y-76123411D01*
X103376525Y-76366632D01*
X103583368Y-76573475D01*
X103757760Y-76690000D01*
X103583368Y-76806525D01*
X103376525Y-77013368D01*
X103214010Y-77256589D01*
X103102068Y-77526842D01*
X103045000Y-77813740D01*
X103045000Y-78106260D01*
X103102068Y-78393158D01*
X103214010Y-78663411D01*
X103376525Y-78906632D01*
X103583368Y-79113475D01*
X103761790Y-79232693D01*
X103553527Y-79381183D01*
X103354019Y-79593181D01*
X103199704Y-79840028D01*
X103122677Y-80026011D01*
X103227143Y-80252000D01*
X104282000Y-80252000D01*
X104282000Y-80232000D01*
X104778000Y-80232000D01*
X104778000Y-80252000D01*
X105832857Y-80252000D01*
X105880007Y-80150000D01*
X115511928Y-80150000D01*
X115515000Y-80593250D01*
X115673750Y-80752000D01*
X116752000Y-80752000D01*
X116752000Y-80732000D01*
X117248000Y-80732000D01*
X117248000Y-80752000D01*
X118326250Y-80752000D01*
X118485000Y-80593250D01*
X118488072Y-80150000D01*
X118475812Y-80025518D01*
X118439502Y-79905820D01*
X118380537Y-79795506D01*
X118363709Y-79775000D01*
X147284388Y-79775000D01*
X147306785Y-80002400D01*
X147373115Y-80221060D01*
X147480829Y-80422579D01*
X147625788Y-80599212D01*
X147802421Y-80744171D01*
X148003940Y-80851885D01*
X148222600Y-80918215D01*
X148393021Y-80935000D01*
X148706979Y-80935000D01*
X148877400Y-80918215D01*
X149096060Y-80851885D01*
X149297579Y-80744171D01*
X149474212Y-80599212D01*
X149619171Y-80422579D01*
X149726885Y-80221060D01*
X149793215Y-80002400D01*
X149815612Y-79775000D01*
X149793215Y-79547600D01*
X149726885Y-79328940D01*
X149619171Y-79127421D01*
X149474212Y-78950788D01*
X149297579Y-78805829D01*
X149096060Y-78698115D01*
X148877400Y-78631785D01*
X148706979Y-78615000D01*
X148393021Y-78615000D01*
X148222600Y-78631785D01*
X148003940Y-78698115D01*
X147802421Y-78805829D01*
X147625788Y-78950788D01*
X147480829Y-79127421D01*
X147373115Y-79328940D01*
X147306785Y-79547600D01*
X147284388Y-79775000D01*
X118363709Y-79775000D01*
X118301185Y-79698815D01*
X118204494Y-79619463D01*
X118094180Y-79560498D01*
X118021620Y-79538487D01*
X118153475Y-79406632D01*
X118315990Y-79163411D01*
X118427932Y-78893158D01*
X118485000Y-78606260D01*
X118485000Y-78313740D01*
X118427932Y-78026842D01*
X118315990Y-77756589D01*
X118243474Y-77648061D01*
X131415000Y-77648061D01*
X131415000Y-77851939D01*
X131454774Y-78051898D01*
X131532795Y-78240256D01*
X131646063Y-78409774D01*
X131790226Y-78553937D01*
X131959744Y-78667205D01*
X132148102Y-78745226D01*
X132348061Y-78785000D01*
X132551939Y-78785000D01*
X132751898Y-78745226D01*
X132940256Y-78667205D01*
X133000000Y-78627285D01*
X133059744Y-78667205D01*
X133248102Y-78745226D01*
X133448061Y-78785000D01*
X133651939Y-78785000D01*
X133851898Y-78745226D01*
X134040256Y-78667205D01*
X134209774Y-78553937D01*
X134353937Y-78409774D01*
X134467205Y-78240256D01*
X134545226Y-78051898D01*
X134585000Y-77851939D01*
X134585000Y-77648061D01*
X134545226Y-77448102D01*
X134467205Y-77259744D01*
X134353937Y-77090226D01*
X134209774Y-76946063D01*
X134040256Y-76832795D01*
X133851898Y-76754774D01*
X133651939Y-76715000D01*
X133448061Y-76715000D01*
X133248102Y-76754774D01*
X133059744Y-76832795D01*
X133000000Y-76872715D01*
X132940256Y-76832795D01*
X132751898Y-76754774D01*
X132551939Y-76715000D01*
X132348061Y-76715000D01*
X132148102Y-76754774D01*
X131959744Y-76832795D01*
X131790226Y-76946063D01*
X131646063Y-77090226D01*
X131532795Y-77259744D01*
X131454774Y-77448102D01*
X131415000Y-77648061D01*
X118243474Y-77648061D01*
X118153475Y-77513368D01*
X117946632Y-77306525D01*
X117772240Y-77190000D01*
X117946632Y-77073475D01*
X118153475Y-76866632D01*
X118315990Y-76623411D01*
X118427932Y-76353158D01*
X118485000Y-76066260D01*
X118485000Y-75773740D01*
X118427932Y-75486842D01*
X118315990Y-75216589D01*
X118153475Y-74973368D01*
X117946632Y-74766525D01*
X117703411Y-74604010D01*
X117433158Y-74492068D01*
X117146260Y-74435000D01*
X116853740Y-74435000D01*
X116566842Y-74492068D01*
X116296589Y-74604010D01*
X116053368Y-74766525D01*
X115846525Y-74973368D01*
X115684010Y-75216589D01*
X115572068Y-75486842D01*
X115515000Y-75773740D01*
X115515000Y-76066260D01*
X115572068Y-76353158D01*
X115684010Y-76623411D01*
X115846525Y-76866632D01*
X116053368Y-77073475D01*
X116227760Y-77190000D01*
X116053368Y-77306525D01*
X115846525Y-77513368D01*
X115684010Y-77756589D01*
X115572068Y-78026842D01*
X115515000Y-78313740D01*
X115515000Y-78606260D01*
X115572068Y-78893158D01*
X115684010Y-79163411D01*
X115846525Y-79406632D01*
X115978380Y-79538487D01*
X115905820Y-79560498D01*
X115795506Y-79619463D01*
X115698815Y-79698815D01*
X115619463Y-79795506D01*
X115560498Y-79905820D01*
X115524188Y-80025518D01*
X115511928Y-80150000D01*
X105880007Y-80150000D01*
X105937323Y-80026011D01*
X105860296Y-79840028D01*
X105705981Y-79593181D01*
X105506473Y-79381183D01*
X105298210Y-79232693D01*
X105476632Y-79113475D01*
X105683475Y-78906632D01*
X105845990Y-78663411D01*
X105957932Y-78393158D01*
X106015000Y-78106260D01*
X106015000Y-77813740D01*
X105957932Y-77526842D01*
X105845990Y-77256589D01*
X105683475Y-77013368D01*
X105476632Y-76806525D01*
X105302240Y-76690000D01*
X105476632Y-76573475D01*
X105683475Y-76366632D01*
X105845990Y-76123411D01*
X105957932Y-75853158D01*
X106015000Y-75566260D01*
X106015000Y-75273740D01*
X105957932Y-74986842D01*
X105845990Y-74716589D01*
X105683475Y-74473368D01*
X105551620Y-74341513D01*
X105624180Y-74319502D01*
X105734494Y-74260537D01*
X105831185Y-74181185D01*
X105910537Y-74084494D01*
X105969502Y-73974180D01*
X106005812Y-73854482D01*
X106018072Y-73730000D01*
X106018072Y-72898061D01*
X123215000Y-72898061D01*
X123215000Y-73101939D01*
X123254774Y-73301898D01*
X123332795Y-73490256D01*
X123446063Y-73659774D01*
X123590226Y-73803937D01*
X123759744Y-73917205D01*
X123948102Y-73995226D01*
X124148061Y-74035000D01*
X124351939Y-74035000D01*
X124551898Y-73995226D01*
X124740256Y-73917205D01*
X124843737Y-73848061D01*
X134365000Y-73848061D01*
X134365000Y-74051939D01*
X134404774Y-74251898D01*
X134482795Y-74440256D01*
X134596063Y-74609774D01*
X134740226Y-74753937D01*
X134909744Y-74867205D01*
X135098102Y-74945226D01*
X135298061Y-74985000D01*
X135501939Y-74985000D01*
X135701898Y-74945226D01*
X135890256Y-74867205D01*
X136059774Y-74753937D01*
X136203937Y-74609774D01*
X136311989Y-74448061D01*
X139715000Y-74448061D01*
X139715000Y-74651939D01*
X139754774Y-74851898D01*
X139832795Y-75040256D01*
X139946063Y-75209774D01*
X140090226Y-75353937D01*
X140259744Y-75467205D01*
X140448102Y-75545226D01*
X140648061Y-75585000D01*
X140851939Y-75585000D01*
X141051898Y-75545226D01*
X141240256Y-75467205D01*
X141409774Y-75353937D01*
X141553937Y-75209774D01*
X141667205Y-75040256D01*
X141745226Y-74851898D01*
X141785000Y-74651939D01*
X141785000Y-74448061D01*
X141745226Y-74248102D01*
X141667205Y-74059744D01*
X141553937Y-73890226D01*
X141409774Y-73746063D01*
X141240256Y-73632795D01*
X141051898Y-73554774D01*
X140851939Y-73515000D01*
X140648061Y-73515000D01*
X140448102Y-73554774D01*
X140259744Y-73632795D01*
X140090226Y-73746063D01*
X139946063Y-73890226D01*
X139832795Y-74059744D01*
X139754774Y-74248102D01*
X139715000Y-74448061D01*
X136311989Y-74448061D01*
X136317205Y-74440256D01*
X136395226Y-74251898D01*
X136435000Y-74051939D01*
X136435000Y-74002565D01*
X136598061Y-74035000D01*
X136801939Y-74035000D01*
X137001898Y-73995226D01*
X137190256Y-73917205D01*
X137359774Y-73803937D01*
X137503937Y-73659774D01*
X137617205Y-73490256D01*
X137695226Y-73301898D01*
X137735000Y-73101939D01*
X137735000Y-72898061D01*
X137695226Y-72698102D01*
X137617205Y-72509744D01*
X137503937Y-72340226D01*
X137359774Y-72196063D01*
X137190256Y-72082795D01*
X137001898Y-72004774D01*
X136801939Y-71965000D01*
X136598061Y-71965000D01*
X136398102Y-72004774D01*
X136209744Y-72082795D01*
X136040226Y-72196063D01*
X135896063Y-72340226D01*
X135782795Y-72509744D01*
X135704774Y-72698102D01*
X135665000Y-72898061D01*
X135665000Y-72947435D01*
X135501939Y-72915000D01*
X135298061Y-72915000D01*
X135098102Y-72954774D01*
X134909744Y-73032795D01*
X134740226Y-73146063D01*
X134596063Y-73290226D01*
X134482795Y-73459744D01*
X134404774Y-73648102D01*
X134365000Y-73848061D01*
X124843737Y-73848061D01*
X124909774Y-73803937D01*
X125053937Y-73659774D01*
X125167205Y-73490256D01*
X125245226Y-73301898D01*
X125285000Y-73101939D01*
X125285000Y-72898061D01*
X125245226Y-72698102D01*
X125167205Y-72509744D01*
X125053937Y-72340226D01*
X124909774Y-72196063D01*
X124740256Y-72082795D01*
X124551898Y-72004774D01*
X124351939Y-71965000D01*
X124148061Y-71965000D01*
X123948102Y-72004774D01*
X123759744Y-72082795D01*
X123590226Y-72196063D01*
X123446063Y-72340226D01*
X123332795Y-72509744D01*
X123254774Y-72698102D01*
X123215000Y-72898061D01*
X106018072Y-72898061D01*
X106018072Y-72030000D01*
X106005812Y-71905518D01*
X105969502Y-71785820D01*
X105910537Y-71675506D01*
X105888014Y-71648061D01*
X120465000Y-71648061D01*
X120465000Y-71851939D01*
X120504774Y-72051898D01*
X120582795Y-72240256D01*
X120696063Y-72409774D01*
X120840226Y-72553937D01*
X121009744Y-72667205D01*
X121198102Y-72745226D01*
X121398061Y-72785000D01*
X121601939Y-72785000D01*
X121801898Y-72745226D01*
X121990256Y-72667205D01*
X122159774Y-72553937D01*
X122303937Y-72409774D01*
X122417205Y-72240256D01*
X122495226Y-72051898D01*
X122535000Y-71851939D01*
X122535000Y-71648061D01*
X122495226Y-71448102D01*
X122417205Y-71259744D01*
X122303937Y-71090226D01*
X122159774Y-70946063D01*
X121990256Y-70832795D01*
X121801898Y-70754774D01*
X121601939Y-70715000D01*
X121398061Y-70715000D01*
X121198102Y-70754774D01*
X121009744Y-70832795D01*
X120840226Y-70946063D01*
X120696063Y-71090226D01*
X120582795Y-71259744D01*
X120504774Y-71448102D01*
X120465000Y-71648061D01*
X105888014Y-71648061D01*
X105831185Y-71578815D01*
X105734494Y-71499463D01*
X105624180Y-71440498D01*
X105504482Y-71404188D01*
X105380000Y-71391928D01*
X103680000Y-71391928D01*
X103555518Y-71404188D01*
X103435820Y-71440498D01*
X103325506Y-71499463D01*
X103228815Y-71578815D01*
X103149463Y-71675506D01*
X103090498Y-71785820D01*
X103054188Y-71905518D01*
X103041928Y-72030000D01*
X95660000Y-72030000D01*
X95660000Y-68639647D01*
X96711078Y-68639647D01*
X97058653Y-69093958D01*
X97699556Y-69413246D01*
X98390436Y-69601366D01*
X99104739Y-69651086D01*
X99815019Y-69560498D01*
X100431660Y-69353954D01*
X113396771Y-69353954D01*
X113526679Y-69623946D01*
X113860275Y-69763118D01*
X114214613Y-69834536D01*
X114576075Y-69835453D01*
X114930771Y-69765834D01*
X115265069Y-69628356D01*
X115273321Y-69623946D01*
X115403229Y-69353954D01*
X114400000Y-68350725D01*
X113396771Y-69353954D01*
X100431660Y-69353954D01*
X100493977Y-69333081D01*
X100941347Y-69093958D01*
X101288922Y-68639647D01*
X99000000Y-66350725D01*
X96711078Y-68639647D01*
X95660000Y-68639647D01*
X95660000Y-67473320D01*
X95666919Y-67493977D01*
X95906042Y-67941347D01*
X96360353Y-68288922D01*
X98649275Y-66000000D01*
X99350725Y-66000000D01*
X101639647Y-68288922D01*
X101787147Y-68176075D01*
X112564547Y-68176075D01*
X112634166Y-68530771D01*
X112771644Y-68865069D01*
X112776054Y-68873321D01*
X113046046Y-69003229D01*
X114049275Y-68000000D01*
X114750725Y-68000000D01*
X115753954Y-69003229D01*
X116023946Y-68873321D01*
X116061928Y-68782278D01*
X116061928Y-69200000D01*
X116074188Y-69324482D01*
X116110498Y-69444180D01*
X116169463Y-69554494D01*
X116248815Y-69651185D01*
X116345506Y-69730537D01*
X116455820Y-69789502D01*
X116575518Y-69825812D01*
X116700000Y-69838072D01*
X119100000Y-69838072D01*
X119224482Y-69825812D01*
X119344180Y-69789502D01*
X119454494Y-69730537D01*
X119551185Y-69651185D01*
X119630537Y-69554494D01*
X119689502Y-69444180D01*
X119725812Y-69324482D01*
X119738072Y-69200000D01*
X119738072Y-68639647D01*
X146711078Y-68639647D01*
X147058653Y-69093958D01*
X147699556Y-69413246D01*
X148390436Y-69601366D01*
X149104739Y-69651086D01*
X149815019Y-69560498D01*
X150493977Y-69333081D01*
X150941347Y-69093958D01*
X151288922Y-68639647D01*
X149000000Y-66350725D01*
X146711078Y-68639647D01*
X119738072Y-68639647D01*
X119738072Y-66800000D01*
X119725812Y-66675518D01*
X119689502Y-66555820D01*
X119630537Y-66445506D01*
X119551185Y-66348815D01*
X119454494Y-66269463D01*
X119344180Y-66210498D01*
X119224482Y-66174188D01*
X119100000Y-66161928D01*
X116700000Y-66161928D01*
X116575518Y-66174188D01*
X116455820Y-66210498D01*
X116345506Y-66269463D01*
X116248815Y-66348815D01*
X116169463Y-66445506D01*
X116110498Y-66555820D01*
X116074188Y-66675518D01*
X116061928Y-66800000D01*
X116061928Y-67216566D01*
X116028356Y-67134931D01*
X116023946Y-67126679D01*
X115753954Y-66996771D01*
X114750725Y-68000000D01*
X114049275Y-68000000D01*
X113046046Y-66996771D01*
X112776054Y-67126679D01*
X112636882Y-67460275D01*
X112565464Y-67814613D01*
X112564547Y-68176075D01*
X101787147Y-68176075D01*
X102093958Y-67941347D01*
X102413246Y-67300444D01*
X102601366Y-66609564D01*
X102608298Y-66509970D01*
X102642307Y-66592074D01*
X102779099Y-66796798D01*
X102953202Y-66970901D01*
X103157926Y-67107693D01*
X103385402Y-67201917D01*
X103626890Y-67249952D01*
X103873110Y-67249952D01*
X104114598Y-67201917D01*
X104342074Y-67107693D01*
X104546798Y-66970901D01*
X104720901Y-66796798D01*
X104821630Y-66646046D01*
X113396771Y-66646046D01*
X114400000Y-67649275D01*
X115403229Y-66646046D01*
X115273321Y-66376054D01*
X114939725Y-66236882D01*
X114585387Y-66165464D01*
X114223925Y-66164547D01*
X113869229Y-66234166D01*
X113534931Y-66371644D01*
X113526679Y-66376054D01*
X113396771Y-66646046D01*
X104821630Y-66646046D01*
X104857693Y-66592074D01*
X104951917Y-66364598D01*
X104999952Y-66123110D01*
X104999952Y-65952890D01*
X143000048Y-65952890D01*
X143000048Y-66199110D01*
X143048083Y-66440598D01*
X143142307Y-66668074D01*
X143279099Y-66872798D01*
X143453202Y-67046901D01*
X143657926Y-67183693D01*
X143885402Y-67277917D01*
X144126890Y-67325952D01*
X144373110Y-67325952D01*
X144614598Y-67277917D01*
X144842074Y-67183693D01*
X145046798Y-67046901D01*
X145220901Y-66872798D01*
X145357693Y-66668074D01*
X145405914Y-66551660D01*
X145439502Y-66815019D01*
X145666919Y-67493977D01*
X145906042Y-67941347D01*
X146360353Y-68288922D01*
X148649275Y-66000000D01*
X146360353Y-63711078D01*
X145906042Y-64058653D01*
X145586754Y-64699556D01*
X145398634Y-65390436D01*
X145387173Y-65555096D01*
X145357693Y-65483926D01*
X145220901Y-65279202D01*
X145046798Y-65105099D01*
X144842074Y-64968307D01*
X144614598Y-64874083D01*
X144373110Y-64826048D01*
X144126890Y-64826048D01*
X143885402Y-64874083D01*
X143657926Y-64968307D01*
X143453202Y-65105099D01*
X143279099Y-65279202D01*
X143142307Y-65483926D01*
X143048083Y-65711402D01*
X143000048Y-65952890D01*
X104999952Y-65952890D01*
X104999952Y-65876890D01*
X104951917Y-65635402D01*
X104857693Y-65407926D01*
X104720901Y-65203202D01*
X104546798Y-65029099D01*
X104342074Y-64892307D01*
X104114598Y-64798083D01*
X103873110Y-64750048D01*
X103626890Y-64750048D01*
X103385402Y-64798083D01*
X103157926Y-64892307D01*
X102953202Y-65029099D01*
X102779099Y-65203202D01*
X102642307Y-65407926D01*
X102601497Y-65506449D01*
X102560498Y-65184981D01*
X102333081Y-64506023D01*
X102093958Y-64058653D01*
X101639647Y-63711078D01*
X99350725Y-66000000D01*
X98649275Y-66000000D01*
X98635133Y-65985858D01*
X98985858Y-65635133D01*
X99000000Y-65649275D01*
X101288922Y-63360353D01*
X100941347Y-62906042D01*
X100447470Y-62660000D01*
X147526680Y-62660000D01*
X147506023Y-62666919D01*
%TA.AperFunction,Conductor*%
D20*
G36*
X147506023Y-62666919D02*
G01*
X147058653Y-62906042D01*
X146711078Y-63360353D01*
X149000000Y-65649275D01*
X149014143Y-65635133D01*
X149364868Y-65985858D01*
X149350725Y-66000000D01*
X151639647Y-68288922D01*
X152093958Y-67941347D01*
X152340000Y-67447470D01*
X152340001Y-76742067D01*
X152222499Y-76706423D01*
X152055752Y-76690000D01*
X151044248Y-76690000D01*
X150877501Y-76706423D01*
X150663553Y-76771324D01*
X150466377Y-76876716D01*
X150293551Y-77018551D01*
X150151716Y-77191377D01*
X150046324Y-77388553D01*
X149981423Y-77602501D01*
X149959509Y-77825000D01*
X149981423Y-78047499D01*
X150046324Y-78261447D01*
X150151716Y-78458623D01*
X150293551Y-78631449D01*
X150466377Y-78773284D01*
X150626116Y-78858666D01*
X150593546Y-78891009D01*
X150587501Y-78898421D01*
X150535527Y-78963064D01*
X150501542Y-79014999D01*
X150466816Y-79066483D01*
X150462326Y-79074928D01*
X150423898Y-79148434D01*
X150400640Y-79205999D01*
X150376582Y-79263232D01*
X150373817Y-79272388D01*
X150350398Y-79351959D01*
X150338760Y-79412969D01*
X150326281Y-79473758D01*
X150325347Y-79483276D01*
X150317830Y-79565880D01*
X150318263Y-79627969D01*
X150317830Y-79690057D01*
X150318763Y-79699576D01*
X150327434Y-79782066D01*
X150339920Y-79842891D01*
X150351550Y-79903857D01*
X150354314Y-79913013D01*
X150378841Y-79992249D01*
X150402894Y-80049469D01*
X150426159Y-80107052D01*
X150430649Y-80115497D01*
X150470100Y-80188460D01*
X150504821Y-80239936D01*
X150538810Y-80291877D01*
X150544854Y-80299289D01*
X150597726Y-80363200D01*
X150641767Y-80406935D01*
X150685224Y-80451311D01*
X150692593Y-80457408D01*
X150756872Y-80509832D01*
X150808616Y-80544210D01*
X150859810Y-80579263D01*
X150868223Y-80583812D01*
X150941459Y-80622752D01*
X150998866Y-80646413D01*
X151055920Y-80670867D01*
X151065054Y-80673694D01*
X151065061Y-80673697D01*
X151065069Y-80673699D01*
X151144461Y-80697669D01*
X151205337Y-80709723D01*
X151266095Y-80722637D01*
X151275607Y-80723637D01*
X151358157Y-80731731D01*
X151358163Y-80731731D01*
X151391353Y-80735000D01*
X152315001Y-80735000D01*
X152315000Y-83265000D01*
X151391353Y-83265000D01*
X151357737Y-83268311D01*
X151352220Y-83268311D01*
X151342708Y-83269310D01*
X151307523Y-83273257D01*
X151290717Y-83274912D01*
X151289515Y-83275277D01*
X151260280Y-83278556D01*
X151199514Y-83291472D01*
X151138654Y-83303523D01*
X151129518Y-83306351D01*
X151129512Y-83306352D01*
X151129507Y-83306354D01*
X151050454Y-83331431D01*
X150993382Y-83355892D01*
X150935984Y-83379550D01*
X150927578Y-83384095D01*
X150927575Y-83384096D01*
X150927573Y-83384097D01*
X150927570Y-83384099D01*
X150854884Y-83424059D01*
X150803653Y-83459138D01*
X150751951Y-83493489D01*
X150744581Y-83499585D01*
X150681041Y-83552901D01*
X150637602Y-83597259D01*
X150593546Y-83641009D01*
X150587501Y-83648421D01*
X150535527Y-83713064D01*
X150501542Y-83764999D01*
X150466816Y-83816483D01*
X150462326Y-83824928D01*
X150423898Y-83898434D01*
X150400640Y-83955999D01*
X150376582Y-84013232D01*
X150373817Y-84022388D01*
X150350398Y-84101959D01*
X150338760Y-84162969D01*
X150326281Y-84223758D01*
X150325347Y-84233276D01*
X150317830Y-84315880D01*
X150318263Y-84377969D01*
X150317830Y-84440057D01*
X150318763Y-84449576D01*
X150327434Y-84532066D01*
X150339920Y-84592891D01*
X150351550Y-84653857D01*
X150354314Y-84663013D01*
X150378841Y-84742249D01*
X150402894Y-84799469D01*
X150426159Y-84857052D01*
X150430649Y-84865497D01*
X150470100Y-84938460D01*
X150504821Y-84989936D01*
X150538810Y-85041877D01*
X150544854Y-85049289D01*
X150597726Y-85113200D01*
X150626078Y-85141355D01*
X150466377Y-85226716D01*
X150293551Y-85368551D01*
X150151716Y-85541377D01*
X150046324Y-85738553D01*
X149981423Y-85952501D01*
X149959509Y-86175000D01*
X149981423Y-86397499D01*
X150046324Y-86611447D01*
X150151716Y-86808623D01*
X150293551Y-86981449D01*
X150466377Y-87123284D01*
X150663553Y-87228676D01*
X150877501Y-87293577D01*
X151044248Y-87310000D01*
X152055752Y-87310000D01*
X152222499Y-87293577D01*
X152340001Y-87257933D01*
X152340000Y-124526680D01*
X152333081Y-124506023D01*
X152093958Y-124058653D01*
X151639647Y-123711078D01*
X149350725Y-126000000D01*
X149364868Y-126014143D01*
X149014143Y-126364868D01*
X149000000Y-126350725D01*
X146711078Y-128639647D01*
X147058653Y-129093958D01*
X147552530Y-129340000D01*
X100473320Y-129340000D01*
X100493977Y-129333081D01*
X100941347Y-129093958D01*
X101288922Y-128639647D01*
X99000000Y-126350725D01*
X98985858Y-126364868D01*
X98635133Y-126014143D01*
X98649275Y-126000000D01*
X99350725Y-126000000D01*
X101639647Y-128288922D01*
X102093958Y-127941347D01*
X102413246Y-127300444D01*
X102601366Y-126609564D01*
X102619886Y-126343498D01*
X102624083Y-126364598D01*
X102718307Y-126592074D01*
X102855099Y-126796798D01*
X103029202Y-126970901D01*
X103233926Y-127107693D01*
X103461402Y-127201917D01*
X103702890Y-127249952D01*
X103949110Y-127249952D01*
X104190598Y-127201917D01*
X104418074Y-127107693D01*
X104622798Y-126970901D01*
X104796901Y-126796798D01*
X104933693Y-126592074D01*
X105027917Y-126364598D01*
X105075952Y-126123110D01*
X105075952Y-125876890D01*
X143000048Y-125876890D01*
X143000048Y-126123110D01*
X143048083Y-126364598D01*
X143142307Y-126592074D01*
X143279099Y-126796798D01*
X143453202Y-126970901D01*
X143657926Y-127107693D01*
X143885402Y-127201917D01*
X144126890Y-127249952D01*
X144373110Y-127249952D01*
X144614598Y-127201917D01*
X144842074Y-127107693D01*
X145046798Y-126970901D01*
X145220901Y-126796798D01*
X145357693Y-126592074D01*
X145398503Y-126493551D01*
X145439502Y-126815019D01*
X145666919Y-127493977D01*
X145906042Y-127941347D01*
X146360353Y-128288922D01*
X148649275Y-126000000D01*
X146360353Y-123711078D01*
X145906042Y-124058653D01*
X145586754Y-124699556D01*
X145398634Y-125390436D01*
X145391702Y-125490030D01*
X145357693Y-125407926D01*
X145220901Y-125203202D01*
X145046798Y-125029099D01*
X144842074Y-124892307D01*
X144614598Y-124798083D01*
X144373110Y-124750048D01*
X144126890Y-124750048D01*
X143885402Y-124798083D01*
X143657926Y-124892307D01*
X143453202Y-125029099D01*
X143279099Y-125203202D01*
X143142307Y-125407926D01*
X143048083Y-125635402D01*
X143000048Y-125876890D01*
X105075952Y-125876890D01*
X105027917Y-125635402D01*
X104933693Y-125407926D01*
X104796901Y-125203202D01*
X104622798Y-125029099D01*
X104418074Y-124892307D01*
X104190598Y-124798083D01*
X103949110Y-124750048D01*
X103702890Y-124750048D01*
X103461402Y-124798083D01*
X103233926Y-124892307D01*
X103029202Y-125029099D01*
X102855099Y-125203202D01*
X102718307Y-125407926D01*
X102624083Y-125635402D01*
X102620342Y-125654207D01*
X102560498Y-125184981D01*
X102333081Y-124506023D01*
X102093958Y-124058653D01*
X101639647Y-123711078D01*
X99350725Y-126000000D01*
X98649275Y-126000000D01*
X96360353Y-123711078D01*
X95906042Y-124058653D01*
X95660000Y-124552530D01*
X95660000Y-123360353D01*
X96711078Y-123360353D01*
X99000000Y-125649275D01*
X101288922Y-123360353D01*
X146711078Y-123360353D01*
X149000000Y-125649275D01*
X151288922Y-123360353D01*
X150941347Y-122906042D01*
X150300444Y-122586754D01*
X149609564Y-122398634D01*
X148895261Y-122348914D01*
X148184981Y-122439502D01*
X147506023Y-122666919D01*
X147058653Y-122906042D01*
X146711078Y-123360353D01*
X101288922Y-123360353D01*
X100941347Y-122906042D01*
X100300444Y-122586754D01*
X99609564Y-122398634D01*
X98895261Y-122348914D01*
X98184981Y-122439502D01*
X97506023Y-122666919D01*
X97058653Y-122906042D01*
X96711078Y-123360353D01*
X95660000Y-123360353D01*
X95660000Y-90113740D01*
X96315000Y-90113740D01*
X96315000Y-90406260D01*
X96372068Y-90693158D01*
X96484010Y-90963411D01*
X96646525Y-91206632D01*
X96853368Y-91413475D01*
X97027760Y-91530000D01*
X96853368Y-91646525D01*
X96646525Y-91853368D01*
X96484010Y-92096589D01*
X96372068Y-92366842D01*
X96315000Y-92653740D01*
X96315000Y-92946260D01*
X96372068Y-93233158D01*
X96484010Y-93503411D01*
X96646525Y-93746632D01*
X96853368Y-93953475D01*
X97027760Y-94070000D01*
X96853368Y-94186525D01*
X96646525Y-94393368D01*
X96484010Y-94636589D01*
X96372068Y-94906842D01*
X96315000Y-95193740D01*
X96315000Y-95486260D01*
X96372068Y-95773158D01*
X96484010Y-96043411D01*
X96646525Y-96286632D01*
X96853368Y-96493475D01*
X97027760Y-96610000D01*
X96853368Y-96726525D01*
X96646525Y-96933368D01*
X96484010Y-97176589D01*
X96372068Y-97446842D01*
X96315000Y-97733740D01*
X96315000Y-98026260D01*
X96372068Y-98313158D01*
X96484010Y-98583411D01*
X96646525Y-98826632D01*
X96853368Y-99033475D01*
X97027760Y-99150000D01*
X96853368Y-99266525D01*
X96646525Y-99473368D01*
X96484010Y-99716589D01*
X96372068Y-99986842D01*
X96315000Y-100273740D01*
X96315000Y-100566260D01*
X96372068Y-100853158D01*
X96484010Y-101123411D01*
X96646525Y-101366632D01*
X96853368Y-101573475D01*
X97027760Y-101690000D01*
X96853368Y-101806525D01*
X96646525Y-102013368D01*
X96484010Y-102256589D01*
X96372068Y-102526842D01*
X96315000Y-102813740D01*
X96315000Y-103106260D01*
X96372068Y-103393158D01*
X96484010Y-103663411D01*
X96646525Y-103906632D01*
X96853368Y-104113475D01*
X97027760Y-104230000D01*
X96853368Y-104346525D01*
X96646525Y-104553368D01*
X96484010Y-104796589D01*
X96372068Y-105066842D01*
X96315000Y-105353740D01*
X96315000Y-105646260D01*
X96372068Y-105933158D01*
X96484010Y-106203411D01*
X96646525Y-106446632D01*
X96853368Y-106653475D01*
X97027760Y-106770000D01*
X96853368Y-106886525D01*
X96646525Y-107093368D01*
X96484010Y-107336589D01*
X96372068Y-107606842D01*
X96315000Y-107893740D01*
X96315000Y-108186260D01*
X96372068Y-108473158D01*
X96484010Y-108743411D01*
X96646525Y-108986632D01*
X96853368Y-109193475D01*
X97027760Y-109310000D01*
X96853368Y-109426525D01*
X96646525Y-109633368D01*
X96484010Y-109876589D01*
X96372068Y-110146842D01*
X96315000Y-110433740D01*
X96315000Y-110726260D01*
X96372068Y-111013158D01*
X96484010Y-111283411D01*
X96646525Y-111526632D01*
X96853368Y-111733475D01*
X97027760Y-111850000D01*
X96853368Y-111966525D01*
X96646525Y-112173368D01*
X96484010Y-112416589D01*
X96372068Y-112686842D01*
X96315000Y-112973740D01*
X96315000Y-113266260D01*
X96372068Y-113553158D01*
X96484010Y-113823411D01*
X96646525Y-114066632D01*
X96853368Y-114273475D01*
X97027760Y-114390000D01*
X96853368Y-114506525D01*
X96646525Y-114713368D01*
X96484010Y-114956589D01*
X96372068Y-115226842D01*
X96315000Y-115513740D01*
X96315000Y-115806260D01*
X96372068Y-116093158D01*
X96484010Y-116363411D01*
X96646525Y-116606632D01*
X96853368Y-116813475D01*
X97027760Y-116930000D01*
X96853368Y-117046525D01*
X96646525Y-117253368D01*
X96484010Y-117496589D01*
X96372068Y-117766842D01*
X96315000Y-118053740D01*
X96315000Y-118346260D01*
X96372068Y-118633158D01*
X96484010Y-118903411D01*
X96646525Y-119146632D01*
X96853368Y-119353475D01*
X97096589Y-119515990D01*
X97366842Y-119627932D01*
X97653740Y-119685000D01*
X97946260Y-119685000D01*
X98233158Y-119627932D01*
X98300592Y-119600000D01*
X112511928Y-119600000D01*
X112511928Y-121300000D01*
X112524188Y-121424482D01*
X112560498Y-121544180D01*
X112619463Y-121654494D01*
X112698815Y-121751185D01*
X112795506Y-121830537D01*
X112905820Y-121889502D01*
X113025518Y-121925812D01*
X113150000Y-121938072D01*
X114850000Y-121938072D01*
X114974482Y-121925812D01*
X115094180Y-121889502D01*
X115204494Y-121830537D01*
X115301185Y-121751185D01*
X115380537Y-121654494D01*
X115439502Y-121544180D01*
X115461513Y-121471620D01*
X115593368Y-121603475D01*
X115836589Y-121765990D01*
X116106842Y-121877932D01*
X116393740Y-121935000D01*
X116686260Y-121935000D01*
X116973158Y-121877932D01*
X117243411Y-121765990D01*
X117486632Y-121603475D01*
X117693475Y-121396632D01*
X117810000Y-121222240D01*
X117926525Y-121396632D01*
X118133368Y-121603475D01*
X118376589Y-121765990D01*
X118646842Y-121877932D01*
X118933740Y-121935000D01*
X119226260Y-121935000D01*
X119513158Y-121877932D01*
X119783411Y-121765990D01*
X120026632Y-121603475D01*
X120233475Y-121396632D01*
X120350000Y-121222240D01*
X120466525Y-121396632D01*
X120673368Y-121603475D01*
X120916589Y-121765990D01*
X121186842Y-121877932D01*
X121473740Y-121935000D01*
X121766260Y-121935000D01*
X122053158Y-121877932D01*
X122323411Y-121765990D01*
X122566632Y-121603475D01*
X122773475Y-121396632D01*
X122890000Y-121222240D01*
X123006525Y-121396632D01*
X123213368Y-121603475D01*
X123456589Y-121765990D01*
X123726842Y-121877932D01*
X124013740Y-121935000D01*
X124306260Y-121935000D01*
X124593158Y-121877932D01*
X124863411Y-121765990D01*
X125106632Y-121603475D01*
X125313475Y-121396632D01*
X125432693Y-121218210D01*
X125581183Y-121426473D01*
X125793181Y-121625981D01*
X126040028Y-121780296D01*
X126226011Y-121857323D01*
X126452000Y-121752857D01*
X126452000Y-120698000D01*
X126948000Y-120698000D01*
X126948000Y-121752857D01*
X127173989Y-121857323D01*
X127359972Y-121780296D01*
X127606819Y-121625981D01*
X127818817Y-121426473D01*
X127987820Y-121189440D01*
X128107333Y-120923991D01*
X128005405Y-120698000D01*
X126948000Y-120698000D01*
X126452000Y-120698000D01*
X126432000Y-120698000D01*
X126432000Y-120202000D01*
X126452000Y-120202000D01*
X126452000Y-119147143D01*
X126948000Y-119147143D01*
X126948000Y-120202000D01*
X128005405Y-120202000D01*
X128107333Y-119976009D01*
X127987820Y-119710560D01*
X127908992Y-119600000D01*
X130761928Y-119600000D01*
X130761928Y-121300000D01*
X130774188Y-121424482D01*
X130810498Y-121544180D01*
X130869463Y-121654494D01*
X130948815Y-121751185D01*
X131045506Y-121830537D01*
X131155820Y-121889502D01*
X131275518Y-121925812D01*
X131400000Y-121938072D01*
X133100000Y-121938072D01*
X133224482Y-121925812D01*
X133344180Y-121889502D01*
X133454494Y-121830537D01*
X133551185Y-121751185D01*
X133630537Y-121654494D01*
X133689502Y-121544180D01*
X133711513Y-121471620D01*
X133843368Y-121603475D01*
X134086589Y-121765990D01*
X134356842Y-121877932D01*
X134643740Y-121935000D01*
X134936260Y-121935000D01*
X135223158Y-121877932D01*
X135493411Y-121765990D01*
X135736632Y-121603475D01*
X135943475Y-121396632D01*
X136060000Y-121222240D01*
X136176525Y-121396632D01*
X136383368Y-121603475D01*
X136626589Y-121765990D01*
X136896842Y-121877932D01*
X137183740Y-121935000D01*
X137476260Y-121935000D01*
X137763158Y-121877932D01*
X138033411Y-121765990D01*
X138276632Y-121603475D01*
X138483475Y-121396632D01*
X138602693Y-121218210D01*
X138751183Y-121426473D01*
X138963181Y-121625981D01*
X139210028Y-121780296D01*
X139396011Y-121857323D01*
X139622000Y-121752857D01*
X139622000Y-120698000D01*
X140118000Y-120698000D01*
X140118000Y-121752857D01*
X140343989Y-121857323D01*
X140529972Y-121780296D01*
X140776819Y-121625981D01*
X140988817Y-121426473D01*
X141157820Y-121189440D01*
X141277333Y-120923991D01*
X141175405Y-120698000D01*
X140118000Y-120698000D01*
X139622000Y-120698000D01*
X139602000Y-120698000D01*
X139602000Y-120202000D01*
X139622000Y-120202000D01*
X139622000Y-119147143D01*
X140118000Y-119147143D01*
X140118000Y-120202000D01*
X141175405Y-120202000D01*
X141277333Y-119976009D01*
X141157820Y-119710560D01*
X140988817Y-119473527D01*
X140776819Y-119274019D01*
X140529972Y-119119704D01*
X140343989Y-119042677D01*
X140118000Y-119147143D01*
X139622000Y-119147143D01*
X139396011Y-119042677D01*
X139210028Y-119119704D01*
X138963181Y-119274019D01*
X138751183Y-119473527D01*
X138602693Y-119681790D01*
X138483475Y-119503368D01*
X138276632Y-119296525D01*
X138033411Y-119134010D01*
X137763158Y-119022068D01*
X137476260Y-118965000D01*
X137183740Y-118965000D01*
X136896842Y-119022068D01*
X136626589Y-119134010D01*
X136383368Y-119296525D01*
X136176525Y-119503368D01*
X136060000Y-119677760D01*
X135943475Y-119503368D01*
X135736632Y-119296525D01*
X135493411Y-119134010D01*
X135223158Y-119022068D01*
X134936260Y-118965000D01*
X134643740Y-118965000D01*
X134356842Y-119022068D01*
X134086589Y-119134010D01*
X133843368Y-119296525D01*
X133711513Y-119428380D01*
X133689502Y-119355820D01*
X133630537Y-119245506D01*
X133551185Y-119148815D01*
X133454494Y-119069463D01*
X133344180Y-119010498D01*
X133224482Y-118974188D01*
X133100000Y-118961928D01*
X131400000Y-118961928D01*
X131275518Y-118974188D01*
X131155820Y-119010498D01*
X131045506Y-119069463D01*
X130948815Y-119148815D01*
X130869463Y-119245506D01*
X130810498Y-119355820D01*
X130774188Y-119475518D01*
X130761928Y-119600000D01*
X127908992Y-119600000D01*
X127818817Y-119473527D01*
X127606819Y-119274019D01*
X127359972Y-119119704D01*
X127173989Y-119042677D01*
X126948000Y-119147143D01*
X126452000Y-119147143D01*
X126226011Y-119042677D01*
X126040028Y-119119704D01*
X125793181Y-119274019D01*
X125581183Y-119473527D01*
X125432693Y-119681790D01*
X125313475Y-119503368D01*
X125106632Y-119296525D01*
X124863411Y-119134010D01*
X124593158Y-119022068D01*
X124306260Y-118965000D01*
X124013740Y-118965000D01*
X123726842Y-119022068D01*
X123456589Y-119134010D01*
X123213368Y-119296525D01*
X123006525Y-119503368D01*
X122890000Y-119677760D01*
X122773475Y-119503368D01*
X122566632Y-119296525D01*
X122323411Y-119134010D01*
X122053158Y-119022068D01*
X121766260Y-118965000D01*
X121473740Y-118965000D01*
X121186842Y-119022068D01*
X120916589Y-119134010D01*
X120673368Y-119296525D01*
X120466525Y-119503368D01*
X120350000Y-119677760D01*
X120233475Y-119503368D01*
X120026632Y-119296525D01*
X119783411Y-119134010D01*
X119513158Y-119022068D01*
X119226260Y-118965000D01*
X118933740Y-118965000D01*
X118646842Y-119022068D01*
X118376589Y-119134010D01*
X118133368Y-119296525D01*
X117926525Y-119503368D01*
X117810000Y-119677760D01*
X117693475Y-119503368D01*
X117486632Y-119296525D01*
X117243411Y-119134010D01*
X116973158Y-119022068D01*
X116686260Y-118965000D01*
X116393740Y-118965000D01*
X116106842Y-119022068D01*
X115836589Y-119134010D01*
X115593368Y-119296525D01*
X115461513Y-119428380D01*
X115439502Y-119355820D01*
X115380537Y-119245506D01*
X115301185Y-119148815D01*
X115204494Y-119069463D01*
X115094180Y-119010498D01*
X114974482Y-118974188D01*
X114850000Y-118961928D01*
X113150000Y-118961928D01*
X113025518Y-118974188D01*
X112905820Y-119010498D01*
X112795506Y-119069463D01*
X112698815Y-119148815D01*
X112619463Y-119245506D01*
X112560498Y-119355820D01*
X112524188Y-119475518D01*
X112511928Y-119600000D01*
X98300592Y-119600000D01*
X98503411Y-119515990D01*
X98746632Y-119353475D01*
X98953475Y-119146632D01*
X99115990Y-118903411D01*
X99227932Y-118633158D01*
X99285000Y-118346260D01*
X99285000Y-118053740D01*
X99227932Y-117766842D01*
X99115990Y-117496589D01*
X98953475Y-117253368D01*
X98746632Y-117046525D01*
X98572240Y-116930000D01*
X98746632Y-116813475D01*
X98953475Y-116606632D01*
X99115990Y-116363411D01*
X99227932Y-116093158D01*
X99285000Y-115806260D01*
X99285000Y-115648061D01*
X140965000Y-115648061D01*
X140965000Y-115851939D01*
X141004774Y-116051898D01*
X141082795Y-116240256D01*
X141196063Y-116409774D01*
X141340226Y-116553937D01*
X141509744Y-116667205D01*
X141698102Y-116745226D01*
X141898061Y-116785000D01*
X142101939Y-116785000D01*
X142301898Y-116745226D01*
X142490256Y-116667205D01*
X142659774Y-116553937D01*
X142803937Y-116409774D01*
X142917205Y-116240256D01*
X142995226Y-116051898D01*
X143035000Y-115851939D01*
X143035000Y-115648061D01*
X142995226Y-115448102D01*
X142917205Y-115259744D01*
X142803937Y-115090226D01*
X142659774Y-114946063D01*
X142490256Y-114832795D01*
X142301898Y-114754774D01*
X142101939Y-114715000D01*
X141898061Y-114715000D01*
X141698102Y-114754774D01*
X141509744Y-114832795D01*
X141340226Y-114946063D01*
X141196063Y-115090226D01*
X141082795Y-115259744D01*
X141004774Y-115448102D01*
X140965000Y-115648061D01*
X99285000Y-115648061D01*
X99285000Y-115513740D01*
X99227932Y-115226842D01*
X99115990Y-114956589D01*
X98953475Y-114713368D01*
X98746632Y-114506525D01*
X98572240Y-114390000D01*
X98746632Y-114273475D01*
X98953475Y-114066632D01*
X99115990Y-113823411D01*
X99227932Y-113553158D01*
X99285000Y-113266260D01*
X99285000Y-112973740D01*
X99269947Y-112898061D01*
X133215000Y-112898061D01*
X133215000Y-113101939D01*
X133254774Y-113301898D01*
X133332795Y-113490256D01*
X133446063Y-113659774D01*
X133536289Y-113750000D01*
X133446063Y-113840226D01*
X133332795Y-114009744D01*
X133254774Y-114198102D01*
X133215000Y-114398061D01*
X133215000Y-114601939D01*
X133254774Y-114801898D01*
X133332795Y-114990256D01*
X133446063Y-115159774D01*
X133590226Y-115303937D01*
X133759744Y-115417205D01*
X133948102Y-115495226D01*
X134148061Y-115535000D01*
X134351939Y-115535000D01*
X134551898Y-115495226D01*
X134740256Y-115417205D01*
X134909774Y-115303937D01*
X135053937Y-115159774D01*
X135167205Y-114990256D01*
X135245226Y-114801898D01*
X135285000Y-114601939D01*
X135285000Y-114398061D01*
X135245226Y-114198102D01*
X135167205Y-114009744D01*
X135053937Y-113840226D01*
X134963711Y-113750000D01*
X135053937Y-113659774D01*
X135167205Y-113490256D01*
X135245226Y-113301898D01*
X135285000Y-113101939D01*
X135285000Y-112898061D01*
X136715000Y-112898061D01*
X136715000Y-113101939D01*
X136754774Y-113301898D01*
X136832795Y-113490256D01*
X136946063Y-113659774D01*
X137036289Y-113750000D01*
X136946063Y-113840226D01*
X136832795Y-114009744D01*
X136754774Y-114198102D01*
X136715000Y-114398061D01*
X136715000Y-114601939D01*
X136754774Y-114801898D01*
X136832795Y-114990256D01*
X136946063Y-115159774D01*
X137090226Y-115303937D01*
X137259744Y-115417205D01*
X137448102Y-115495226D01*
X137648061Y-115535000D01*
X137851939Y-115535000D01*
X138051898Y-115495226D01*
X138240256Y-115417205D01*
X138409774Y-115303937D01*
X138553937Y-115159774D01*
X138667205Y-114990256D01*
X138745226Y-114801898D01*
X138785000Y-114601939D01*
X138785000Y-114398061D01*
X138745226Y-114198102D01*
X138667205Y-114009744D01*
X138553937Y-113840226D01*
X138463711Y-113750000D01*
X138553937Y-113659774D01*
X138667205Y-113490256D01*
X138745226Y-113301898D01*
X138785000Y-113101939D01*
X138785000Y-112898061D01*
X138745226Y-112698102D01*
X138667205Y-112509744D01*
X138553937Y-112340226D01*
X138409774Y-112196063D01*
X138240256Y-112082795D01*
X138051898Y-112004774D01*
X137851939Y-111965000D01*
X137648061Y-111965000D01*
X137448102Y-112004774D01*
X137259744Y-112082795D01*
X137090226Y-112196063D01*
X136946063Y-112340226D01*
X136832795Y-112509744D01*
X136754774Y-112698102D01*
X136715000Y-112898061D01*
X135285000Y-112898061D01*
X135245226Y-112698102D01*
X135167205Y-112509744D01*
X135053937Y-112340226D01*
X134909774Y-112196063D01*
X134740256Y-112082795D01*
X134551898Y-112004774D01*
X134351939Y-111965000D01*
X134148061Y-111965000D01*
X133948102Y-112004774D01*
X133759744Y-112082795D01*
X133590226Y-112196063D01*
X133446063Y-112340226D01*
X133332795Y-112509744D01*
X133254774Y-112698102D01*
X133215000Y-112898061D01*
X99269947Y-112898061D01*
X99227932Y-112686842D01*
X99115990Y-112416589D01*
X98953475Y-112173368D01*
X98746632Y-111966525D01*
X98572240Y-111850000D01*
X98746632Y-111733475D01*
X98832046Y-111648061D01*
X140965000Y-111648061D01*
X140965000Y-111851939D01*
X141004774Y-112051898D01*
X141082795Y-112240256D01*
X141196063Y-112409774D01*
X141340226Y-112553937D01*
X141509744Y-112667205D01*
X141698102Y-112745226D01*
X141898061Y-112785000D01*
X142101939Y-112785000D01*
X142301898Y-112745226D01*
X142490256Y-112667205D01*
X142659774Y-112553937D01*
X142803937Y-112409774D01*
X142917205Y-112240256D01*
X142995226Y-112051898D01*
X143035000Y-111851939D01*
X143035000Y-111648061D01*
X142995226Y-111448102D01*
X142917205Y-111259744D01*
X142803937Y-111090226D01*
X142659774Y-110946063D01*
X142490256Y-110832795D01*
X142301898Y-110754774D01*
X142101939Y-110715000D01*
X141898061Y-110715000D01*
X141698102Y-110754774D01*
X141509744Y-110832795D01*
X141340226Y-110946063D01*
X141196063Y-111090226D01*
X141082795Y-111259744D01*
X141004774Y-111448102D01*
X140965000Y-111648061D01*
X98832046Y-111648061D01*
X98953475Y-111526632D01*
X99115990Y-111283411D01*
X99227932Y-111013158D01*
X99285000Y-110726260D01*
X99285000Y-110433740D01*
X99227932Y-110146842D01*
X99115990Y-109876589D01*
X98953475Y-109633368D01*
X98746632Y-109426525D01*
X98704033Y-109398061D01*
X111965000Y-109398061D01*
X111965000Y-109601939D01*
X112004774Y-109801898D01*
X112082795Y-109990256D01*
X112196063Y-110159774D01*
X112340226Y-110303937D01*
X112509744Y-110417205D01*
X112698102Y-110495226D01*
X112898061Y-110535000D01*
X113101939Y-110535000D01*
X113301898Y-110495226D01*
X113490256Y-110417205D01*
X113659774Y-110303937D01*
X113803937Y-110159774D01*
X113917205Y-109990256D01*
X113995226Y-109801898D01*
X114035000Y-109601939D01*
X114035000Y-109398061D01*
X113995226Y-109198102D01*
X113917205Y-109009744D01*
X113803937Y-108840226D01*
X113659774Y-108696063D01*
X113490256Y-108582795D01*
X113301898Y-108504774D01*
X113101939Y-108465000D01*
X112898061Y-108465000D01*
X112698102Y-108504774D01*
X112509744Y-108582795D01*
X112340226Y-108696063D01*
X112196063Y-108840226D01*
X112082795Y-109009744D01*
X112004774Y-109198102D01*
X111965000Y-109398061D01*
X98704033Y-109398061D01*
X98572240Y-109310000D01*
X98746632Y-109193475D01*
X98953475Y-108986632D01*
X99115990Y-108743411D01*
X99227932Y-108473158D01*
X99285000Y-108186260D01*
X99285000Y-107893740D01*
X99227932Y-107606842D01*
X99115990Y-107336589D01*
X98953475Y-107093368D01*
X98746632Y-106886525D01*
X98572240Y-106770000D01*
X98746632Y-106653475D01*
X98953475Y-106446632D01*
X99115990Y-106203411D01*
X99227932Y-105933158D01*
X99285000Y-105646260D01*
X99285000Y-105353740D01*
X99227932Y-105066842D01*
X99115990Y-104796589D01*
X98953475Y-104553368D01*
X98746632Y-104346525D01*
X98572240Y-104230000D01*
X98746632Y-104113475D01*
X98953475Y-103906632D01*
X99115990Y-103663411D01*
X99227932Y-103393158D01*
X99285000Y-103106260D01*
X99285000Y-102813740D01*
X99227932Y-102526842D01*
X99115990Y-102256589D01*
X98953475Y-102013368D01*
X98898168Y-101958061D01*
X113465000Y-101958061D01*
X113465000Y-102161939D01*
X113504774Y-102361898D01*
X113582795Y-102550256D01*
X113696063Y-102719774D01*
X113840226Y-102863937D01*
X114009744Y-102977205D01*
X114198102Y-103055226D01*
X114398061Y-103095000D01*
X114601939Y-103095000D01*
X114801898Y-103055226D01*
X114990256Y-102977205D01*
X115159774Y-102863937D01*
X115303937Y-102719774D01*
X115417205Y-102550256D01*
X115495226Y-102361898D01*
X115500000Y-102337897D01*
X115504774Y-102361898D01*
X115582795Y-102550256D01*
X115696063Y-102719774D01*
X115840226Y-102863937D01*
X116009744Y-102977205D01*
X116198102Y-103055226D01*
X116398061Y-103095000D01*
X116601939Y-103095000D01*
X116801898Y-103055226D01*
X116990256Y-102977205D01*
X117159774Y-102863937D01*
X117303937Y-102719774D01*
X117417205Y-102550256D01*
X117495226Y-102361898D01*
X117535000Y-102161939D01*
X117535000Y-101958061D01*
X117495226Y-101758102D01*
X117449646Y-101648061D01*
X128465000Y-101648061D01*
X128465000Y-101851939D01*
X128504774Y-102051898D01*
X128582795Y-102240256D01*
X128696063Y-102409774D01*
X128840226Y-102553937D01*
X129009744Y-102667205D01*
X129198102Y-102745226D01*
X129398061Y-102785000D01*
X129601939Y-102785000D01*
X129801898Y-102745226D01*
X129990256Y-102667205D01*
X130159774Y-102553937D01*
X130303937Y-102409774D01*
X130417205Y-102240256D01*
X130495226Y-102051898D01*
X130535000Y-101851939D01*
X130535000Y-101648061D01*
X130495226Y-101448102D01*
X130417205Y-101259744D01*
X130303937Y-101090226D01*
X130159774Y-100946063D01*
X129990256Y-100832795D01*
X129801898Y-100754774D01*
X129601939Y-100715000D01*
X129398061Y-100715000D01*
X129198102Y-100754774D01*
X129009744Y-100832795D01*
X128840226Y-100946063D01*
X128696063Y-101090226D01*
X128582795Y-101259744D01*
X128504774Y-101448102D01*
X128465000Y-101648061D01*
X117449646Y-101648061D01*
X117417205Y-101569744D01*
X117303937Y-101400226D01*
X117159774Y-101256063D01*
X116990256Y-101142795D01*
X116801898Y-101064774D01*
X116601939Y-101025000D01*
X116398061Y-101025000D01*
X116198102Y-101064774D01*
X116009744Y-101142795D01*
X115840226Y-101256063D01*
X115696063Y-101400226D01*
X115582795Y-101569744D01*
X115504774Y-101758102D01*
X115500000Y-101782103D01*
X115495226Y-101758102D01*
X115417205Y-101569744D01*
X115303937Y-101400226D01*
X115159774Y-101256063D01*
X114990256Y-101142795D01*
X114801898Y-101064774D01*
X114601939Y-101025000D01*
X114398061Y-101025000D01*
X114198102Y-101064774D01*
X114009744Y-101142795D01*
X113840226Y-101256063D01*
X113696063Y-101400226D01*
X113582795Y-101569744D01*
X113504774Y-101758102D01*
X113465000Y-101958061D01*
X98898168Y-101958061D01*
X98746632Y-101806525D01*
X98572240Y-101690000D01*
X98746632Y-101573475D01*
X98953475Y-101366632D01*
X99115990Y-101123411D01*
X99227932Y-100853158D01*
X99285000Y-100566260D01*
X99285000Y-100273740D01*
X99227932Y-99986842D01*
X99115990Y-99716589D01*
X98953475Y-99473368D01*
X98746632Y-99266525D01*
X98572240Y-99150000D01*
X98746632Y-99033475D01*
X98953475Y-98826632D01*
X99115990Y-98583411D01*
X99227932Y-98313158D01*
X99285000Y-98026260D01*
X99285000Y-97733740D01*
X99227932Y-97446842D01*
X99115990Y-97176589D01*
X98953475Y-96933368D01*
X98746632Y-96726525D01*
X98572240Y-96610000D01*
X98746632Y-96493475D01*
X98842046Y-96398061D01*
X118215000Y-96398061D01*
X118215000Y-96601939D01*
X118254774Y-96801898D01*
X118332795Y-96990256D01*
X118446063Y-97159774D01*
X118590226Y-97303937D01*
X118759744Y-97417205D01*
X118948102Y-97495226D01*
X119148061Y-97535000D01*
X119351939Y-97535000D01*
X119551898Y-97495226D01*
X119740256Y-97417205D01*
X119909774Y-97303937D01*
X120053937Y-97159774D01*
X120167205Y-96990256D01*
X120245226Y-96801898D01*
X120285000Y-96601939D01*
X120285000Y-96398061D01*
X120245226Y-96198102D01*
X120167205Y-96009744D01*
X120053937Y-95840226D01*
X119909774Y-95696063D01*
X119740256Y-95582795D01*
X119551898Y-95504774D01*
X119351939Y-95465000D01*
X119148061Y-95465000D01*
X118948102Y-95504774D01*
X118759744Y-95582795D01*
X118590226Y-95696063D01*
X118446063Y-95840226D01*
X118332795Y-96009744D01*
X118254774Y-96198102D01*
X118215000Y-96398061D01*
X98842046Y-96398061D01*
X98953475Y-96286632D01*
X99115990Y-96043411D01*
X99227932Y-95773158D01*
X99285000Y-95486260D01*
X99285000Y-95193740D01*
X148715000Y-95193740D01*
X148715000Y-95486260D01*
X148772068Y-95773158D01*
X148884010Y-96043411D01*
X149046525Y-96286632D01*
X149253368Y-96493475D01*
X149427760Y-96610000D01*
X149253368Y-96726525D01*
X149046525Y-96933368D01*
X148884010Y-97176589D01*
X148772068Y-97446842D01*
X148715000Y-97733740D01*
X148715000Y-98026260D01*
X148772068Y-98313158D01*
X148884010Y-98583411D01*
X149046525Y-98826632D01*
X149253368Y-99033475D01*
X149427760Y-99150000D01*
X149253368Y-99266525D01*
X149046525Y-99473368D01*
X148884010Y-99716589D01*
X148772068Y-99986842D01*
X148715000Y-100273740D01*
X148715000Y-100566260D01*
X148772068Y-100853158D01*
X148884010Y-101123411D01*
X149046525Y-101366632D01*
X149253368Y-101573475D01*
X149427760Y-101690000D01*
X149253368Y-101806525D01*
X149046525Y-102013368D01*
X148884010Y-102256589D01*
X148772068Y-102526842D01*
X148715000Y-102813740D01*
X148715000Y-103106260D01*
X148772068Y-103393158D01*
X148884010Y-103663411D01*
X149046525Y-103906632D01*
X149253368Y-104113475D01*
X149427760Y-104230000D01*
X149253368Y-104346525D01*
X149046525Y-104553368D01*
X148884010Y-104796589D01*
X148772068Y-105066842D01*
X148715000Y-105353740D01*
X148715000Y-105646260D01*
X148772068Y-105933158D01*
X148884010Y-106203411D01*
X149046525Y-106446632D01*
X149253368Y-106653475D01*
X149427760Y-106770000D01*
X149253368Y-106886525D01*
X149046525Y-107093368D01*
X148884010Y-107336589D01*
X148772068Y-107606842D01*
X148715000Y-107893740D01*
X148715000Y-108186260D01*
X148772068Y-108473158D01*
X148884010Y-108743411D01*
X149046525Y-108986632D01*
X149253368Y-109193475D01*
X149427760Y-109310000D01*
X149253368Y-109426525D01*
X149046525Y-109633368D01*
X148884010Y-109876589D01*
X148772068Y-110146842D01*
X148715000Y-110433740D01*
X148715000Y-110726260D01*
X148772068Y-111013158D01*
X148884010Y-111283411D01*
X149046525Y-111526632D01*
X149253368Y-111733475D01*
X149427760Y-111850000D01*
X149253368Y-111966525D01*
X149046525Y-112173368D01*
X148884010Y-112416589D01*
X148772068Y-112686842D01*
X148715000Y-112973740D01*
X148715000Y-113266260D01*
X148772068Y-113553158D01*
X148884010Y-113823411D01*
X149046525Y-114066632D01*
X149253368Y-114273475D01*
X149427760Y-114390000D01*
X149253368Y-114506525D01*
X149046525Y-114713368D01*
X148884010Y-114956589D01*
X148772068Y-115226842D01*
X148715000Y-115513740D01*
X148715000Y-115806260D01*
X148772068Y-116093158D01*
X148884010Y-116363411D01*
X149046525Y-116606632D01*
X149253368Y-116813475D01*
X149427760Y-116930000D01*
X149253368Y-117046525D01*
X149046525Y-117253368D01*
X148884010Y-117496589D01*
X148772068Y-117766842D01*
X148715000Y-118053740D01*
X148715000Y-118346260D01*
X148772068Y-118633158D01*
X148884010Y-118903411D01*
X149046525Y-119146632D01*
X149253368Y-119353475D01*
X149496589Y-119515990D01*
X149766842Y-119627932D01*
X150053740Y-119685000D01*
X150346260Y-119685000D01*
X150633158Y-119627932D01*
X150903411Y-119515990D01*
X151146632Y-119353475D01*
X151353475Y-119146632D01*
X151515990Y-118903411D01*
X151627932Y-118633158D01*
X151685000Y-118346260D01*
X151685000Y-118053740D01*
X151627932Y-117766842D01*
X151515990Y-117496589D01*
X151353475Y-117253368D01*
X151146632Y-117046525D01*
X150972240Y-116930000D01*
X151146632Y-116813475D01*
X151353475Y-116606632D01*
X151515990Y-116363411D01*
X151627932Y-116093158D01*
X151685000Y-115806260D01*
X151685000Y-115513740D01*
X151627932Y-115226842D01*
X151515990Y-114956589D01*
X151353475Y-114713368D01*
X151146632Y-114506525D01*
X150972240Y-114390000D01*
X151146632Y-114273475D01*
X151353475Y-114066632D01*
X151515990Y-113823411D01*
X151627932Y-113553158D01*
X151685000Y-113266260D01*
X151685000Y-112973740D01*
X151627932Y-112686842D01*
X151515990Y-112416589D01*
X151353475Y-112173368D01*
X151146632Y-111966525D01*
X150972240Y-111850000D01*
X151146632Y-111733475D01*
X151353475Y-111526632D01*
X151515990Y-111283411D01*
X151627932Y-111013158D01*
X151685000Y-110726260D01*
X151685000Y-110433740D01*
X151627932Y-110146842D01*
X151515990Y-109876589D01*
X151353475Y-109633368D01*
X151146632Y-109426525D01*
X150972240Y-109310000D01*
X151146632Y-109193475D01*
X151353475Y-108986632D01*
X151515990Y-108743411D01*
X151627932Y-108473158D01*
X151685000Y-108186260D01*
X151685000Y-107893740D01*
X151627932Y-107606842D01*
X151515990Y-107336589D01*
X151353475Y-107093368D01*
X151146632Y-106886525D01*
X150972240Y-106770000D01*
X151146632Y-106653475D01*
X151353475Y-106446632D01*
X151515990Y-106203411D01*
X151627932Y-105933158D01*
X151685000Y-105646260D01*
X151685000Y-105353740D01*
X151627932Y-105066842D01*
X151515990Y-104796589D01*
X151353475Y-104553368D01*
X151146632Y-104346525D01*
X150972240Y-104230000D01*
X151146632Y-104113475D01*
X151353475Y-103906632D01*
X151515990Y-103663411D01*
X151627932Y-103393158D01*
X151685000Y-103106260D01*
X151685000Y-102813740D01*
X151627932Y-102526842D01*
X151515990Y-102256589D01*
X151353475Y-102013368D01*
X151146632Y-101806525D01*
X150972240Y-101690000D01*
X151146632Y-101573475D01*
X151353475Y-101366632D01*
X151515990Y-101123411D01*
X151627932Y-100853158D01*
X151685000Y-100566260D01*
X151685000Y-100273740D01*
X151627932Y-99986842D01*
X151515990Y-99716589D01*
X151353475Y-99473368D01*
X151146632Y-99266525D01*
X150972240Y-99150000D01*
X151146632Y-99033475D01*
X151353475Y-98826632D01*
X151515990Y-98583411D01*
X151627932Y-98313158D01*
X151685000Y-98026260D01*
X151685000Y-97733740D01*
X151627932Y-97446842D01*
X151515990Y-97176589D01*
X151353475Y-96933368D01*
X151146632Y-96726525D01*
X150972240Y-96610000D01*
X151146632Y-96493475D01*
X151353475Y-96286632D01*
X151515990Y-96043411D01*
X151627932Y-95773158D01*
X151685000Y-95486260D01*
X151685000Y-95193740D01*
X151627932Y-94906842D01*
X151515990Y-94636589D01*
X151353475Y-94393368D01*
X151146632Y-94186525D01*
X150968210Y-94067307D01*
X151176473Y-93918817D01*
X151375981Y-93706819D01*
X151530296Y-93459972D01*
X151607323Y-93273989D01*
X151502857Y-93048000D01*
X150448000Y-93048000D01*
X150448000Y-93068000D01*
X149952000Y-93068000D01*
X149952000Y-93048000D01*
X148897143Y-93048000D01*
X148792677Y-93273989D01*
X148869704Y-93459972D01*
X149024019Y-93706819D01*
X149223527Y-93918817D01*
X149431790Y-94067307D01*
X149253368Y-94186525D01*
X149046525Y-94393368D01*
X148884010Y-94636589D01*
X148772068Y-94906842D01*
X148715000Y-95193740D01*
X99285000Y-95193740D01*
X99227932Y-94906842D01*
X99115990Y-94636589D01*
X98953475Y-94393368D01*
X98746632Y-94186525D01*
X98572240Y-94070000D01*
X98746632Y-93953475D01*
X98953475Y-93746632D01*
X99115990Y-93503411D01*
X99227932Y-93233158D01*
X99285000Y-92946260D01*
X99285000Y-92653740D01*
X99227932Y-92366842D01*
X99115990Y-92096589D01*
X99110292Y-92088061D01*
X118745000Y-92088061D01*
X118745000Y-92291939D01*
X118784774Y-92491898D01*
X118862795Y-92680256D01*
X118976063Y-92849774D01*
X119120226Y-92993937D01*
X119289744Y-93107205D01*
X119478102Y-93185226D01*
X119678061Y-93225000D01*
X119881939Y-93225000D01*
X120081898Y-93185226D01*
X120270256Y-93107205D01*
X120373737Y-93038061D01*
X134215000Y-93038061D01*
X134215000Y-93241939D01*
X134254774Y-93441898D01*
X134332795Y-93630256D01*
X134446063Y-93799774D01*
X134590226Y-93943937D01*
X134759744Y-94057205D01*
X134948102Y-94135226D01*
X135148061Y-94175000D01*
X135351939Y-94175000D01*
X135551898Y-94135226D01*
X135740256Y-94057205D01*
X135909774Y-93943937D01*
X136053937Y-93799774D01*
X136167205Y-93630256D01*
X136245226Y-93441898D01*
X136285000Y-93241939D01*
X136285000Y-93038061D01*
X136245226Y-92838102D01*
X136167205Y-92649744D01*
X136053937Y-92480226D01*
X135909774Y-92336063D01*
X135740256Y-92222795D01*
X135551898Y-92144774D01*
X135351939Y-92105000D01*
X135148061Y-92105000D01*
X134948102Y-92144774D01*
X134759744Y-92222795D01*
X134590226Y-92336063D01*
X134446063Y-92480226D01*
X134332795Y-92649744D01*
X134254774Y-92838102D01*
X134215000Y-93038061D01*
X120373737Y-93038061D01*
X120439774Y-92993937D01*
X120583937Y-92849774D01*
X120697205Y-92680256D01*
X120775226Y-92491898D01*
X120815000Y-92291939D01*
X120815000Y-92088061D01*
X120775226Y-91888102D01*
X120697205Y-91699744D01*
X120583937Y-91530226D01*
X120439774Y-91386063D01*
X120270256Y-91272795D01*
X120081898Y-91194774D01*
X119881939Y-91155000D01*
X119678061Y-91155000D01*
X119478102Y-91194774D01*
X119289744Y-91272795D01*
X119120226Y-91386063D01*
X118976063Y-91530226D01*
X118862795Y-91699744D01*
X118784774Y-91888102D01*
X118745000Y-92088061D01*
X99110292Y-92088061D01*
X98953475Y-91853368D01*
X98746632Y-91646525D01*
X98572240Y-91530000D01*
X98746632Y-91413475D01*
X98953475Y-91206632D01*
X99115990Y-90963411D01*
X99227932Y-90693158D01*
X99285000Y-90406260D01*
X99285000Y-90113740D01*
X99227932Y-89826842D01*
X99115990Y-89556589D01*
X99010066Y-89398061D01*
X114215000Y-89398061D01*
X114215000Y-89601939D01*
X114254774Y-89801898D01*
X114332795Y-89990256D01*
X114446063Y-90159774D01*
X114590226Y-90303937D01*
X114759744Y-90417205D01*
X114948102Y-90495226D01*
X115148061Y-90535000D01*
X115351939Y-90535000D01*
X115551898Y-90495226D01*
X115740256Y-90417205D01*
X115909774Y-90303937D01*
X116053937Y-90159774D01*
X116135262Y-90038061D01*
X119305000Y-90038061D01*
X119305000Y-90241939D01*
X119344774Y-90441898D01*
X119422795Y-90630256D01*
X119536063Y-90799774D01*
X119680226Y-90943937D01*
X119849744Y-91057205D01*
X120038102Y-91135226D01*
X120238061Y-91175000D01*
X120441939Y-91175000D01*
X120641898Y-91135226D01*
X120830256Y-91057205D01*
X120999774Y-90943937D01*
X121045650Y-90898061D01*
X127965000Y-90898061D01*
X127965000Y-91101939D01*
X128004774Y-91301898D01*
X128082795Y-91490256D01*
X128196063Y-91659774D01*
X128340226Y-91803937D01*
X128509744Y-91917205D01*
X128698102Y-91995226D01*
X128898061Y-92035000D01*
X129101939Y-92035000D01*
X129301898Y-91995226D01*
X129490256Y-91917205D01*
X129518907Y-91898061D01*
X131965000Y-91898061D01*
X131965000Y-92101939D01*
X132004774Y-92301898D01*
X132082795Y-92490256D01*
X132196063Y-92659774D01*
X132340226Y-92803937D01*
X132509744Y-92917205D01*
X132698102Y-92995226D01*
X132898061Y-93035000D01*
X133101939Y-93035000D01*
X133301898Y-92995226D01*
X133490256Y-92917205D01*
X133659774Y-92803937D01*
X133803937Y-92659774D01*
X133917205Y-92490256D01*
X133995226Y-92301898D01*
X134035000Y-92101939D01*
X134035000Y-91898061D01*
X133995226Y-91698102D01*
X133917205Y-91509744D01*
X133803937Y-91340226D01*
X133659774Y-91196063D01*
X133490256Y-91082795D01*
X133301898Y-91004774D01*
X133101939Y-90965000D01*
X132898061Y-90965000D01*
X132698102Y-91004774D01*
X132509744Y-91082795D01*
X132340226Y-91196063D01*
X132196063Y-91340226D01*
X132082795Y-91509744D01*
X132004774Y-91698102D01*
X131965000Y-91898061D01*
X129518907Y-91898061D01*
X129659774Y-91803937D01*
X129803937Y-91659774D01*
X129917205Y-91490256D01*
X129995226Y-91301898D01*
X130035000Y-91101939D01*
X130035000Y-90898061D01*
X129995226Y-90698102D01*
X129917205Y-90509744D01*
X129803937Y-90340226D01*
X129659774Y-90196063D01*
X129490256Y-90082795D01*
X129301898Y-90004774D01*
X129101939Y-89965000D01*
X128898061Y-89965000D01*
X128698102Y-90004774D01*
X128509744Y-90082795D01*
X128340226Y-90196063D01*
X128196063Y-90340226D01*
X128082795Y-90509744D01*
X128004774Y-90698102D01*
X127965000Y-90898061D01*
X121045650Y-90898061D01*
X121143937Y-90799774D01*
X121257205Y-90630256D01*
X121335226Y-90441898D01*
X121375000Y-90241939D01*
X121375000Y-90038061D01*
X121335226Y-89838102D01*
X121257205Y-89649744D01*
X121143937Y-89480226D01*
X120999774Y-89336063D01*
X120830256Y-89222795D01*
X120641898Y-89144774D01*
X120441939Y-89105000D01*
X120238061Y-89105000D01*
X120038102Y-89144774D01*
X119849744Y-89222795D01*
X119680226Y-89336063D01*
X119536063Y-89480226D01*
X119422795Y-89649744D01*
X119344774Y-89838102D01*
X119305000Y-90038061D01*
X116135262Y-90038061D01*
X116167205Y-89990256D01*
X116245226Y-89801898D01*
X116285000Y-89601939D01*
X116285000Y-89398061D01*
X116245226Y-89198102D01*
X116167205Y-89009744D01*
X116053937Y-88840226D01*
X115909774Y-88696063D01*
X115740256Y-88582795D01*
X115551898Y-88504774D01*
X115351939Y-88465000D01*
X115148061Y-88465000D01*
X114948102Y-88504774D01*
X114759744Y-88582795D01*
X114590226Y-88696063D01*
X114446063Y-88840226D01*
X114332795Y-89009744D01*
X114254774Y-89198102D01*
X114215000Y-89398061D01*
X99010066Y-89398061D01*
X98953475Y-89313368D01*
X98746632Y-89106525D01*
X98568210Y-88987307D01*
X98776473Y-88838817D01*
X98975981Y-88626819D01*
X99130296Y-88379972D01*
X99207323Y-88193989D01*
X99186093Y-88148061D01*
X123215000Y-88148061D01*
X123215000Y-88351939D01*
X123254774Y-88551898D01*
X123332795Y-88740256D01*
X123446063Y-88909774D01*
X123590226Y-89053937D01*
X123759744Y-89167205D01*
X123948102Y-89245226D01*
X124148061Y-89285000D01*
X124351939Y-89285000D01*
X124551898Y-89245226D01*
X124740256Y-89167205D01*
X124885738Y-89069997D01*
X124913763Y-89210887D01*
X124991784Y-89399245D01*
X125105052Y-89568763D01*
X125249215Y-89712926D01*
X125418733Y-89826194D01*
X125607091Y-89904215D01*
X125807050Y-89943989D01*
X126010928Y-89943989D01*
X126210887Y-89904215D01*
X126399245Y-89826194D01*
X126568763Y-89712926D01*
X126712926Y-89568763D01*
X126826194Y-89399245D01*
X126904215Y-89210887D01*
X126943989Y-89010928D01*
X126943989Y-88807050D01*
X126904215Y-88607091D01*
X126826194Y-88418733D01*
X126712926Y-88249215D01*
X126568763Y-88105052D01*
X126399245Y-87991784D01*
X126210887Y-87913763D01*
X126010928Y-87873989D01*
X125807050Y-87873989D01*
X125607091Y-87913763D01*
X125418733Y-87991784D01*
X125273251Y-88088992D01*
X125245226Y-87948102D01*
X125167205Y-87759744D01*
X125053937Y-87590226D01*
X124909774Y-87446063D01*
X124740256Y-87332795D01*
X124551898Y-87254774D01*
X124351939Y-87215000D01*
X124148061Y-87215000D01*
X123948102Y-87254774D01*
X123759744Y-87332795D01*
X123590226Y-87446063D01*
X123446063Y-87590226D01*
X123332795Y-87759744D01*
X123254774Y-87948102D01*
X123215000Y-88148061D01*
X99186093Y-88148061D01*
X99102857Y-87968000D01*
X98048000Y-87968000D01*
X98048000Y-87988000D01*
X97552000Y-87988000D01*
X97552000Y-87968000D01*
X96497143Y-87968000D01*
X96392677Y-88193989D01*
X96469704Y-88379972D01*
X96624019Y-88626819D01*
X96823527Y-88838817D01*
X97031790Y-88987307D01*
X96853368Y-89106525D01*
X96646525Y-89313368D01*
X96484010Y-89556589D01*
X96372068Y-89826842D01*
X96315000Y-90113740D01*
X95660000Y-90113740D01*
X95660000Y-84330000D01*
X96311928Y-84330000D01*
X96311928Y-86030000D01*
X96324188Y-86154482D01*
X96360498Y-86274180D01*
X96419463Y-86384494D01*
X96498815Y-86481185D01*
X96595506Y-86560537D01*
X96705820Y-86619502D01*
X96783976Y-86643210D01*
X96624019Y-86813181D01*
X96469704Y-87060028D01*
X96392677Y-87246011D01*
X96497143Y-87472000D01*
X97552000Y-87472000D01*
X97552000Y-87452000D01*
X98048000Y-87452000D01*
X98048000Y-87472000D01*
X99102857Y-87472000D01*
X99207323Y-87246011D01*
X99130296Y-87060028D01*
X98975981Y-86813181D01*
X98816024Y-86643210D01*
X98894180Y-86619502D01*
X99004494Y-86560537D01*
X99101185Y-86481185D01*
X99180537Y-86384494D01*
X99239502Y-86274180D01*
X99275812Y-86154482D01*
X99288072Y-86030000D01*
X99288072Y-85148061D01*
X114215000Y-85148061D01*
X114215000Y-85351939D01*
X114254774Y-85551898D01*
X114332795Y-85740256D01*
X114446063Y-85909774D01*
X114590226Y-86053937D01*
X114759744Y-86167205D01*
X114948102Y-86245226D01*
X115148061Y-86285000D01*
X115351939Y-86285000D01*
X115551898Y-86245226D01*
X115661082Y-86200000D01*
X130511928Y-86200000D01*
X130511928Y-87900000D01*
X130524188Y-88024482D01*
X130560498Y-88144180D01*
X130619463Y-88254494D01*
X130698815Y-88351185D01*
X130795506Y-88430537D01*
X130905820Y-88489502D01*
X130978380Y-88511513D01*
X130846525Y-88643368D01*
X130684010Y-88886589D01*
X130572068Y-89156842D01*
X130515000Y-89443740D01*
X130515000Y-89736260D01*
X130572068Y-90023158D01*
X130684010Y-90293411D01*
X130846525Y-90536632D01*
X131053368Y-90743475D01*
X131296589Y-90905990D01*
X131566842Y-91017932D01*
X131853740Y-91075000D01*
X132146260Y-91075000D01*
X132433158Y-91017932D01*
X132703411Y-90905990D01*
X132946632Y-90743475D01*
X133153475Y-90536632D01*
X133270000Y-90362240D01*
X133386525Y-90536632D01*
X133593368Y-90743475D01*
X133836589Y-90905990D01*
X134106842Y-91017932D01*
X134393740Y-91075000D01*
X134686260Y-91075000D01*
X134973158Y-91017932D01*
X135243411Y-90905990D01*
X135486632Y-90743475D01*
X135693475Y-90536632D01*
X135810000Y-90362240D01*
X135926525Y-90536632D01*
X136133368Y-90743475D01*
X136376589Y-90905990D01*
X136646842Y-91017932D01*
X136933740Y-91075000D01*
X137226260Y-91075000D01*
X137513158Y-91017932D01*
X137783411Y-90905990D01*
X138026632Y-90743475D01*
X138233475Y-90536632D01*
X138350000Y-90362240D01*
X138466525Y-90536632D01*
X138673368Y-90743475D01*
X138916589Y-90905990D01*
X139186842Y-91017932D01*
X139473740Y-91075000D01*
X139766260Y-91075000D01*
X140053158Y-91017932D01*
X140323411Y-90905990D01*
X140566632Y-90743475D01*
X140773475Y-90536632D01*
X140890000Y-90362240D01*
X141006525Y-90536632D01*
X141213368Y-90743475D01*
X141456589Y-90905990D01*
X141726842Y-91017932D01*
X142013740Y-91075000D01*
X142306260Y-91075000D01*
X142593158Y-91017932D01*
X142863411Y-90905990D01*
X143106632Y-90743475D01*
X143313475Y-90536632D01*
X143475990Y-90293411D01*
X143587932Y-90023158D01*
X143645000Y-89736260D01*
X143645000Y-89443740D01*
X143638289Y-89410000D01*
X148711928Y-89410000D01*
X148711928Y-91110000D01*
X148724188Y-91234482D01*
X148760498Y-91354180D01*
X148819463Y-91464494D01*
X148898815Y-91561185D01*
X148995506Y-91640537D01*
X149105820Y-91699502D01*
X149183976Y-91723210D01*
X149024019Y-91893181D01*
X148869704Y-92140028D01*
X148792677Y-92326011D01*
X148897143Y-92552000D01*
X149952000Y-92552000D01*
X149952000Y-92532000D01*
X150448000Y-92532000D01*
X150448000Y-92552000D01*
X151502857Y-92552000D01*
X151607323Y-92326011D01*
X151530296Y-92140028D01*
X151375981Y-91893181D01*
X151216024Y-91723210D01*
X151294180Y-91699502D01*
X151404494Y-91640537D01*
X151501185Y-91561185D01*
X151580537Y-91464494D01*
X151639502Y-91354180D01*
X151675812Y-91234482D01*
X151688072Y-91110000D01*
X151688072Y-89410000D01*
X151675812Y-89285518D01*
X151639502Y-89165820D01*
X151580537Y-89055506D01*
X151501185Y-88958815D01*
X151404494Y-88879463D01*
X151294180Y-88820498D01*
X151174482Y-88784188D01*
X151050000Y-88771928D01*
X149350000Y-88771928D01*
X149225518Y-88784188D01*
X149105820Y-88820498D01*
X148995506Y-88879463D01*
X148898815Y-88958815D01*
X148819463Y-89055506D01*
X148760498Y-89165820D01*
X148724188Y-89285518D01*
X148711928Y-89410000D01*
X143638289Y-89410000D01*
X143587932Y-89156842D01*
X143475990Y-88886589D01*
X143313475Y-88643368D01*
X143106632Y-88436525D01*
X142924595Y-88314892D01*
X143066819Y-88225981D01*
X143278817Y-88026473D01*
X143447820Y-87789440D01*
X143567333Y-87523991D01*
X143465405Y-87298000D01*
X142408000Y-87298000D01*
X142408000Y-87318000D01*
X141912000Y-87318000D01*
X141912000Y-87298000D01*
X141892000Y-87298000D01*
X141892000Y-86802000D01*
X141912000Y-86802000D01*
X141912000Y-85747143D01*
X142408000Y-85747143D01*
X142408000Y-86802000D01*
X143465405Y-86802000D01*
X143567333Y-86576009D01*
X143447820Y-86310560D01*
X143278817Y-86073527D01*
X143066819Y-85874019D01*
X142819972Y-85719704D01*
X142633989Y-85642677D01*
X142408000Y-85747143D01*
X141912000Y-85747143D01*
X141686011Y-85642677D01*
X141500028Y-85719704D01*
X141253181Y-85874019D01*
X141041183Y-86073527D01*
X140892693Y-86281790D01*
X140773475Y-86103368D01*
X140566632Y-85896525D01*
X140323411Y-85734010D01*
X140053158Y-85622068D01*
X139766260Y-85565000D01*
X139473740Y-85565000D01*
X139186842Y-85622068D01*
X138916589Y-85734010D01*
X138673368Y-85896525D01*
X138466525Y-86103368D01*
X138347307Y-86281790D01*
X138198817Y-86073527D01*
X137986819Y-85874019D01*
X137739972Y-85719704D01*
X137553989Y-85642677D01*
X137328000Y-85747143D01*
X137328000Y-86802000D01*
X137348000Y-86802000D01*
X137348000Y-87298000D01*
X137328000Y-87298000D01*
X137328000Y-87318000D01*
X136832000Y-87318000D01*
X136832000Y-87298000D01*
X134788000Y-87298000D01*
X134788000Y-87318000D01*
X134292000Y-87318000D01*
X134292000Y-87298000D01*
X134272000Y-87298000D01*
X134272000Y-86802000D01*
X134292000Y-86802000D01*
X134292000Y-85747143D01*
X134788000Y-85747143D01*
X134788000Y-86802000D01*
X136832000Y-86802000D01*
X136832000Y-85747143D01*
X136606011Y-85642677D01*
X136420028Y-85719704D01*
X136173181Y-85874019D01*
X135961183Y-86073527D01*
X135810000Y-86285567D01*
X135658817Y-86073527D01*
X135446819Y-85874019D01*
X135199972Y-85719704D01*
X135013989Y-85642677D01*
X134788000Y-85747143D01*
X134292000Y-85747143D01*
X134066011Y-85642677D01*
X133880028Y-85719704D01*
X133633181Y-85874019D01*
X133463210Y-86033976D01*
X133439502Y-85955820D01*
X133380537Y-85845506D01*
X133301185Y-85748815D01*
X133204494Y-85669463D01*
X133094180Y-85610498D01*
X132974482Y-85574188D01*
X132850000Y-85561928D01*
X131150000Y-85561928D01*
X131025518Y-85574188D01*
X130905820Y-85610498D01*
X130795506Y-85669463D01*
X130698815Y-85748815D01*
X130619463Y-85845506D01*
X130560498Y-85955820D01*
X130524188Y-86075518D01*
X130511928Y-86200000D01*
X115661082Y-86200000D01*
X115740256Y-86167205D01*
X115909774Y-86053937D01*
X116053937Y-85909774D01*
X116167205Y-85740256D01*
X116245226Y-85551898D01*
X116285000Y-85351939D01*
X116285000Y-85154013D01*
X116434774Y-85053937D01*
X116578937Y-84909774D01*
X116692205Y-84740256D01*
X116770226Y-84551898D01*
X116810000Y-84351939D01*
X116810000Y-84148061D01*
X116770226Y-83948102D01*
X116692205Y-83759744D01*
X116578937Y-83590226D01*
X116434774Y-83446063D01*
X116265256Y-83332795D01*
X116076898Y-83254774D01*
X115876939Y-83215000D01*
X115673061Y-83215000D01*
X115473102Y-83254774D01*
X115284744Y-83332795D01*
X115115226Y-83446063D01*
X114971063Y-83590226D01*
X114857795Y-83759744D01*
X114779774Y-83948102D01*
X114740000Y-84148061D01*
X114740000Y-84345987D01*
X114590226Y-84446063D01*
X114446063Y-84590226D01*
X114332795Y-84759744D01*
X114254774Y-84948102D01*
X114215000Y-85148061D01*
X99288072Y-85148061D01*
X99288072Y-84330000D01*
X99275812Y-84205518D01*
X99239502Y-84085820D01*
X99180537Y-83975506D01*
X99101185Y-83878815D01*
X99004494Y-83799463D01*
X98894180Y-83740498D01*
X98774482Y-83704188D01*
X98650000Y-83691928D01*
X96950000Y-83691928D01*
X96825518Y-83704188D01*
X96705820Y-83740498D01*
X96595506Y-83799463D01*
X96498815Y-83878815D01*
X96419463Y-83975506D01*
X96360498Y-84085820D01*
X96324188Y-84205518D01*
X96311928Y-84330000D01*
X95660000Y-84330000D01*
X95660000Y-82871354D01*
X123248955Y-82871354D01*
X123248955Y-83075232D01*
X123288729Y-83275191D01*
X123366750Y-83463549D01*
X123480018Y-83633067D01*
X123624181Y-83777230D01*
X123793699Y-83890498D01*
X123982057Y-83968519D01*
X124182016Y-84008293D01*
X124385894Y-84008293D01*
X124585853Y-83968519D01*
X124774211Y-83890498D01*
X124780327Y-83886411D01*
X124754774Y-83948102D01*
X124715000Y-84148061D01*
X124715000Y-84351939D01*
X124754774Y-84551898D01*
X124832795Y-84740256D01*
X124946063Y-84909774D01*
X125090226Y-85053937D01*
X125259744Y-85167205D01*
X125448102Y-85245226D01*
X125648061Y-85285000D01*
X125851939Y-85285000D01*
X126051898Y-85245226D01*
X126240256Y-85167205D01*
X126409774Y-85053937D01*
X126553937Y-84909774D01*
X126667205Y-84740256D01*
X126745226Y-84551898D01*
X126785000Y-84351939D01*
X126785000Y-84148061D01*
X126745226Y-83948102D01*
X126667205Y-83759744D01*
X126553937Y-83590226D01*
X126409774Y-83446063D01*
X126240256Y-83332795D01*
X126051898Y-83254774D01*
X125851939Y-83215000D01*
X125648061Y-83215000D01*
X125448102Y-83254774D01*
X125259744Y-83332795D01*
X125253628Y-83336882D01*
X125279181Y-83275191D01*
X125318955Y-83075232D01*
X125318955Y-82871354D01*
X125279181Y-82671395D01*
X125201160Y-82483037D01*
X125087892Y-82313519D01*
X124943729Y-82169356D01*
X124774211Y-82056088D01*
X124585853Y-81978067D01*
X124435002Y-81948061D01*
X129665000Y-81948061D01*
X129665000Y-82151939D01*
X129704774Y-82351898D01*
X129782795Y-82540256D01*
X129896063Y-82709774D01*
X129911289Y-82725000D01*
X129896063Y-82740226D01*
X129782795Y-82909744D01*
X129704774Y-83098102D01*
X129665000Y-83298061D01*
X129665000Y-83501939D01*
X129704774Y-83701898D01*
X129782795Y-83890256D01*
X129896063Y-84059774D01*
X130040226Y-84203937D01*
X130209744Y-84317205D01*
X130398102Y-84395226D01*
X130598061Y-84435000D01*
X130801939Y-84435000D01*
X131001898Y-84395226D01*
X131190256Y-84317205D01*
X131359774Y-84203937D01*
X131503937Y-84059774D01*
X131617205Y-83890256D01*
X131695226Y-83701898D01*
X131735000Y-83501939D01*
X131735000Y-83298061D01*
X131695226Y-83098102D01*
X131617205Y-82909744D01*
X131503937Y-82740226D01*
X131488711Y-82725000D01*
X131503937Y-82709774D01*
X131617205Y-82540256D01*
X131695226Y-82351898D01*
X131735000Y-82151939D01*
X131735000Y-81948061D01*
X134265000Y-81948061D01*
X134265000Y-82151939D01*
X134304774Y-82351898D01*
X134382795Y-82540256D01*
X134496063Y-82709774D01*
X134511289Y-82725000D01*
X134496063Y-82740226D01*
X134382795Y-82909744D01*
X134304774Y-83098102D01*
X134265000Y-83298061D01*
X134265000Y-83501939D01*
X134304774Y-83701898D01*
X134382795Y-83890256D01*
X134496063Y-84059774D01*
X134640226Y-84203937D01*
X134809744Y-84317205D01*
X134998102Y-84395226D01*
X135198061Y-84435000D01*
X135401939Y-84435000D01*
X135601898Y-84395226D01*
X135790256Y-84317205D01*
X135959774Y-84203937D01*
X136103937Y-84059774D01*
X136217205Y-83890256D01*
X136295226Y-83701898D01*
X136335000Y-83501939D01*
X136335000Y-83298061D01*
X136295226Y-83098102D01*
X136217205Y-82909744D01*
X136103937Y-82740226D01*
X136088711Y-82725000D01*
X136103937Y-82709774D01*
X136217205Y-82540256D01*
X136295226Y-82351898D01*
X136335000Y-82151939D01*
X136335000Y-81948061D01*
X136295226Y-81748102D01*
X136217205Y-81559744D01*
X136108104Y-81396461D01*
X143215000Y-81396461D01*
X143215000Y-81600339D01*
X143254774Y-81800298D01*
X143332795Y-81988656D01*
X143340375Y-82000000D01*
X143332795Y-82011344D01*
X143254774Y-82199702D01*
X143215000Y-82399661D01*
X143215000Y-82603539D01*
X143254774Y-82803498D01*
X143332795Y-82991856D01*
X143446063Y-83161374D01*
X143590226Y-83305537D01*
X143759744Y-83418805D01*
X143764494Y-83420773D01*
X143753174Y-83448102D01*
X143713400Y-83648061D01*
X143713400Y-83851939D01*
X143753174Y-84051898D01*
X143831195Y-84240256D01*
X143944463Y-84409774D01*
X144088626Y-84553937D01*
X144258144Y-84667205D01*
X144446502Y-84745226D01*
X144646461Y-84785000D01*
X144850339Y-84785000D01*
X145050298Y-84745226D01*
X145238656Y-84667205D01*
X145250000Y-84659625D01*
X145261344Y-84667205D01*
X145449702Y-84745226D01*
X145649661Y-84785000D01*
X145853539Y-84785000D01*
X146053498Y-84745226D01*
X146241856Y-84667205D01*
X146411374Y-84553937D01*
X146555537Y-84409774D01*
X146668805Y-84240256D01*
X146675124Y-84225000D01*
X147284388Y-84225000D01*
X147306785Y-84452400D01*
X147373115Y-84671060D01*
X147480829Y-84872579D01*
X147625788Y-85049212D01*
X147802421Y-85194171D01*
X148003940Y-85301885D01*
X148222600Y-85368215D01*
X148393021Y-85385000D01*
X148706979Y-85385000D01*
X148877400Y-85368215D01*
X149096060Y-85301885D01*
X149297579Y-85194171D01*
X149474212Y-85049212D01*
X149619171Y-84872579D01*
X149726885Y-84671060D01*
X149793215Y-84452400D01*
X149815612Y-84225000D01*
X149793215Y-83997600D01*
X149726885Y-83778940D01*
X149619171Y-83577421D01*
X149474212Y-83400788D01*
X149297579Y-83255829D01*
X149096060Y-83148115D01*
X148877400Y-83081785D01*
X148706979Y-83065000D01*
X148393021Y-83065000D01*
X148222600Y-83081785D01*
X148003940Y-83148115D01*
X147802421Y-83255829D01*
X147625788Y-83400788D01*
X147480829Y-83577421D01*
X147373115Y-83778940D01*
X147306785Y-83997600D01*
X147284388Y-84225000D01*
X146675124Y-84225000D01*
X146746826Y-84051898D01*
X146786600Y-83851939D01*
X146786600Y-83648061D01*
X146746826Y-83448102D01*
X146668805Y-83259744D01*
X146555537Y-83090226D01*
X146411374Y-82946063D01*
X146241856Y-82832795D01*
X146053498Y-82754774D01*
X145853539Y-82715000D01*
X145649661Y-82715000D01*
X145449702Y-82754774D01*
X145261344Y-82832795D01*
X145250000Y-82840375D01*
X145238656Y-82832795D01*
X145233906Y-82830827D01*
X145245226Y-82803498D01*
X145285000Y-82603539D01*
X145285000Y-82399661D01*
X145245226Y-82199702D01*
X145167205Y-82011344D01*
X145159625Y-82000000D01*
X145167205Y-81988656D01*
X145245226Y-81800298D01*
X145285000Y-81600339D01*
X145285000Y-81396461D01*
X145245226Y-81196502D01*
X145167205Y-81008144D01*
X145053937Y-80838626D01*
X144909774Y-80694463D01*
X144740256Y-80581195D01*
X144551898Y-80503174D01*
X144351939Y-80463400D01*
X144148061Y-80463400D01*
X143948102Y-80503174D01*
X143759744Y-80581195D01*
X143590226Y-80694463D01*
X143446063Y-80838626D01*
X143332795Y-81008144D01*
X143254774Y-81196502D01*
X143215000Y-81396461D01*
X136108104Y-81396461D01*
X136103937Y-81390226D01*
X135959774Y-81246063D01*
X135790256Y-81132795D01*
X135601898Y-81054774D01*
X135401939Y-81015000D01*
X135198061Y-81015000D01*
X134998102Y-81054774D01*
X134809744Y-81132795D01*
X134640226Y-81246063D01*
X134496063Y-81390226D01*
X134382795Y-81559744D01*
X134304774Y-81748102D01*
X134265000Y-81948061D01*
X131735000Y-81948061D01*
X131695226Y-81748102D01*
X131617205Y-81559744D01*
X131503937Y-81390226D01*
X131359774Y-81246063D01*
X131190256Y-81132795D01*
X131001898Y-81054774D01*
X130801939Y-81015000D01*
X130598061Y-81015000D01*
X130398102Y-81054774D01*
X130209744Y-81132795D01*
X130040226Y-81246063D01*
X129896063Y-81390226D01*
X129782795Y-81559744D01*
X129704774Y-81748102D01*
X129665000Y-81948061D01*
X124435002Y-81948061D01*
X124385894Y-81938293D01*
X124182016Y-81938293D01*
X123982057Y-81978067D01*
X123793699Y-82056088D01*
X123624181Y-82169356D01*
X123480018Y-82313519D01*
X123366750Y-82483037D01*
X123288729Y-82671395D01*
X123248955Y-82871354D01*
X95660000Y-82871354D01*
X95660000Y-80973989D01*
X103122677Y-80973989D01*
X103199704Y-81159972D01*
X103354019Y-81406819D01*
X103553527Y-81618817D01*
X103790560Y-81787820D01*
X104056009Y-81907333D01*
X104282000Y-81805405D01*
X104282000Y-80748000D01*
X104778000Y-80748000D01*
X104778000Y-81805405D01*
X105003991Y-81907333D01*
X105131332Y-81850000D01*
X115511928Y-81850000D01*
X115524188Y-81974482D01*
X115560498Y-82094180D01*
X115619463Y-82204494D01*
X115698815Y-82301185D01*
X115795506Y-82380537D01*
X115905820Y-82439502D01*
X116025518Y-82475812D01*
X116150000Y-82488072D01*
X116593250Y-82485000D01*
X116752000Y-82326250D01*
X116752000Y-81248000D01*
X117248000Y-81248000D01*
X117248000Y-82326250D01*
X117406750Y-82485000D01*
X117850000Y-82488072D01*
X117974482Y-82475812D01*
X118094180Y-82439502D01*
X118204494Y-82380537D01*
X118301185Y-82301185D01*
X118380537Y-82204494D01*
X118439502Y-82094180D01*
X118475812Y-81974482D01*
X118488072Y-81850000D01*
X118485000Y-81406750D01*
X118326250Y-81248000D01*
X117248000Y-81248000D01*
X116752000Y-81248000D01*
X115673750Y-81248000D01*
X115515000Y-81406750D01*
X115511928Y-81850000D01*
X105131332Y-81850000D01*
X105269440Y-81787820D01*
X105506473Y-81618817D01*
X105705981Y-81406819D01*
X105860296Y-81159972D01*
X105937323Y-80973989D01*
X105832857Y-80748000D01*
X104778000Y-80748000D01*
X104282000Y-80748000D01*
X103227143Y-80748000D01*
X103122677Y-80973989D01*
X95660000Y-80973989D01*
X95660000Y-72030000D01*
X103041928Y-72030000D01*
X103041928Y-73730000D01*
X103054188Y-73854482D01*
X103090498Y-73974180D01*
X103149463Y-74084494D01*
X103228815Y-74181185D01*
X103325506Y-74260537D01*
X103435820Y-74319502D01*
X103508380Y-74341513D01*
X103376525Y-74473368D01*
X103214010Y-74716589D01*
X103102068Y-74986842D01*
X103045000Y-75273740D01*
X103045000Y-75566260D01*
X103102068Y-75853158D01*
X103214010Y-76123411D01*
X103376525Y-76366632D01*
X103583368Y-76573475D01*
X103757760Y-76690000D01*
X103583368Y-76806525D01*
X103376525Y-77013368D01*
X103214010Y-77256589D01*
X103102068Y-77526842D01*
X103045000Y-77813740D01*
X103045000Y-78106260D01*
X103102068Y-78393158D01*
X103214010Y-78663411D01*
X103376525Y-78906632D01*
X103583368Y-79113475D01*
X103761790Y-79232693D01*
X103553527Y-79381183D01*
X103354019Y-79593181D01*
X103199704Y-79840028D01*
X103122677Y-80026011D01*
X103227143Y-80252000D01*
X104282000Y-80252000D01*
X104282000Y-80232000D01*
X104778000Y-80232000D01*
X104778000Y-80252000D01*
X105832857Y-80252000D01*
X105880007Y-80150000D01*
X115511928Y-80150000D01*
X115515000Y-80593250D01*
X115673750Y-80752000D01*
X116752000Y-80752000D01*
X116752000Y-80732000D01*
X117248000Y-80732000D01*
X117248000Y-80752000D01*
X118326250Y-80752000D01*
X118485000Y-80593250D01*
X118488072Y-80150000D01*
X118475812Y-80025518D01*
X118439502Y-79905820D01*
X118380537Y-79795506D01*
X118363709Y-79775000D01*
X147284388Y-79775000D01*
X147306785Y-80002400D01*
X147373115Y-80221060D01*
X147480829Y-80422579D01*
X147625788Y-80599212D01*
X147802421Y-80744171D01*
X148003940Y-80851885D01*
X148222600Y-80918215D01*
X148393021Y-80935000D01*
X148706979Y-80935000D01*
X148877400Y-80918215D01*
X149096060Y-80851885D01*
X149297579Y-80744171D01*
X149474212Y-80599212D01*
X149619171Y-80422579D01*
X149726885Y-80221060D01*
X149793215Y-80002400D01*
X149815612Y-79775000D01*
X149793215Y-79547600D01*
X149726885Y-79328940D01*
X149619171Y-79127421D01*
X149474212Y-78950788D01*
X149297579Y-78805829D01*
X149096060Y-78698115D01*
X148877400Y-78631785D01*
X148706979Y-78615000D01*
X148393021Y-78615000D01*
X148222600Y-78631785D01*
X148003940Y-78698115D01*
X147802421Y-78805829D01*
X147625788Y-78950788D01*
X147480829Y-79127421D01*
X147373115Y-79328940D01*
X147306785Y-79547600D01*
X147284388Y-79775000D01*
X118363709Y-79775000D01*
X118301185Y-79698815D01*
X118204494Y-79619463D01*
X118094180Y-79560498D01*
X118021620Y-79538487D01*
X118153475Y-79406632D01*
X118315990Y-79163411D01*
X118427932Y-78893158D01*
X118485000Y-78606260D01*
X118485000Y-78313740D01*
X118427932Y-78026842D01*
X118315990Y-77756589D01*
X118243474Y-77648061D01*
X131415000Y-77648061D01*
X131415000Y-77851939D01*
X131454774Y-78051898D01*
X131532795Y-78240256D01*
X131646063Y-78409774D01*
X131790226Y-78553937D01*
X131959744Y-78667205D01*
X132148102Y-78745226D01*
X132348061Y-78785000D01*
X132551939Y-78785000D01*
X132751898Y-78745226D01*
X132940256Y-78667205D01*
X133000000Y-78627285D01*
X133059744Y-78667205D01*
X133248102Y-78745226D01*
X133448061Y-78785000D01*
X133651939Y-78785000D01*
X133851898Y-78745226D01*
X134040256Y-78667205D01*
X134209774Y-78553937D01*
X134353937Y-78409774D01*
X134467205Y-78240256D01*
X134545226Y-78051898D01*
X134585000Y-77851939D01*
X134585000Y-77648061D01*
X134545226Y-77448102D01*
X134467205Y-77259744D01*
X134353937Y-77090226D01*
X134209774Y-76946063D01*
X134040256Y-76832795D01*
X133851898Y-76754774D01*
X133651939Y-76715000D01*
X133448061Y-76715000D01*
X133248102Y-76754774D01*
X133059744Y-76832795D01*
X133000000Y-76872715D01*
X132940256Y-76832795D01*
X132751898Y-76754774D01*
X132551939Y-76715000D01*
X132348061Y-76715000D01*
X132148102Y-76754774D01*
X131959744Y-76832795D01*
X131790226Y-76946063D01*
X131646063Y-77090226D01*
X131532795Y-77259744D01*
X131454774Y-77448102D01*
X131415000Y-77648061D01*
X118243474Y-77648061D01*
X118153475Y-77513368D01*
X117946632Y-77306525D01*
X117772240Y-77190000D01*
X117946632Y-77073475D01*
X118153475Y-76866632D01*
X118315990Y-76623411D01*
X118427932Y-76353158D01*
X118485000Y-76066260D01*
X118485000Y-75773740D01*
X118427932Y-75486842D01*
X118315990Y-75216589D01*
X118153475Y-74973368D01*
X117946632Y-74766525D01*
X117703411Y-74604010D01*
X117433158Y-74492068D01*
X117146260Y-74435000D01*
X116853740Y-74435000D01*
X116566842Y-74492068D01*
X116296589Y-74604010D01*
X116053368Y-74766525D01*
X115846525Y-74973368D01*
X115684010Y-75216589D01*
X115572068Y-75486842D01*
X115515000Y-75773740D01*
X115515000Y-76066260D01*
X115572068Y-76353158D01*
X115684010Y-76623411D01*
X115846525Y-76866632D01*
X116053368Y-77073475D01*
X116227760Y-77190000D01*
X116053368Y-77306525D01*
X115846525Y-77513368D01*
X115684010Y-77756589D01*
X115572068Y-78026842D01*
X115515000Y-78313740D01*
X115515000Y-78606260D01*
X115572068Y-78893158D01*
X115684010Y-79163411D01*
X115846525Y-79406632D01*
X115978380Y-79538487D01*
X115905820Y-79560498D01*
X115795506Y-79619463D01*
X115698815Y-79698815D01*
X115619463Y-79795506D01*
X115560498Y-79905820D01*
X115524188Y-80025518D01*
X115511928Y-80150000D01*
X105880007Y-80150000D01*
X105937323Y-80026011D01*
X105860296Y-79840028D01*
X105705981Y-79593181D01*
X105506473Y-79381183D01*
X105298210Y-79232693D01*
X105476632Y-79113475D01*
X105683475Y-78906632D01*
X105845990Y-78663411D01*
X105957932Y-78393158D01*
X106015000Y-78106260D01*
X106015000Y-77813740D01*
X105957932Y-77526842D01*
X105845990Y-77256589D01*
X105683475Y-77013368D01*
X105476632Y-76806525D01*
X105302240Y-76690000D01*
X105476632Y-76573475D01*
X105683475Y-76366632D01*
X105845990Y-76123411D01*
X105957932Y-75853158D01*
X106015000Y-75566260D01*
X106015000Y-75273740D01*
X105957932Y-74986842D01*
X105845990Y-74716589D01*
X105683475Y-74473368D01*
X105551620Y-74341513D01*
X105624180Y-74319502D01*
X105734494Y-74260537D01*
X105831185Y-74181185D01*
X105910537Y-74084494D01*
X105969502Y-73974180D01*
X106005812Y-73854482D01*
X106018072Y-73730000D01*
X106018072Y-72898061D01*
X123215000Y-72898061D01*
X123215000Y-73101939D01*
X123254774Y-73301898D01*
X123332795Y-73490256D01*
X123446063Y-73659774D01*
X123590226Y-73803937D01*
X123759744Y-73917205D01*
X123948102Y-73995226D01*
X124148061Y-74035000D01*
X124351939Y-74035000D01*
X124551898Y-73995226D01*
X124740256Y-73917205D01*
X124843737Y-73848061D01*
X134365000Y-73848061D01*
X134365000Y-74051939D01*
X134404774Y-74251898D01*
X134482795Y-74440256D01*
X134596063Y-74609774D01*
X134740226Y-74753937D01*
X134909744Y-74867205D01*
X135098102Y-74945226D01*
X135298061Y-74985000D01*
X135501939Y-74985000D01*
X135701898Y-74945226D01*
X135890256Y-74867205D01*
X136059774Y-74753937D01*
X136203937Y-74609774D01*
X136311989Y-74448061D01*
X139715000Y-74448061D01*
X139715000Y-74651939D01*
X139754774Y-74851898D01*
X139832795Y-75040256D01*
X139946063Y-75209774D01*
X140090226Y-75353937D01*
X140259744Y-75467205D01*
X140448102Y-75545226D01*
X140648061Y-75585000D01*
X140851939Y-75585000D01*
X141051898Y-75545226D01*
X141240256Y-75467205D01*
X141409774Y-75353937D01*
X141553937Y-75209774D01*
X141667205Y-75040256D01*
X141745226Y-74851898D01*
X141785000Y-74651939D01*
X141785000Y-74448061D01*
X141745226Y-74248102D01*
X141667205Y-74059744D01*
X141553937Y-73890226D01*
X141409774Y-73746063D01*
X141240256Y-73632795D01*
X141051898Y-73554774D01*
X140851939Y-73515000D01*
X140648061Y-73515000D01*
X140448102Y-73554774D01*
X140259744Y-73632795D01*
X140090226Y-73746063D01*
X139946063Y-73890226D01*
X139832795Y-74059744D01*
X139754774Y-74248102D01*
X139715000Y-74448061D01*
X136311989Y-74448061D01*
X136317205Y-74440256D01*
X136395226Y-74251898D01*
X136435000Y-74051939D01*
X136435000Y-74002565D01*
X136598061Y-74035000D01*
X136801939Y-74035000D01*
X137001898Y-73995226D01*
X137190256Y-73917205D01*
X137359774Y-73803937D01*
X137503937Y-73659774D01*
X137617205Y-73490256D01*
X137695226Y-73301898D01*
X137735000Y-73101939D01*
X137735000Y-72898061D01*
X137695226Y-72698102D01*
X137617205Y-72509744D01*
X137503937Y-72340226D01*
X137359774Y-72196063D01*
X137190256Y-72082795D01*
X137001898Y-72004774D01*
X136801939Y-71965000D01*
X136598061Y-71965000D01*
X136398102Y-72004774D01*
X136209744Y-72082795D01*
X136040226Y-72196063D01*
X135896063Y-72340226D01*
X135782795Y-72509744D01*
X135704774Y-72698102D01*
X135665000Y-72898061D01*
X135665000Y-72947435D01*
X135501939Y-72915000D01*
X135298061Y-72915000D01*
X135098102Y-72954774D01*
X134909744Y-73032795D01*
X134740226Y-73146063D01*
X134596063Y-73290226D01*
X134482795Y-73459744D01*
X134404774Y-73648102D01*
X134365000Y-73848061D01*
X124843737Y-73848061D01*
X124909774Y-73803937D01*
X125053937Y-73659774D01*
X125167205Y-73490256D01*
X125245226Y-73301898D01*
X125285000Y-73101939D01*
X125285000Y-72898061D01*
X125245226Y-72698102D01*
X125167205Y-72509744D01*
X125053937Y-72340226D01*
X124909774Y-72196063D01*
X124740256Y-72082795D01*
X124551898Y-72004774D01*
X124351939Y-71965000D01*
X124148061Y-71965000D01*
X123948102Y-72004774D01*
X123759744Y-72082795D01*
X123590226Y-72196063D01*
X123446063Y-72340226D01*
X123332795Y-72509744D01*
X123254774Y-72698102D01*
X123215000Y-72898061D01*
X106018072Y-72898061D01*
X106018072Y-72030000D01*
X106005812Y-71905518D01*
X105969502Y-71785820D01*
X105910537Y-71675506D01*
X105888014Y-71648061D01*
X120465000Y-71648061D01*
X120465000Y-71851939D01*
X120504774Y-72051898D01*
X120582795Y-72240256D01*
X120696063Y-72409774D01*
X120840226Y-72553937D01*
X121009744Y-72667205D01*
X121198102Y-72745226D01*
X121398061Y-72785000D01*
X121601939Y-72785000D01*
X121801898Y-72745226D01*
X121990256Y-72667205D01*
X122159774Y-72553937D01*
X122303937Y-72409774D01*
X122417205Y-72240256D01*
X122495226Y-72051898D01*
X122535000Y-71851939D01*
X122535000Y-71648061D01*
X122495226Y-71448102D01*
X122417205Y-71259744D01*
X122303937Y-71090226D01*
X122159774Y-70946063D01*
X121990256Y-70832795D01*
X121801898Y-70754774D01*
X121601939Y-70715000D01*
X121398061Y-70715000D01*
X121198102Y-70754774D01*
X121009744Y-70832795D01*
X120840226Y-70946063D01*
X120696063Y-71090226D01*
X120582795Y-71259744D01*
X120504774Y-71448102D01*
X120465000Y-71648061D01*
X105888014Y-71648061D01*
X105831185Y-71578815D01*
X105734494Y-71499463D01*
X105624180Y-71440498D01*
X105504482Y-71404188D01*
X105380000Y-71391928D01*
X103680000Y-71391928D01*
X103555518Y-71404188D01*
X103435820Y-71440498D01*
X103325506Y-71499463D01*
X103228815Y-71578815D01*
X103149463Y-71675506D01*
X103090498Y-71785820D01*
X103054188Y-71905518D01*
X103041928Y-72030000D01*
X95660000Y-72030000D01*
X95660000Y-68639647D01*
X96711078Y-68639647D01*
X97058653Y-69093958D01*
X97699556Y-69413246D01*
X98390436Y-69601366D01*
X99104739Y-69651086D01*
X99815019Y-69560498D01*
X100431660Y-69353954D01*
X113396771Y-69353954D01*
X113526679Y-69623946D01*
X113860275Y-69763118D01*
X114214613Y-69834536D01*
X114576075Y-69835453D01*
X114930771Y-69765834D01*
X115265069Y-69628356D01*
X115273321Y-69623946D01*
X115403229Y-69353954D01*
X114400000Y-68350725D01*
X113396771Y-69353954D01*
X100431660Y-69353954D01*
X100493977Y-69333081D01*
X100941347Y-69093958D01*
X101288922Y-68639647D01*
X99000000Y-66350725D01*
X96711078Y-68639647D01*
X95660000Y-68639647D01*
X95660000Y-67473320D01*
X95666919Y-67493977D01*
X95906042Y-67941347D01*
X96360353Y-68288922D01*
X98649275Y-66000000D01*
X99350725Y-66000000D01*
X101639647Y-68288922D01*
X101787147Y-68176075D01*
X112564547Y-68176075D01*
X112634166Y-68530771D01*
X112771644Y-68865069D01*
X112776054Y-68873321D01*
X113046046Y-69003229D01*
X114049275Y-68000000D01*
X114750725Y-68000000D01*
X115753954Y-69003229D01*
X116023946Y-68873321D01*
X116061928Y-68782278D01*
X116061928Y-69200000D01*
X116074188Y-69324482D01*
X116110498Y-69444180D01*
X116169463Y-69554494D01*
X116248815Y-69651185D01*
X116345506Y-69730537D01*
X116455820Y-69789502D01*
X116575518Y-69825812D01*
X116700000Y-69838072D01*
X119100000Y-69838072D01*
X119224482Y-69825812D01*
X119344180Y-69789502D01*
X119454494Y-69730537D01*
X119551185Y-69651185D01*
X119630537Y-69554494D01*
X119689502Y-69444180D01*
X119725812Y-69324482D01*
X119738072Y-69200000D01*
X119738072Y-68639647D01*
X146711078Y-68639647D01*
X147058653Y-69093958D01*
X147699556Y-69413246D01*
X148390436Y-69601366D01*
X149104739Y-69651086D01*
X149815019Y-69560498D01*
X150493977Y-69333081D01*
X150941347Y-69093958D01*
X151288922Y-68639647D01*
X149000000Y-66350725D01*
X146711078Y-68639647D01*
X119738072Y-68639647D01*
X119738072Y-66800000D01*
X119725812Y-66675518D01*
X119689502Y-66555820D01*
X119630537Y-66445506D01*
X119551185Y-66348815D01*
X119454494Y-66269463D01*
X119344180Y-66210498D01*
X119224482Y-66174188D01*
X119100000Y-66161928D01*
X116700000Y-66161928D01*
X116575518Y-66174188D01*
X116455820Y-66210498D01*
X116345506Y-66269463D01*
X116248815Y-66348815D01*
X116169463Y-66445506D01*
X116110498Y-66555820D01*
X116074188Y-66675518D01*
X116061928Y-66800000D01*
X116061928Y-67216566D01*
X116028356Y-67134931D01*
X116023946Y-67126679D01*
X115753954Y-66996771D01*
X114750725Y-68000000D01*
X114049275Y-68000000D01*
X113046046Y-66996771D01*
X112776054Y-67126679D01*
X112636882Y-67460275D01*
X112565464Y-67814613D01*
X112564547Y-68176075D01*
X101787147Y-68176075D01*
X102093958Y-67941347D01*
X102413246Y-67300444D01*
X102601366Y-66609564D01*
X102608298Y-66509970D01*
X102642307Y-66592074D01*
X102779099Y-66796798D01*
X102953202Y-66970901D01*
X103157926Y-67107693D01*
X103385402Y-67201917D01*
X103626890Y-67249952D01*
X103873110Y-67249952D01*
X104114598Y-67201917D01*
X104342074Y-67107693D01*
X104546798Y-66970901D01*
X104720901Y-66796798D01*
X104821630Y-66646046D01*
X113396771Y-66646046D01*
X114400000Y-67649275D01*
X115403229Y-66646046D01*
X115273321Y-66376054D01*
X114939725Y-66236882D01*
X114585387Y-66165464D01*
X114223925Y-66164547D01*
X113869229Y-66234166D01*
X113534931Y-66371644D01*
X113526679Y-66376054D01*
X113396771Y-66646046D01*
X104821630Y-66646046D01*
X104857693Y-66592074D01*
X104951917Y-66364598D01*
X104999952Y-66123110D01*
X104999952Y-65952890D01*
X143000048Y-65952890D01*
X143000048Y-66199110D01*
X143048083Y-66440598D01*
X143142307Y-66668074D01*
X143279099Y-66872798D01*
X143453202Y-67046901D01*
X143657926Y-67183693D01*
X143885402Y-67277917D01*
X144126890Y-67325952D01*
X144373110Y-67325952D01*
X144614598Y-67277917D01*
X144842074Y-67183693D01*
X145046798Y-67046901D01*
X145220901Y-66872798D01*
X145357693Y-66668074D01*
X145405914Y-66551660D01*
X145439502Y-66815019D01*
X145666919Y-67493977D01*
X145906042Y-67941347D01*
X146360353Y-68288922D01*
X148649275Y-66000000D01*
X146360353Y-63711078D01*
X145906042Y-64058653D01*
X145586754Y-64699556D01*
X145398634Y-65390436D01*
X145387173Y-65555096D01*
X145357693Y-65483926D01*
X145220901Y-65279202D01*
X145046798Y-65105099D01*
X144842074Y-64968307D01*
X144614598Y-64874083D01*
X144373110Y-64826048D01*
X144126890Y-64826048D01*
X143885402Y-64874083D01*
X143657926Y-64968307D01*
X143453202Y-65105099D01*
X143279099Y-65279202D01*
X143142307Y-65483926D01*
X143048083Y-65711402D01*
X143000048Y-65952890D01*
X104999952Y-65952890D01*
X104999952Y-65876890D01*
X104951917Y-65635402D01*
X104857693Y-65407926D01*
X104720901Y-65203202D01*
X104546798Y-65029099D01*
X104342074Y-64892307D01*
X104114598Y-64798083D01*
X103873110Y-64750048D01*
X103626890Y-64750048D01*
X103385402Y-64798083D01*
X103157926Y-64892307D01*
X102953202Y-65029099D01*
X102779099Y-65203202D01*
X102642307Y-65407926D01*
X102601497Y-65506449D01*
X102560498Y-65184981D01*
X102333081Y-64506023D01*
X102093958Y-64058653D01*
X101639647Y-63711078D01*
X99350725Y-66000000D01*
X98649275Y-66000000D01*
X98635133Y-65985858D01*
X98985858Y-65635133D01*
X99000000Y-65649275D01*
X101288922Y-63360353D01*
X100941347Y-62906042D01*
X100447470Y-62660000D01*
X147526680Y-62660000D01*
X147506023Y-62666919D01*
G37*
%TD.AperFunction*%
%TD*%
M02*
